SplineFontDB: 3.0
FontName: Essays1743-Bold
FullName: Essays 1743
FamilyName: Essays1743
Weight: Bold
Copyright: Created by John Stracke with PfaEdit 1.0 (http://pfaedit.sf.net)
FontLog: "2010-03-17: Adding 6 arrows.  Want to add more.+AAoACgAA-2010-03-07: Adding a bunch of characters to round out some scripts (pointed out by Fedora's QA bot, which runs fc-query).+AAoACgAA-2010-03-02: A whole bunch of cleanups (prodded by +AAoA-Fedora's font sanity checker, and a couple of people whose OSes were rendering capital O as a solid circle).  Jumping version # to 1.1.+AAoACgAA-2006-01-09: Moved the dot of uni1E46 to the center (thanks to Nathan Hill).  Calling this 1.001.+AAoACgAA-2004-10-09: Added bunch of other Latin-derived chars.  Calling this 0.2; don't expect much change before 1.0.+AAoACgAA-2004-10-04: Finished Latin-1 and Latin Extended A (plus miscellaneous other chars).+AAoACgAA-2004-9-21: Finished the basic alphabet (Roman alphabet +------------ +AH8A +------------ +AMMAnwAA).+AAoACgAA-2004-6-7: Began." 
Version: 001.203
ItalicAngle: 0
UnderlinePosition: -100
UnderlineWidth: 50
Ascent: 759
Descent: 265
LayerCount: 2
Layer: 0 0 "Back"  1
Layer: 1 0 "Fore"  0
NeedsXUIDChange: 1
XUID: [1021 117 711671440 1260258]
FSType: 0
OS2Version: 0
OS2_WeightWidthSlopeOnly: 0
OS2_UseTypoMetrics: 0
CreationTime: 1168432599
ModificationTime: 1269039991
PfmFamily: 17
TTFWeight: 700
TTFWidth: 5
LineGap: 90
VLineGap: 0
Panose: 2 0 6 2 0 0 0 0 0 0
OS2TypoAscent: 0
OS2TypoAOffset: 1
OS2TypoDescent: 0
OS2TypoDOffset: 1
OS2TypoLinegap: 0
OS2WinAscent: 0
OS2WinAOffset: 1
OS2WinDescent: 0
OS2WinDOffset: 1
HheadAscent: 0
HheadAOffset: 1
HheadDescent: 0
HheadDOffset: 1
OS2Vendor: 'PfEd'
Lookup: 4 0 1 "'liga' Standard Ligatures in Latin lookup 0"  {"'liga' Standard Ligatures in Latin lookup 0 subtable"  } ['liga' ('latn' <'dflt' > ) ]
Lookup: 4 0 0 "'frac' Diagonal Fractions lookup 1"  {"'frac' Diagonal Fractions lookup 1 subtable"  } ['frac' ('DFLT' <'dflt' > ) ]

StartChar: exclam
Encoding: 33 33 1
Width: 301
Flags: HW
LayerCount: 2
Fore
SplineSet
112 217 m 0
 106 222 102 226 101 234 c 0
 94 284 92 311 92 332 c 0
 92 346 93 358 93 373 c 0
 93 381 92 389 92 399 c 0
 88 489 81 546 81 626 c 0
 81 649 82 673 83 700 c 0
 84 718 121 751 168 751 c 0
 189 751 213 744 236 725 c 0
 242 720 245 715 245 708 c 0
 246 686 246 665 246 645 c 0
 246 447 220 346 205 251 c 0
 203 239 174 209 141 209 c 0
 131 209 122 211 112 217 c 0
74 86 m 0
 77 116 93 143 125 156 c 0
 141 163 155 166 169 166 c 0
 214 166 244 132 244 93 c 0
 244 73 236 51 216 32 c 0
 198 15 175 7 152 7 c 0
 112 7 74 32 74 77 c 0
 74 80 74 83 74 86 c 0
EndSplineSet
Validated: 1
EndChar

StartChar: numbersign
Encoding: 35 35 3
Width: 526
Flags: HW
LayerCount: 2
Fore
SplineSet
213 447 m 1
 245 449 278 455 304 458 c 1
 320 503 342 521 364 521 c 0
 389 521 413 494 423 454 c 1
 445 450 464 444 480 430 c 0
 498 413 506 398 506 384 c 0
 506 352 467 328 431 319 c 1
 433 291 438 262 441 239 c 1
 474 230 506 202 506 173 c 0
 506 161 501 150 490 139 c 0
 475 124 456 115 435 109 c 1
 427 70 398 36 367 36 c 0
 356 36 344 41 333 52 c 0
 320 65 311 82 305 100 c 1
 277 99 248 98 221 97 c 1
 212 66 184 36 156 36 c 0
 144 36 133 41 122 52 c 0
 107 67 98 86 92 107 c 1
 54 119 20 142 20 170 c 0
 20 182 28 196 45 209 c 0
 57 218 69 224 83 228 c 1
 82 266 81 294 80 323 c 1
 38 339 21 360 21 380 c 0
 21 406 48 430 87 440 c 1
 97 478 122 522 153 522 c 0
 165 522 178 515 191 497 c 0
 203 482 210 465 213 447 c 1
230 237 m 1
 253 240 269 243 294 246 c 1
 293 268 292 290 291 311 c 1
 267 310 244 309 221 308 c 1
 224 282 228 259 230 237 c 1
EndSplineSet
Validated: 1
EndChar

StartChar: dollar
Encoding: 36 36 4
Width: 368
VWidth: 1080
Flags: HW
LayerCount: 2
Fore
SplineSet
246 635 m 1
 279 623 307 601 322 563 c 0
 327 550 330 539 330 528 c 0
 330 508 323 489 311 463 c 0
 302 445 294 439 285 439 c 0
 273 439 262 451 252 465 c 1
 252 458 252 451 252 445 c 1
 288 418 328 397 347 340 c 0
 353 322 356 303 356 284 c 0
 356 221 322 163 252 141 c 1
 254 113 258 87 264 60 c 0
 265 56 266 52 266 48 c 0
 266 19 235 7 200 7 c 0
 152 7 96 29 96 59 c 0
 96 63 96 66 98 70 c 1
 98 94 98 116 98 135 c 1
 78 140 55 149 39 173 c 0
 24 196 16 219 16 244 c 0
 16 263 21 284 33 307 c 0
 43 326 53 334 63 334 c 0
 74 334 84 326 95 314 c 1
 94 341 l 1
 53 354 22 399 22 476 c 0
 22 480 22 483 22 487 c 0
 24 542 53 578 90 606 c 1
 90 635 90 668 90 705 c 1
 90 706 90 707 90 709 c 0
 90 746 121 760 151 760 c 0
 164 760 178 757 188 752 c 0
 222 735 238 690 246 635 c 1
EndSplineSet
Validated: 1
EndChar

StartChar: ampersand
Encoding: 38 38 6
Width: 934
Flags: HW
LayerCount: 2
Fore
SplineSet
355 620 m 0
 340 606 324 601 309 601 c 0
 288 601 270 610 260 610 c 0
 258 610 256 610 255 609 c 0
 230 593 218 580 218 568 c 0
 218 565 219 562 220 560 c 0
 221 556 228 555 236 555 c 0
 244 555 254 556 264 556 c 0
 290 556 321 551 336 518 c 0
 341 507 343 497 343 488 c 0
 343 456 319 430 298 412 c 0
 278 394 256 390 238 390 c 0
 223 390 209 393 201 393 c 0
 196 393 193 392 192 389 c 0
 174 345 166 320 166 300 c 0
 166 276 177 259 198 228 c 0
 223 192 255 187 313 174 c 0
 347 166 374 161 400 161 c 0
 424 161 447 165 478 173 c 0
 537 188 569 198 599 240 c 0
 621 271 631 297 631 327 c 0
 631 344 628 362 622 383 c 0
 613 417 602 434 575 444 c 0
 561 449 548 451 537 451 c 0
 516 451 499 443 487 427 c 0
 483 421 484 413 491 407 c 0
 491 407 492 407 493 407 c 0
 501 407 531 426 560 426 c 0
 576 426 592 420 604 402 c 0
 612 391 615 379 615 368 c 0
 615 319 553 273 491 273 c 0
 463 273 435 282 412 304 c 0
 384 331 373 363 373 395 c 0
 373 426 383 458 399 486 c 0
 428 537 478 546 523 557 c 0
 538 561 554 563 569 563 c 0
 640 563 706 528 735 528 c 0
 744 528 749 531 749 541 c 0
 749 542 749 542 749 543 c 0
 748 551 687 539 676 589 c 0
 674 598 673 607 673 615 c 0
 673 656 694 695 739 710 c 0
 752 714 766 716 780 716 c 0
 834 716 888 687 896 632 c 0
 897 624 898 615 898 606 c 0
 898 559 882 501 834 460 c 0
 813 442 792 437 773 437 c 0
 755 437 740 441 728 441 c 0
 721 441 715 440 712 435 c 0
 711 434 711 433 711 432 c 0
 711 424 727 413 727 372 c 0
 728 334 739 298 739 260 c 0
 739 226 730 190 696 149 c 0
 655 99 625 43 543 27 c 0
 482 15 436 5 382 5 c 0
 347 5 309 10 262 20 c 0
 193 36 136 53 89 114 c 0
 50 165 23 219 23 278 c 0
 23 302 28 327 38 354 c 0
 79 464 103 479 117 479 c 0
 122 479 126 477 129 477 c 0
 131 477 132 477 133 479 c 1
 132 486 90 509 90 560 c 0
 91 627 112 680 179 717 c 0
 209 734 249 753 289 753 c 0
 315 753 341 744 363 721 c 0
 376 707 382 692 382 677 c 0
 382 655 370 634 355 620 c 0
EndSplineSet
Validated: 1
EndChar

StartChar: quotesingle
Encoding: 39 39 7
Width: 284
Flags: HW
LayerCount: 2
Fore
SplineSet
89 447 m 1
 64 462 41 488 27 529 c 0
 21 547 19 563 19 580 c 0
 19 602 23 623 30 645 c 0
 40 676 49 725 100 742 c 0
 113 746 125 748 137 748 c 0
 181 748 218 723 245 688 c 0
 266 660 273 631 273 603 c 0
 273 577 268 552 262 527 c 0
 253 483 228 467 217 443 c 0
 214 436 213 425 213 413 c 0
 213 389 217 357 217 326 c 0
 217 272 203 220 123 218 c 1
 115 218 110 220 104 225 c 0
 87 243 82 271 82 304 c 0
 82 345 89 392 89 432 c 0
 89 437 89 442 89 447 c 1
EndSplineSet
Validated: 1
EndChar

StartChar: parenleft
Encoding: 40 40 8
Width: 280
Flags: HW
LayerCount: 2
Fore
SplineSet
127 -221 m 0
 82 -125 58 -69 41 35 c 0
 29 112 20 175 20 239 c 0
 20 296 27 354 44 423 c 0
 73 544 108 623 192 713 c 0
 201 723 211 727 220 727 c 0
 245 727 267 698 267 673 c 0
 267 668 266 663 264 658 c 0
 200 525 183 492 164 377 c 0
 154 315 147 267 147 218 c 0
 147 174 153 129 165 74 c 0
 188 -26 204 -12 281 -172 c 0
 284 -179 286 -185 286 -192 c 0
 286 -228 236 -255 192 -255 c 0
 164 -255 138 -245 127 -221 c 0
EndSplineSet
Validated: 1
EndChar

StartChar: asterisk
Encoding: 42 42 10
Width: 552
Flags: HW
LayerCount: 2
Fore
SplineSet
442 562 m 1
 455 565 476 573 496 573 c 0
 519 573 540 561 540 511 c 0
 540 508 540 506 540 503 c 0
 538 455 500 445 465 445 c 0
 442 445 421 449 411 450 c 1
 425 437 491 402 491 356 c 0
 491 340 482 322 459 304 c 0
 435 285 418 278 405 278 c 0
 363 278 367 354 354 369 c 1
 356 356 363 331 363 305 c 0
 363 270 349 236 289 236 c 0
 286 236 283 236 280 236 c 0
 228 239 215 262 215 291 c 0
 215 315 224 343 225 367 c 1
 200 345 200 265 154 265 c 0
 138 265 117 274 88 299 c 0
 66 318 57 335 57 349 c 0
 57 392 138 415 173 431 c 1
 171 431 169 431 166 431 c 0
 133 431 94 413 63 413 c 0
 36 413 16 427 12 480 c 0
 12 483 12 487 12 490 c 0
 12 535 38 543 72 543 c 0
 89 543 109 540 128 540 c 0
 138 540 147 541 156 543 c 1
 117 560 64 577 64 615 c 0
 64 628 70 643 85 661 c 0
 107 688 125 698 140 698 c 0
 174 698 195 647 225 625 c 1
 225 626 225 628 225 629 c 0
 225 645 213 672 213 695 c 0
 213 720 227 742 284 742 c 0
 285 742 285 742 286 742 c 0
 325 742 334 727 334 701 c 0
 334 684 330 662 330 637 c 0
 330 633 330 628 330 624 c 1
 358 647 367 710 409 710 c 0
 424 710 444 701 471 679 c 0
 497 658 507 641 507 627 c 0
 507 595 459 579 442 562 c 1
EndSplineSet
Validated: 1
EndChar

StartChar: plus
Encoding: 43 43 11
Width: 360
Flags: HW
LayerCount: 2
Fore
SplineSet
257 308 m 1
 259 307 262 306 264 306 c 0
 271 306 278 308 288 308 c 0
 301 308 316 304 332 282 c 1
 344 266 352 246 352 225 c 0
 352 210 348 195 338 181 c 0
 328 166 310 163 292 163 c 0
 279 163 267 165 258 165 c 0
 255 165 252 165 250 164 c 1
 250 157 254 140 254 122 c 0
 254 104 250 85 235 74 c 0
 219 62 199 54 178 54 c 0
 163 54 148 58 134 68 c 0
 100 91 102 144 100 158 c 1
 98 159 95 159 91 159 c 0
 86 159 79 158 71 158 c 0
 55 158 35 161 21 180 c 0
 12 193 8 207 8 221 c 0
 8 241 16 260 29 274 c 0
 46 294 91 292 104 296 c 1
 104 297 104 299 104 301 c 0
 104 307 104 314 104 322 c 0
 104 342 107 366 134 385 c 0
 147 394 161 398 174 398 c 0
 194 398 213 390 228 377 c 0
 228 377 257 338 257 308 c 1
EndSplineSet
Validated: 1
EndChar

StartChar: comma
Encoding: 44 44 12
Width: 322
Flags: HW
LayerCount: 2
Fore
SplineSet
133 -198 m 0
 130 -198 126 -198 123 -198 c 0
 95 -198 50 -193 41 -150 c 0
 40 -146 40 -142 40 -139 c 0
 40 -86 117 -75 124 -60 c 0
 126 -54 127 -50 127 -47 c 0
 127 -41 125 -36 125 -28 c 0
 125 -26 57 -24 50 31 c 0
 48 44 47 57 47 70 c 0
 47 108 57 144 96 172 c 0
 115 186 134 191 153 191 c 0
 176 191 198 183 217 175 c 0
 250 162 268 139 281 111 c 0
 291 88 295 68 295 48 c 0
 295 31 292 13 289 -5 c 0
 277 -64 261 -106 217 -153 c 0
 196 -175 173 -196 133 -198 c 0
EndSplineSet
Validated: 1
EndChar

StartChar: hyphen
Encoding: 45 45 13
Width: 364
Flags: HW
LayerCount: 2
Fore
SplineSet
23 168 m 0
 14 181 10 195 10 209 c 0
 10 229 18 248 31 262 c 0
 59 294 92 296 122 296 c 0
 126 296 131 296 136 296 c 0
 145 296 155 296 163 298 c 0
 185 301 204 308 231 308 c 0
 237 308 244 308 251 307 c 0
 276 303 310 302 334 270 c 0
 346 254 354 234 354 213 c 0
 354 198 350 183 340 169 c 0
 305 116 247 124 204 122 c 0
 183 121 159 118 135 118 c 0
 94 118 53 127 23 168 c 0
EndSplineSet
Validated: 1
EndChar

StartChar: period
Encoding: 46 46 14
Width: 331
VWidth: 1080
Flags: HW
LayerCount: 2
Fore
SplineSet
266 119 m 0
 266 64 221 8 149 8 c 0
 81 8 66 41 57 60 c 0
 48 82 42 105 42 127 c 0
 42 186 84 256 152 256 c 0
 231 256 266 166 266 119 c 0
EndSplineSet
Validated: 1
EndChar

StartChar: slash
Encoding: 47 47 15
Width: 823
VWidth: 1080
Flags: HW
LayerCount: 2
Fore
SplineSet
133 152 m 4
 279 328 328 368 447 489 c 4
 591 633 561 606 597 678 c 5
 580 674 569 672 563 672 c 4
 554 672 553 676 549 687 c 4
 547 692 546 697 546 702 c 4
 546 724 562 740 578 748 c 5
 582 750 585 751 590 751 c 4
 652 751 674 755 692 755 c 4
 711 755 727 750 786 731 c 5
 791 729 794 726 798 722 c 4
 806 712 809 700 809 689 c 4
 809 671 800 654 786 642 c 4
 774 632 763 628 755 628 c 4
 745 628 737 633 733 640 c 5
 624 514 615 499 527 392 c 4
 429 273 411 261 325 141 c 5
 321 128 298 126 311 126 c 4
 313 126 314 126 315 126 c 4
 327 126 335 129 342 129 c 4
 349 129 354 125 360 111 c 4
 362 105 363 100 363 95 c 4
 363 60 319 38 315 32 c 5
 309 25 304 22 295 22 c 4
 229 22 200 16 158 16 c 4
 136 16 112 18 77 22 c 5
 70 23 65 26 61 31 c 4
 56 37 14 52 14 93 c 4
 14 94 14 96 14 97 c 4
 16 135 50 149 71 157 c 4
 82 162 92 163 101 163 c 4
 124 163 132 152 133 152 c 4
EndSplineSet
Validated: 1
EndChar

StartChar: zero
Encoding: 48 48 16
Width: 580
Flags: HW
LayerCount: 2
Fore
SplineSet
323 159 m 0
 367 182 387 204 400 250 c 0
 404 264 406 276 406 287 c 0
 406 310 399 330 384 358 c 0
 369 389 358 401 329 413 c 0
 307 422 288 427 270 427 c 0
 251 427 233 421 211 410 c 0
 176 391 164 370 152 326 c 0
 146 305 143 289 143 273 c 0
 143 255 147 239 158 219 c 0
 181 180 206 166 254 153 c 0
 266 150 276 148 284 148 c 0
 297 148 308 151 323 159 c 0
172 47 m 0
 114 79 59 119 28 195 c 0
 14 231 7 266 7 300 c 0
 7 340 17 380 38 422 c 0
 68 481 104 518 166 542 c 0
 201 556 233 562 264 562 c 0
 300 562 334 555 372 543 c 0
 439 523 495 500 535 433 c 0
 562 388 574 344 574 300 c 0
 574 266 567 232 555 196 c 0
 530 118 489 62 410 29 c 0
 374 14 341 7 308 7 c 0
 264 7 221 20 172 47 c 0
EndSplineSet
Validated: 1
EndChar

StartChar: one
Encoding: 49 49 17
Width: 580
Flags: HW
VStem: 372 0<96 318>
LayerCount: 2
Fore
SplineSet
152 492 m 0
 152 538 181 568 200 568 c 0
 262 570 300 571 327 571 c 0
 358 571 375 570 398 568 c 1
 405 565 409 566 414 562 c 0
 439 541 450 513 450 484 c 0
 450 466 446 449 439 433 c 0
 416 386 415 436 413 426 c 1
 414 343 412 312 417 124 c 1
 423 131 424 143 436 127 c 1
 440 120 461 81 461 51 c 0
 461 31 452 15 425 15 c 0
 395 14 376 14 362 14 c 0
 335 14 333 15 328 15 c 2
 287 15 l 2
 267 15 234 15 182 14 c 1
 181 14 l 2
 151 14 142 35 142 59 c 0
 142 105 171 147 189 147 c 0
 196 147 202 140 208 131 c 1
 211 253 209 289 211 423 c 1
 206 420 201 411 193 411 c 0
 183 411 152 441 152 492 c 0
EndSplineSet
Validated: 1
EndChar

StartChar: two
Encoding: 50 50 18
Width: 580
Flags: HW
LayerCount: 2
Fore
SplineSet
339 560 m 0
 411 560 476 505 476 422 c 0
 476 391 468 361 460 332 c 0
 435 243 373 227 342 179 c 1
 340 172 339 170 338 160 c 1
 348 160 l 2
 360 160 368 159 388 159 c 1
 373 163 368 169 368 176 c 0
 368 188 389 205 393 207 c 0
 416 216 435 221 453 221 c 0
 473 221 492 215 513 201 c 1
 523 193 526 187 523 175 c 0
 498 64 503 96 447 23 c 0
 442 17 436 14 428 14 c 0
 312 8 279 6 260 6 c 0
 237 6 234 9 112 11 c 0
 87 11 79 28 79 46 c 0
 79 64 86 83 91 91 c 0
 176 229 238 228 297 341 c 0
 306 358 311 373 311 386 c 0
 311 403 300 426 276 426 c 0
 266 426 253 423 237 417 c 0
 199 404 209 383 146 329 c 1
 137 324 131 321 126 321 c 0
 111 321 89 361 89 388 c 0
 89 409 99 423 106 434 c 0
 152 499 174 517 230 536 c 0
 264 548 302 560 339 560 c 0
EndSplineSet
Validated: 1
EndChar

StartChar: three
Encoding: 51 51 19
Width: 580
Flags: HW
LayerCount: 2
Fore
SplineSet
166 58 m 1
 149 58 123 78 123 115 c 0
 123 144 141 186 145 190 c 0
 228 282 238 273 307 352 c 1
 308 352 308 353 308 354 c 0
 308 362 293 387 273 387 c 0
 216 387 237 326 155 294 c 0
 149 292 143 290 139 290 c 0
 115 290 110 319 110 343 c 0
 110 407 147 489 225 534 c 0
 261 554 276 567 333 567 c 0
 387 567 471 536 471 452 c 0
 471 424 463 395 458 369 c 0
 439 276 380 274 380 239 c 2
 380 237 l 1
 392 247 400 254 409 254 c 0
 417 254 427 249 441 237 c 0
 481 204 488 164 495 123 c 0
 499 96 502 72 502 49 c 0
 502 7 494 -32 475 -79 c 0
 452 -136 427 -181 368 -212 c 0
 323 -236 269 -261 217 -261 c 0
 143 -261 85 -208 85 -143 c 0
 85 -113 97 -84 119 -61 c 1
 126 -55 134 -52 172 -52 c 0
 190 -52 189 -55 207 -55 c 0
 212 -55 218 -54 226 -54 c 0
 241 -54 256 -68 256 -78 c 0
 256 -82 255 -86 255 -91 c 0
 255 -98 257 -119 264 -119 c 0
 271 -119 280 -106 292 -96 c 0
 309 -82 348 -52 348 49 c 0
 348 78 331 96 299 96 c 0
 290 96 279 95 265 94 c 0
 243 92 241 65 166 58 c 1
EndSplineSet
Validated: 1
EndChar

StartChar: four
Encoding: 52 52 20
Width: 580
Flags: HW
VStem: 240 96<-204 -100.467 -204 24>
LayerCount: 2
Back
SplineSet
134.518 130.331 m 1
 288.166 135.453 86.4375 128.03 235 137.463 c 1
 235 190.294 235 90.2461 235 243.304 c 1
 230.209 253.273 116.92 127.334 134.518 130.331 c 1
375.854 -211.418 m 4
 339.688 -253.084 285.642 -258.563 243.82 -223.059 c 5
 238.005 -217.771 235.193 -212.413 235.006 -204.556 c 0
 231.33 -50.5781 236.662 -40.7705 233.498 6.69238 c 1
 165.251 11.8105 181.868 -30.8223 32.2139 5.67871 c 1
 -15.9111 16.8379 0.430664 74.7354 4.93164 90.7598 c 1
 5.56934 93.0215 6.4834 95.1133 7.71582 97.1143 c 0
 189.179 391.625 118.059 307.324 303.731 531.929 c 1
 306.487 535.213 309.628 537.549 313.6 539.165 c 0
 336.915 548.655 368.093 547.119 387.589 522.533 c 1
 390.659 518.572 392.376 514.475 392.876 509.487 c 0
 410.919 329.594 399.44 331.86 385.716 137.427 c 1
 422.547 135.194 398.285 165.467 569.387 155.962 c 1
 578.315 155.051 584.077 152.088 588.992 144.577 c 0
 626.425 87.375 578.536 30.9775 536.867 3.19824 c 1
 466.849 -43.4814 426.588 2.88281 381 0.350586 c 1
 381 -110.466 388.454 -79.5146 381.962 -196.387 c 1
 381.534 -202.275 379.724 -206.959 375.854 -211.418 c 4
EndSplineSet
Fore
SplineSet
135 130 m 2
 154 131 168 132 177 132 c 0
 177 133 189 134 235 137 c 1
 235 243 l 1
 234 244 l 1
 223 244 133 144 133 131 c 0
 133 130 133 130 134 130 c 2
 135 130 l 2
603 103 m 0
 603 42 530 -18 475 -18 c 0
 441 -18 414 0 385 0 c 2
 381 0 l 1
 381 -40 385 -98 385 -144 c 0
 385 -177 383 -203 376 -211 c 0
 356 -234 330 -247 304 -247 c 0
 273 -247 235 -225 235 -205 c 0
 234 -162 234 -131 234 -106 c 2
 234 -28 l 2
 234 -17 234 -6 233 7 c 1
 222 7 l 2
 185 7 176 -9 130 -9 c 0
 108 -9 78 -5 32 6 c 0
 6 12 -1 33 -1 54 c 0
 -1 74 6 93 8 97 c 0
 189 392 118 307 304 532 c 0
 311 541 324 545 338 545 c 0
 363 545 391 531 393 509 c 0
 400 444 402 403 402 367 c 0
 402 305 394 261 386 137 c 1
 387 137 388 137 389 137 c 0
 417 137 408 158 511 158 c 0
 528 158 547 157 569 156 c 1
 587 154 603 132 603 103 c 0
EndSplineSet
Validated: 1
EndChar

StartChar: five
Encoding: 53 53 21
Width: 580
Flags: HW
LayerCount: 2
Fore
SplineSet
300 366 m 1
 294 378 294 400 289 416 c 1
 264 306 259 294 238 217 c 1
 299 227 338 231 365 231 c 0
 394 231 410 227 426 222 c 0
 458 212 494 201 514 161 c 0
 529 129 536 98 536 68 c 0
 536 20 519 -25 495 -71 c 0
 447 -164 384 -208 290 -245 c 0
 264 -256 240 -260 215 -260 c 0
 196 -260 176 -257 155 -252 c 0
 107 -240 60 -226 31 -174 c 0
 23 -160 19 -145 19 -131 c 0
 19 -83 63 -42 113 -42 c 0
 118 -42 122 -42 127 -43 c 0
 183 -53 185 -107 195 -110 c 0
 208 -113 221 -115 233 -115 c 0
 268 -115 297 -101 319 -71 c 0
 344 -38 357 -3 357 31 c 0
 357 61 347 89 326 114 c 0
 319 122 311 125 299 125 c 0
 288 125 274 122 255 118 c 0
 218 109 204 46 131 39 c 0
 128 39 126 39 123 39 c 0
 90 39 74 60 74 76 c 0
 74 78 75 79 75 81 c 0
 150 420 130 372 247 571 c 0
 251 577 255 580 262 582 c 0
 268 584 274 585 280 585 c 0
 328 585 345 521 361 516 c 0
 380 509 383 510 386 512 c 0
 389 514 390 518 390 523 c 0
 390 530 388 540 388 551 c 0
 388 570 392 591 416 608 c 0
 426 615 436 617 445 617 c 0
 456 617 467 614 474 611 c 0
 550 579 572 531 572 485 c 0
 572 425 534 369 526 354 c 0
 523 348 511 342 503 343 c 0
 454 347 428 348 412 348 c 0
 391 348 387 346 373 346 c 0
 363 346 348 347 316 351 c 0
 310 352 304 362 300 366 c 1
EndSplineSet
Validated: 1
EndChar

StartChar: six
Encoding: 54 54 22
Width: 580
Flags: HW
LayerCount: 2
Fore
SplineSet
357 360 m 0
 338 372 319 377 299 377 c 0
 278 377 256 371 231 358 c 0
 197 340 185 319 178 278 c 0
 175 260 173 245 173 230 c 0
 173 193 185 162 214 128 c 0
 230 110 244 106 276 103 c 0
 286 102 295 101 303 101 c 0
 323 101 338 106 353 119 c 0
 389 152 399 185 399 233 c 0
 399 244 399 255 398 268 c 0
 395 315 389 341 357 360 c 0
228 448 m 1
 273 483 265 485 315 485 c 0
 320 485 326 485 333 485 c 0
 340 485 349 485 358 485 c 1
 424 477 476 458 516 402 c 0
 552 351 572 300 572 246 c 0
 572 211 564 175 546 137 c 0
 514 70 437 4 364 -11 c 0
 334 -18 306 -22 278 -22 c 0
 247 -22 216 -17 182 -2 c 0
 111 28 53 66 33 146 c 0
 18 206 8 258 8 313 c 0
 8 353 13 395 27 442 c 0
 53 533 90 590 163 652 c 0
 243 719 312 765 425 766 c 0
 454 766 485 765 512 727 c 1
 515 720 517 714 517 710 c 0
 517 704 514 699 507 693 c 0
 429 629 405 642 362 605 c 0
 295 548 265 530 228 448 c 1
EndSplineSet
Validated: 1
EndChar

StartChar: seven
Encoding: 55 55 23
Width: 580
Flags: HW
HStem: 598 114<224.645 254.645>
LayerCount: 2
Fore
SplineSet
234 716 m 1
 532 716 l 1
 550 709 559 707 559 698 c 0
 559 693 558 688 554 680 c 0
 390 313 395 373 247 6 c 0
 245 2 244 -1 241 -3 c 0
 234 -10 217 -50 176 -55 c 0
 115 -61 155 -64 90 -64 c 1
 72 -59 63 -56 63 -45 c 0
 63 -41 64 -37 66 -31 c 0
 150 240 159 182 208 310 c 0
 253 425 291 444 291 531 c 1
 288 539 272 552 244 552 c 0
 191 552 205 538 114 473 c 0
 110 470 102 468 93 468 c 0
 69 468 33 480 22 515 c 0
 21 519 20 524 21 528 c 0
 49 663 56 676 124 742 c 0
 126 743 127 744 129 746 c 0
 139 753 149 756 160 756 c 0
 186 756 214 739 234 716 c 1
EndSplineSet
Validated: 1
EndChar

StartChar: eight
Encoding: 56 56 24
Width: 580
Flags: HW
LayerCount: 2
Fore
SplineSet
327 120 m 0
 342 129 345 138 353 165 c 0
 358 181 361 193 361 204 c 0
 361 213 358 222 353 233 c 0
 344 249 336 254 313 262 c 0
 295 268 281 272 269 272 c 0
 258 272 248 270 236 264 c 0
 219 255 214 247 207 225 c 0
 203 212 201 202 201 193 c 0
 201 180 205 168 212 152 c 0
 221 132 227 125 246 117 c 0
 262 111 274 108 286 108 c 0
 300 108 312 112 327 120 c 0
333 472 m 0
 343 477 357 506 357 535 c 0
 357 556 349 578 329 591 c 0
 309 604 293 611 276 611 c 0
 267 611 257 609 246 606 c 0
 225 600 216 591 206 566 c 0
 201 555 199 547 199 538 c 0
 199 529 201 520 206 507 c 0
 215 484 221 475 241 467 c 0
 257 460 270 457 284 457 c 0
 299 457 314 462 333 472 c 0
408 362 m 1
 429 359 481 353 512 294 c 0
 527 265 532 239 532 212 c 0
 532 179 524 147 514 113 c 0
 503 74 492 35 448 8 c 0
 405 -17 364 -27 323 -27 c 0
 284 -27 246 -18 205 -4 c 0
 158 13 124 39 104 86 c 0
 92 114 87 139 87 164 c 0
 87 199 97 232 110 267 c 0
 133 330 164 341 183 347 c 1
 164 361 124 364 92 447 c 0
 78 483 69 518 69 553 c 0
 69 591 79 628 101 667 c 0
 128 713 170 727 213 738 c 0
 243 746 271 750 298 750 c 0
 336 750 372 742 413 725 c 0
 493 692 531 631 531 561 c 0
 531 540 527 519 521 497 c 0
 504 440 445 412 408 362 c 1
EndSplineSet
Validated: 1
EndChar

StartChar: nine
Encoding: 57 57 25
Width: 580
Flags: HW
LayerCount: 2
Fore
SplineSet
383 160 m 0
 394 185 399 207 399 228 c 0
 399 258 389 287 371 323 c 0
 362 343 354 349 333 358 c 0
 314 365 298 369 284 369 c 0
 269 369 255 365 238 358 c 0
 220 350 214 342 205 319 c 0
 192 286 185 260 185 234 c 0
 185 210 191 187 203 160 c 0
 213 138 222 130 246 122 c 0
 261 116 274 114 287 114 c 0
 304 114 320 118 342 127 c 0
 366 136 375 142 383 160 c 0
342 34 m 16
 342 34 322 22 307 15 c 1
 287 12 268 7 246 7 c 0
 235 7 223 8 209 12 c 0
 160 25 123 44 93 86 c 0
 57 138 38 187 38 241 c 0
 38 264 42 287 48 312 c 0
 66 387 104 441 179 474 c 0
 219 492 258 501 296 501 c 0
 342 501 387 488 432 463 c 0
 491 430 508 381 524 328 c 0
 536 285 541 248 541 212 c 0
 541 161 531 113 518 54 c 0
 500 -27 480 -81 426 -149 c 0
 375 -212 330 -249 252 -281 c 0
 208 -300 186 -301 128 -301 c 0
 105 -300 83 -269 83 -244 c 0
 83 -236 86 -228 91 -222 c 0
 168 -136 204 -144 254 -101 c 1
 337 -9 348 18 348 28 c 0
 348 32 342 34 342 34 c 16
EndSplineSet
Validated: 1
EndChar

StartChar: less
Encoding: 60 60 28
Width: 396
VWidth: 1080
Flags: HW
LayerCount: 2
Fore
SplineSet
253 461 m 0
 269 464 285 466 301 466 c 0
 328 466 354 460 373 441 c 1
 384 432 388 421 388 410 c 0
 388 392 376 374 368 366 c 1
 358 354 344 351 333 351 c 0
 324 351 317 353 317 355 c 0
 317 355 317 356 318 356 c 1
 317 356 l 0
 250 312 203 286 175 263 c 1
 186 246 235 231 342 148 c 1
 344 146 346 144 348 141 c 0
 349 139 365 122 365 101 c 0
 365 91 361 80 349 70 c 1
 346 67 343 66 339 65 c 0
 289 50 269 53 228 50 c 0
 226 50 225 50 223 50 c 0
 170 50 143 101 106 143 c 0
 83 168 10 215 10 257 c 0
 10 269 17 282 33 293 c 0
 48 303 92 351 136 385 c 0
 167 409 184 448 253 461 c 0
EndSplineSet
Validated: 1
EndChar

StartChar: question
Encoding: 63 63 31
Width: 384
Flags: HW
LayerCount: 2
Fore
SplineSet
194 205 m 0
 183 197 171 193 159 193 c 0
 134 193 111 210 97 226 c 1
 94 229 93 232 92 236 c 0
 74 303 68 341 68 387 c 0
 68 412 70 439 73 474 c 1
 75 485 81 487 90 495 c 0
 106 507 127 510 149 510 c 0
 168 510 188 508 207 508 c 0
 218 508 229 509 239 511 c 1
 241 516 243 520 237 530 c 0
 224 557 194 549 139 580 c 0
 127 587 74 588 56 635 c 1
 56 636 56 637 56 638 c 0
 53 649 52 660 52 671 c 0
 52 701 64 725 95 741 c 1
 98 743 101 743 105 744 c 0
 115 745 125 745 134 745 c 0
 181 745 210 732 255 706 c 1
 258 704 261 702 263 699 c 0
 298 646 324 615 334 551 c 0
 337 530 343 508 343 485 c 0
 343 457 335 429 305 401 c 0
 256 355 216 371 204 354 c 1
 204 350 204 346 204 342 c 0
 204 321 200 300 200 272 c 0
 200 259 201 245 204 228 c 1
 205 218 202 211 194 205 c 0
149 12 m 0
 147 12 146 12 144 12 c 0
 122 12 101 18 83 33 c 0
 64 51 41 74 41 105 c 0
 41 111 42 117 44 124 c 0
 55 161 89 174 120 178 c 0
 125 179 130 179 135 179 c 0
 162 179 187 170 205 147 c 0
 219 129 227 109 227 89 c 0
 227 75 223 61 215 47 c 0
 200 19 172 14 149 12 c 0
EndSplineSet
Validated: 1
EndChar

StartChar: at
Encoding: 64 64 32
Width: 537
VWidth: 1000
Flags: HW
LayerCount: 2
Fore
SplineSet
318 265 m 0
 331 281 336 296 336 308 c 0
 336 321 331 330 324 334 c 0
 323 334 322 334 321 334 c 0
 304 334 244 303 244 281 c 0
 244 280 244 280 244 280 c 0
 244 257 246 243 262 236 c 0
 262 236 307 252 318 265 c 0
417 240 m 0
 417 238 418 237 419 237 c 0
 423 237 433 249 447 286 c 0
 456 310 460 331 460 349 c 0
 460 386 447 414 444 443 c 0
 441 463 387 555 367 568 c 0
 361 572 344 575 322 575 c 0
 278 575 213 563 181 525 c 0
 163 503 103 375 103 274 c 0
 103 227 116 186 153 164 c 0
 192 140 242 134 290 134 c 0
 339 134 385 141 414 141 c 0
 434 141 446 138 446 128 c 0
 446 96 335 51 241 51 c 0
 169 51 119 51 69 114 c 0
 25 167 13 214 13 264 c 0
 13 298 19 333 24 373 c 0
 36 472 49 551 133 612 c 0
 185 650 264 662 328 662 c 0
 378 662 419 655 429 648 c 0
 477 618 524 498 524 376 c 0
 524 303 508 230 465 175 c 0
 456 164 446 162 435 162 c 0
 428 162 420 163 414 163 c 0
 414 163 413 163 412 163 c 0
 408 163 405 163 402 163 c 0
 352 163 355 178 342 191 c 0
 332 201 333 204 332 204 c 0
 331 204 l 0
 320 204 316 192 296 180 c 0
 286 174 280 165 263 162 c 0
 251 160 240 158 229 158 c 0
 196 158 169 173 158 219 c 0
 155 231 154 243 154 253 c 0
 154 333 229 368 270 384 c 0
 306 398 319 378 327 412 c 0
 328 417 329 423 329 430 c 0
 329 451 323 477 315 482 c 0
 313 483 310 484 306 484 c 0
 294 484 273 479 266 469 c 0
 257 457 260 440 258 425 c 0
 255 399 233 385 211 385 c 0
 187 385 163 401 163 433 c 0
 163 437 163 441 164 445 c 0
 169 471 176 495 199 515 c 0
 231 542 262 545 300 546 c 0
 305 546 309 546 314 546 c 0
 331 546 348 544 365 532 c 0
 404 505 409 461 409 404 c 0
 409 388 408 370 408 352 c 0
 408 317 410 280 417 240 c 0
EndSplineSet
Validated: 1
EndChar

StartChar: uni007F
Encoding: 127 127 33
Width: 1597
VWidth: 1000
Flags: HW
LayerCount: 2
Fore
SplineSet
1451 530 m 0xc149e0
 1451 511 1431 493 1417 493 c 0
 1413 493 1409 494 1406 498 c 0
 1392 514 1380 515 1372 532 c 16
 1358 560 1355 570 1292 570 c 0
 1255 570 1221 562 1216 532 c 0
 1201 455 1191 372 1191 252 c 0
 1191 170 1193 170 1203 170 c 0
 1213 170 1227 176 1238 176 c 0
 1239 176 1240 176 1241 176 c 0
 1253 176 1261 180 1272 180 c 0
 1278 180 1296 177 1296 172 c 0
 1296 165 1268 155 1256 149 c 8xa149e0
 1237 139 1221 146 1202 135 c 24
 1178 121 1160 85 1151 85 c 0
 1144 85 1146 94 1118 114 c 2
 1083 138 l 10
 1055 158 1035 164 1008 185 c 16
 986 202 953 204 953 231 c 0
 953 231 953 295 956 336 c 24
 960 390 955 405 970 474 c 8
 980 521 1011 537 1045 571 c 24
 1078 604 1111 606 1141 642 c 24
 1161 666 1148 717 1168 717 c 0
 1184 717 1179 697 1184 684 c 24
 1190 667 1182 652 1195 640 c 16
 1210 626 1225 624 1242 624 c 0
 1251 624 1260 625 1269 625 c 0
 1287 625 1308 621 1323 621 c 0
 1362 621 1358 634 1381 642 c 16
 1395 647 1406 658 1417 658 c 0
 1429 658 1436 651 1436 640 c 0
 1436 636 1435 632 1434 628 c 8
 1430 613 1407 620 1407 598 c 0
 1407 569 1451 556 1451 530 c 0xc149e0
447 10 m 0
 431 10 390 9 365 9 c 0
 324 9 287 12 238 24 c 8
 176 39 132 44 88 90 c 24
 45 135 42 178 31 240 c 16
 26 269 24 292 24 315 c 0
 24 413 50 504 120 583 c 24
 174 644 213 671 282 714 c 24
 385 779 461 793 506 793 c 0
 513 793 520 793 527 793 c 0x8129e0
 577 793 614 791 652 765 c 8
 703 730 710 686 736 630 c 24
 759 580 781 474 783 474 c 0
 785 474 864 620 938 676 c 8
 1022 740 1145 784 1216 790 c 16
 1244 792 1268 794 1290 794 c 0x8119e0
 1443 794 1502 713 1506 708 c 24
 1541 667 1554 638 1566 582 c 0
 1573 548 1576 520 1576 494 c 0
 1576 430 1558 379 1540 294 c 8
 1522 213 1483 175 1430 112 c 24
 1373 46 1338 23 1196 16 c 16
 1164 14 1135 13 1109 13 c 0
 924 13 844 98 818 123 c 16
 791 149 774 292 759 292 c 0
 754 292 736 241 728 231 c 2
 634 108 l 18
 601 66 557 10 473 10 c 0
 465 10 457 10 447 10 c 0
924 582 m 24
 888 538 811 462 811 359 c 0
 811 319 826 292 848 254 c 8
 885 190 917 156 980 118 c 24
 1036 84 1077 82 1142 70 c 16
 1169 65 1188 61 1211 61 c 0
 1333 61 1389 107 1424 168 c 24
 1463 235 1507 315 1507 511 c 0
 1507 567 1499 615 1466 672 c 8
 1446 707 1423 722 1386 736 c 16
 1350 749 1319 755 1288 755 c 0x8119e0
 1258 755 1228 750 1192 743 c 8
 1128 731 1094 712 1038 678 c 24
 988 648 961 627 924 582 c 24
222 93 m 24
 276 71 307 63 391 63 c 0
 552 63 622 151 660 201 c 24
 684 233 722 282 722 353 c 0
 722 392 709 421 698 464 c 8
 682 529 679 570 642 626 c 24
 615 668 594 694 548 712 c 16
 524 721 503 725 482 725 c 0x8129e0
 461 725 439 721 414 714 c 8
 328 691 286 654 218 596 c 24
 156 543 75 473 75 353 c 0
 75 218 103 181 126 150 c 24
 152 115 182 109 222 93 c 24
317 568 m 0
 317 604 324 607 376 607 c 0
 393 607 402 606 424 606 c 0
 450 605 465 602 489 602 c 0
 556 602 560 615 592 633 c 8
 598 637 599 624 604 618 c 25
 608 611 616 607 614 598 c 24
 612 590 600 594 596 587 c 16
 594 583 593 580 593 577 c 0
 593 561 627 558 630 542 c 8
 632 532 623 527 616 520 c 24
 613 517 600 501 576 501 c 0
 547 501 554 517 493 517 c 0
 450 517 408 510 387 502 c 0
 382 500 380 496 380 492 c 0
 380 483 388 471 389 459 c 8
 392 404 393 395 412 395 c 0x858de0
 430 395 456 405 478 405 c 0x890de0
 485 405 485 404 496 404 c 0
 514 404 532 408 548 408 c 0
 581 408 583 386 583 383 c 0
 583 372 564 370 554 360 c 8
 542 348 540 323 513 323 c 0x910de0
 506 323 439 341 432 341 c 0
 425 341 405 337 405 303 c 0
 405 297 405 291 405 285 c 0
 405 267 400 248 400 224 c 0
 400 195 409 181 409 176 c 0
 409 166 393 162 384 154 c 0
 372 144 366 132 353 132 c 0
 352 132 352 132 351 132 c 8
 333 132 328 149 314 160 c 24
 294 175 285 196 260 196 c 0
 242 196 208 174 194 159 c 24
 188 151 192 138 182 136 c 24
 173 135 173 147 167 152 c 24
 161 156 149 154 151 161 c 16
 159 193 173 208 199 225 c 24
 255 260 325 225 325 271 c 0
 325 279 324 287 324 296 c 0
 324 297 324 298 324 299 c 0
 324 306 324 313 324 319 c 0x890be0
 324 347 312 361 296 366 c 16
 293 367 290 367 286 367 c 0
 265 367 235 354 230 354 c 0
 226 354 222 356 219 360 c 8
 213 369 225 377 231 387 c 24
 253 422 257 428 286 431 c 24
 293 432 299 426 305 430 c 16
 316 439 319 450 319 461 c 0
 319 475 315 489 315 505 c 0x830de0
 315 520 318 520 318 543 c 0
 318 551 317 560 317 568 c 0
1142 521 m 0
 1142 562 1133 573 1113 573 c 0
 1101 573 1094 564 1083 558 c 8
 1067 550 1047 551 1044 533 c 16
 1027 429 1030 329 1021 261 c 0
 1021 260 1021 259 1021 258 c 0
 1021 235 1050 230 1072 218 c 0
 1086 211 1106 194 1118 194 c 0xc109e0
 1136 194 1131 266 1135 355 c 24
 1138 411 1140 442 1141 498 c 16
 1141 510 1142 513 1142 521 c 0
EndSplineSet
Validated: 1
EndChar

StartChar: cent
Encoding: 162 162 35
Width: 337
Flags: HW
VStem: 149.344 81.107<557 629.31>
LayerCount: 2
Fore
SplineSet
250 577 m 1
 301 557 322 519 322 487 c 0
 322 459 306 436 278 434 c 0
 265 433 255 436 248 442 c 1
 242 350 l 1
 241 330 l 1
 249 343 262 349 275 349 c 0
 298 349 322 331 322 305 c 0
 322 304 322 303 322 302 c 0
 319 253 315 222 247 200 c 0
 244 199 180 197 227 195 c 1
 221 137 l 2
 219 126 195 91 167 91 c 0
 158 91 149 94 140 103 c 0
 136 108 133 112 133 119 c 2
 126 200 l 1
 102 204 15 262 15 373 c 0
 15 394 18 416 25 440 c 0
 49 524 80 542 118 565 c 1
 118 574 118 596 120 641 c 0
 121 659 151 698 188 698 c 0
 206 698 226 689 244 665 c 0
 250 657 250 650 250 577 c 1
140 460 m 0
 138 467 132 472 128 479 c 1
 112 468 l 1
 101 438 95 420 95 394 c 0
 95 386 95 376 97 364 c 0
 102 334 100 344 126 320 c 1
 138 310 l 1
 144 318 148 324 147 332 c 1
 147 358 l 2
 145 434 148 439 140 460 c 0
EndSplineSet
Validated: 1
EndChar

StartChar: sterling
Encoding: 163 163 36
Width: 708
VWidth: 1080
Flags: HW
HStem: 324.417 135.333<327 371>
VStem: 201.119 124.881<447 586> 201.119 126.789<447.436 459.75>
LayerCount: 2
Fore
SplineSet
171 296 m 1
 171 296 169 296 164 296 c 0
 146 296 94 300 48 342 c 0
 35 354 29 369 29 384 c 0
 29 407 42 430 59 443 c 0
 94 470 119 476 138 476 c 0
 152 476 163 472 173 472 c 0
 174 472 175 472 176 472 c 1
 176 472 183 492 183 521 c 0
 183 536 181 552 176 570 c 0
 172 583 125 604 125 652 c 0
 125 654 125 657 125 660 c 0
 131 713 171 742 216 753 c 0
 244 760 271 763 298 763 c 0
 386 763 463 726 527 654 c 0
 534 645 562 592 562 557 c 0
 562 539 555 526 535 526 c 0
 530 526 525 527 519 528 c 0
 393 557 405 606 374 606 c 0
 371 606 368 606 364 605 c 0
 360 604 351 595 351 583 c 0
 351 572 351 563 351 554 c 0
 351 503 353 489 353 486 c 1
 361 485 371 485 373 484 c 0
 405 474 453 490 489 448 c 0
 502 433 515 410 515 385 c 0
 515 370 510 355 497 342 c 0
 458 305 413 298 384 298 c 0
 367 298 356 300 352 300 c 1
 352 254 302 236 294 114 c 1
 345 101 379 95 409 95 c 0
 448 95 481 106 534 129 c 1
 534 146 520 171 520 215 c 0
 520 227 521 241 524 257 c 0
 531 292 558 300 586 300 c 0
 609 300 633 294 644 294 c 0
 645 294 646 294 647 294 c 1
 665 293 672 291 676 274 c 0
 690 211 695 179 695 143 c 0
 695 112 691 79 685 21 c 1
 685 20 686 20 686 19 c 0
 686 11 668 -2 658 -2 c 0
 656 -2 654 -1 653 0 c 0
 652 1 614 11 599 13 c 1
 454 5 396 -4 308 -4 c 0
 247 -4 171 0 39 13 c 0
 32 14 27 16 23 21 c 0
 9 36 3 49 3 62 c 0
 3 81 14 99 27 122 c 0
 33 130 38 133 48 134 c 0
 59 135 68 135 76 135 c 0
 99 135 104 133 106 133 c 0
 108 133 108 134 115 140 c 0
 165 182 172 234 172 266 c 0
 172 279 171 289 171 294 c 0
 171 295 171 296 171 296 c 1
EndSplineSet
Validated: 1
EndChar

StartChar: currency
Encoding: 164 164 37
Width: 338
VWidth: 1000
Flags: HW
LayerCount: 2
Fore
SplineSet
232 510 m 0
 249 510 258 511 266 511 c 0
 276 511 284 509 306 502 c 0
 318 497 325 485 325 471 c 0
 325 461 321 450 311 441 c 0
 298 430 289 426 285 426 c 0
 282 426 281 427 281 429 c 1
 279 426 l 1
 280 419 295 411 295 376 c 0
 295 360 292 339 283 310 c 0
 278 294 278 297 278 293 c 1
 282 289 l 1
 283 289 284 289 285 289 c 0
 301 289 325 270 325 246 c 0
 325 239 323 232 318 225 c 0
 306 210 273 207 251 207 c 0
 240 207 232 208 232 208 c 0
 218 208 205 220 201 235 c 0
 168 234 l 0
 168 234 167 234 166 234 c 0
 160 221 147 217 148 219 c 1
 143 212 137 208 128 208 c 0
 107 208 96 206 80 206 c 0
 72 206 62 206 49 208 c 0
 42 210 40 217 33 218 c 0
 31 218 13 226 13 249 c 0
 13 251 13 252 13 253 c 1
 13 254 13 254 13 255 c 0
 13 279 57 299 75 300 c 1
 95 269 75 306 73 315 c 0
 70 328 68 340 68 352 c 0
 68 365 70 379 74 392 c 0
 78 407 94 439 79 413 c 1
 73 416 14 441 13 466 c 0
 13 467 13 468 13 469 c 0
 13 493 33 501 33 501 c 1
 41 510 57 512 74 512 c 0
 92 512 112 510 128 510 c 0
 137 510 139 497 148 500 c 0
 152 501 166 496 169 481 c 1
 192 484 l 1
 201 484 l 1
 205 500 219 510 232 510 c 0
178 280 m 0
 181 280 184 279 187 279 c 0
 229 279 242 320 242 355 c 0
 242 373 239 390 234 398 c 0
 219 427 201 438 183 438 c 0
 172 438 162 434 152 428 c 0
 138 419 137 399 126 384 c 0
 122 377 120 369 120 362 c 0
 120 354 122 346 124 339 c 0
 131 316 134 286 178 280 c 0
EndSplineSet
Validated: 1
EndChar

StartChar: yen
Encoding: 165 165 38
Width: 788
VWidth: 1080
Flags: HW
HStem: 194.869 42.6237<522.512 588.512> 255.623 42.7596<524.012 590.012>
LayerCount: 2
Fore
SplineSet
207 13 m 0
 190 15 177 34 177 57 c 0
 177 74 183 93 200 108 c 0
 214 121 232 125 247 125 c 0
 268 125 285 117 287 112 c 1
 288 123 289 133 290 142 c 1
 243 145 198 151 163 170 c 0
 150 177 143 185 143 193 c 0
 143 216 198 241 295 242 c 1
 295 254 295 268 295 283 c 1
 247 285 200 292 163 311 c 0
 149 318 143 326 143 334 c 0
 143 355 192 377 256 381 c 1
 200 478 166 499 97 614 c 1
 95 610 85 606 72 606 c 0
 60 606 46 609 35 619 c 0
 15 637 7 661 7 682 c 0
 7 712 23 738 42 740 c 0
 119 746 148 748 165 748 c 0
 183 748 188 746 222 746 c 0
 243 746 275 747 327 749 c 0
 328 749 l 0
 348 749 374 719 374 687 c 0
 374 678 372 669 367 660 c 0
 359 648 341 639 323 639 c 0
 310 639 297 643 287 653 c 1
 358 463 369 491 395 407 c 1
 526 619 l 1
 487 620 455 651 455 686 c 0
 455 706 466 728 494 745 c 0
 497 747 501 749 505 749 c 0
 584 754 594 757 609 757 c 0
 624 757 642 754 739 749 c 0
 758 748 777 722 777 693 c 0
 777 681 774 669 766 658 c 0
 751 636 730 631 710 631 c 0
 687 631 666 639 657 639 c 0
 656 639 655 638 654 638 c 1
 597 536 569 470 516 388 c 1
 551 386 596 384 629 368 c 0
 647 359 659 347 659 336 c 0
 659 327 653 319 639 311 c 0
 591 285 518 285 457 285 c 1
 457 281 457 277 457 274 c 0
 457 264 458 256 459 248 c 1
 465 248 472 248 481 248 c 0
 523 248 594 245 629 227 c 0
 647 218 659 206 659 195 c 0
 659 186 653 178 639 170 c 0
 594 145 526 144 467 144 c 1
 464 130 461 114 455 95 c 0
 455 94 454 93 454 93 c 0
 454 91 455 91 456 91 c 0
 461 91 484 110 504 110 c 0
 511 110 518 107 524 102 c 0
 539 88 546 71 546 56 c 0
 546 35 535 18 518 16 c 0
 428 7 395 3 358 3 c 0
 325 3 290 6 207 13 c 0
EndSplineSet
Validated: 1
EndChar

StartChar: brokenbar
Encoding: 166 166 39
Width: 274
VWidth: 1080
Flags: HW
LayerCount: 2
Fore
SplineSet
213 456 m 1
 210 433 206 433 145 422 c 0
 128 419 111 418 97 418 c 0
 91 418 85 419 80 419 c 1
 61 421 54 424 53 443 c 0
 51 482 50 518 50 556 c 0
 50 601 51 648 51 704 c 1
 48 709 47 714 47 719 c 0
 47 743 83 757 115 757 c 0
 128 757 140 754 149 750 c 0
 209 720 213 603 213 500 c 0
 213 485 213 470 213 456 c 1
56 319 m 5
 63 352 56 342 186 346 c 5
 205 343 212 340 212 321 c 4
 212 285 211 252 211 220 c 4
 211 162 213 110 225 59 c 4
 226 55 227 50 227 47 c 4
 227 17 196 5 160 5 c 4
 113 5 57 27 57 57 c 4
 57 61 58 64 59 68 c 5
 59 88 59 106 59 123 c 4
 59 197 58 246 56 319 c 5
EndSplineSet
Validated: 1
EndChar

StartChar: section
Encoding: 167 167 40
Width: 643
Flags: HW
LayerCount: 2
Fore
SplineSet
215 407 m 1
 234 358 247 327 280 256 c 0
 293 229 336 235 384 173 c 0
 402 149 405 134 405 126 c 0
 405 123 404 121 404 121 c 0
 434 116 446 83 460 58 c 0
 460 57 461 57 461 57 c 0
 461 57 461 57 461 58 c 0
 461 67 433 159 384 211 c 1
 304 265 269 356 215 407 c 1
329 598 m 0
 327 580 314 567 314 541 c 0
 314 534 315 527 317 518 c 0
 329 461 383 453 430 383 c 0
 478 312 546 268 551 163 c 0
 551 159 551 155 551 150 c 0
 551 58 499 18 484 -2 c 1
 492 -17 514 -50 514 -96 c 0
 514 -119 509 -144 495 -173 c 0
 467 -230 416 -255 357 -259 c 0
 350 -259 344 -260 337 -260 c 0
 287 -260 234 -245 207 -191 c 0
 202 -182 200 -172 200 -163 c 0
 200 -143 210 -124 224 -111 c 0
 243 -93 265 -87 285 -87 c 0
 299 -87 313 -90 325 -93 c 0
 365 -102 364 -129 372 -139 c 0
 373 -140 l 0
 373 -139 l 0
 373 -137 369 -126 366 -102 c 0
 360 -46 346 -19 316 32 c 0
 271 108 266 140 184 188 c 0
 127 222 91 273 91 338 c 0
 91 346 92 355 93 363 c 0
 104 440 183 444 197 478 c 0
 200 486 202 494 202 502 c 0
 202 531 187 563 187 600 c 0
 187 621 192 644 208 668 c 0
 239 712 283 734 332 734 c 0
 337 734 343 733 348 733 c 0
 433 726 471 681 471 639 c 0
 471 601 440 565 385 560 c 0
 384 560 383 560 382 560 c 0
 350 560 334 600 330 600 c 0
 329 600 329 599 329 598 c 0
EndSplineSet
Validated: 1
EndChar

StartChar: logicalnot
Encoding: 172 172 45
Width: 376
Flags: HW
LayerCount: 2
Fore
SplineSet
25 211 m 1
 16 224 12 238 12 252 c 0
 12 272 20 291 33 305 c 0
 60 337 93 339 123 339 c 0
 128 339 133 339 137 339 c 0
 147 339 156 339 164 341 c 0
 164 341 199 351 239 351 c 0
 274 351 314 343 336 313 c 0
 358 282 364 253 364 224 c 0
 364 187 353 150 351 112 c 0
 350 78 311 60 274 60 c 0
 249 60 226 68 214 85 c 0
 204 100 201 115 201 129 c 0
 201 145 204 158 205 165 c 1
 172 170 71 153 25 211 c 1
EndSplineSet
Validated: 1
EndChar

StartChar: acute
Encoding: 180 180 53
Width: 288
VWidth: 1080
Flags: HW
LayerCount: 2
Fore
SplineSet
256 661 m 0
 230 639 192 467 168 431 c 0
 159 418 127 410 95 410 c 0
 57 410 19 421 19 448 c 0
 19 451 19 454 20 457 c 0
 28 488 38 519 50 553 c 0
 70 610 71 644 117 712 c 0
 119 716 122 718 125 720 c 0
 141 729 157 733 172 733 c 0
 202 733 230 718 255 705 c 1
 266 692 273 686 273 680 c 0
 273 676 268 671 256 661 c 0
EndSplineSet
Validated: 1
EndChar

StartChar: mu
Encoding: 181 181 54
Width: 502
VWidth: 1080
Flags: HW
VStem: 44.3068 93<142 375> 288.307 86<127 394>
LayerCount: 2
Fore
SplineSet
59 95 m 0
 59 168 59 180 59 180 c 0
 59 180 59 177 58 177 c 0
 58 177 58 200 58 369 c 1
 55 366 51 364 47 364 c 0
 38 364 26 373 15 392 c 0
 12 399 10 407 10 416 c 0
 10 424 12 432 16 440 c 0
 41 482 82 488 114 496 c 0
 120 497 126 498 132 498 c 0
 159 498 188 484 200 460 c 0
 203 455 203 419 203 370 c 0
 203 305 202 217 202 149 c 1
 207 140 230 121 255 121 c 0
 272 121 291 131 304 164 c 1
 304 289 303 102 303 384 c 1
 301 378 292 375 282 375 c 0
 266 375 246 382 234 402 c 0
 228 411 226 421 226 430 c 0
 226 446 233 461 242 471 c 0
 266 499 297 497 315 499 c 0
 328 500 341 502 353 502 c 0
 374 502 395 498 419 489 c 0
 425 487 457 480 462 448 c 0
 462 446 462 444 462 441 c 0
 462 421 451 401 444 401 c 0
 442 401 440 402 439 406 c 1
 439 135 l 1
 463 104 444 126 482 96 c 1
 489 88 493 82 493 76 c 0
 493 72 491 67 486 61 c 0
 449 10 430 -10 360 -33 c 0
 357 -34 354 -34 351 -34 c 0
 298 -32 299 5 293 12 c 1
 290 4 301 8 284 4 c 0
 236 -8 216 1 200 -17 c 0
 187 -31 183 -50 183 -70 c 0
 183 -102 192 -138 192 -174 c 0
 192 -205 185 -236 159 -262 c 0
 145 -276 134 -282 123 -282 c 0
 67 -282 57 -102 57 7 c 0
 57 55 58 95 59 95 c 0
EndSplineSet
Validated: 1
EndChar

StartChar: paragraph
Encoding: 182 182 55
Width: 733
VWidth: 1080
Flags: HW
VStem: 347.458 118<108.214 335.264> 516.208 77.896<247.864 641.164>
LayerCount: 2
Fore
SplineSet
348 646 m 1
 337 649 330 651 323 651 c 0
 314 651 305 648 288 642 c 0
 255 631 241 623 228 598 c 0
 220 582 216 570 216 556 c 0
 216 543 220 530 228 513 c 0
 237 496 246 491 273 479 c 0
 309 463 333 452 343 452 c 0
 345 452 347 452 348 453 c 1
 352 488 354 514 354 542 c 0
 354 570 352 601 348 646 c 1
625 157 m 1
 633 151 641 151 648 151 c 0
 656 151 664 153 669 153 c 0
 670 153 670 153 671 153 c 1
 674 152 676 151 679 149 c 0
 701 131 717 103 717 74 c 0
 717 57 712 41 699 26 c 1
 694 21 689 19 683 18 c 0
 650 14 574 13 544 12 c 1
 525 14 533 18 528 35 c 0
 524 116 l 0
 524 117 l 0
 525 150 525 180 525 216 c 0
 525 231 525 247 525 265 c 0
 524 341 524 392 524 428 c 0
 524 452 524 469 524 484 c 0
 524 519 524 535 520 580 c 8
 519 589 492 662 497 581 c 0
 497 581 499 296 499 295 c 0
 499 280 499 270 499 262 c 0
 499 242 499 238 499 189 c 0
 499 171 499 146 499 113 c 0
 499 104 506 74 506 48 c 0
 506 27 501 9 484 9 c 0
 483 9 483 9 483 9 c 0
 410 9 342 12 281 12 c 1
 275 12 271 14 266 17 c 0
 245 33 231 57 231 83 c 0
 231 95 235 108 242 120 c 0
 261 154 294 160 317 160 c 0
 329 160 337 158 340 158 c 1
 344 225 345 252 346 330 c 1
 345 330 l 0
 339 330 321 325 293 325 c 0
 269 325 238 329 200 343 c 0
 131 370 87 401 46 461 c 0
 26 492 16 520 16 553 c 0
 16 559 16 566 17 572 c 0
 20 615 30 653 68 686 c 0
 119 731 171 739 229 739 c 0
 260 739 293 737 329 736 c 0
 426 734 484 731 530 729 c 1
 541 748 557 754 573 754 c 0
 597 754 621 739 629 726 c 1
 649 725 665 725 674 724 c 1
 681 724 686 722 691 718 c 0
 706 704 717 693 717 680 c 0
 717 672 713 662 702 650 c 1
 698 645 682 644 688 641 c 0
 692 639 694 638 694 637 c 0
 694 634 681 632 668 632 c 0
 658 632 648 633 643 635 c 1
 644 587 646 591 646 566 c 0
 646 542 644 489 635 328 c 0
 630 225 625 158 625 157 c 1
EndSplineSet
Validated: 1
EndChar

StartChar: AE
Encoding: 198 198 71
Width: 1096
VWidth: 1080
Flags: HW
LayerCount: 2
Fore
SplineSet
524 240 m 1
 522 240 521 240 519 240 c 0
 491 240 446 246 388 246 c 0
 367 246 344 245 320 243 c 1
 304 232 298 212 298 194 c 0
 298 185 300 176 302 169 c 1
 314 172 322 180 332 180 c 0
 340 180 348 176 360 163 c 0
 364 159 366 155 366 150 c 0
 366 134 368 117 368 100 c 0
 368 76 365 54 350 41 c 0
 329 22 306 17 284 17 c 0
 255 17 226 26 204 26 c 0
 202 26 201 26 200 26 c 0
 161 25 148 25 123 24 c 1
 119 23 111 19 99 19 c 0
 88 19 73 22 54 34 c 0
 51 36 48 38 47 41 c 0
 44 44 19 57 19 86 c 0
 19 87 19 87 19 88 c 0
 20 133 51 160 87 178 c 0
 102 186 114 189 124 189 c 0
 138 189 147 183 152 178 c 1
 175 214 194 283 198 295 c 0
 279 526 275 499 372 668 c 0
 374 673 378 676 383 678 c 0
 406 689 461 737 508 737 c 0
 518 737 527 735 535 731 c 1
 557 731 577 731 596 731 c 0
 730 731 791 734 837 734 c 0
 888 734 920 730 1010 716 c 1
 1024 712 1030 707 1031 694 c 0
 1037 606 1052 618 1052 602 c 0
 1052 598 1051 592 1048 581 c 0
 1048 580 l 0
 1048 571 1077 569 1077 549 c 0
 1077 545 1076 541 1074 536 c 0
 1071 529 1066 525 1059 522 c 0
 1020 511 999 507 975 507 c 0
 955 507 933 510 896 512 c 0
 889 513 883 515 879 521 c 0
 867 533 863 541 863 546 c 0
 863 558 889 554 890 571 c 0
 891 581 889 587 872 597 c 1
 855 600 841 601 822 601 c 0
 800 601 773 599 728 593 c 0
 716 592 714 582 706 600 c 1
 704 542 704 530 704 509 c 0
 704 493 704 470 705 411 c 1
 722 408 740 403 763 403 c 0
 774 403 786 404 799 407 c 1
 800 408 800 409 800 411 c 0
 800 417 797 430 797 444 c 0
 797 462 803 484 831 500 c 0
 843 507 856 510 869 510 c 0
 888 510 908 502 922 488 c 0
 930 479 927 493 932 216 c 0
 931 206 928 200 917 195 c 0
 899 187 883 184 870 184 c 0
 846 184 828 195 815 210 c 0
 813 213 811 216 810 220 c 0
 807 233 806 243 806 251 c 0
 806 281 821 281 822 282 c 0
 822 283 l 0
 822 288 813 287 788 295 c 0
 766 301 753 305 739 305 c 0
 732 305 725 304 717 302 c 0
 700 298 699 298 697 293 c 1
 683 230 680 216 680 190 c 0
 680 176 681 159 681 129 c 1
 682 127 687 124 697 120 c 1
 742 111 775 108 807 108 c 0
 843 108 878 112 930 114 c 1
 960 128 931 142 1003 223 c 1
 1013 229 1018 233 1024 233 c 0
 1029 233 1034 230 1042 224 c 0
 1077 192 1072 166 1073 143 c 0
 1073 132 1074 121 1074 109 c 0
 1074 77 1068 44 1032 19 c 0
 1028 15 1023 14 1017 14 c 2
 515 26 l 1
 523 94 524 138 524 169 c 0
 524 193 523 210 523 224 c 0
 523 230 524 235 524 240 c 1
531 363 m 1
 533 396 535 447 535 480 c 0
 535 486 535 491 535 495 c 1
 537 501 538 506 538 510 c 0
 538 540 486 529 481 541 c 1
 476 530 391 401 391 401 c 1
 389 395 389 390 389 385 c 0
 389 370 395 360 398 360 c 0
 398 360 399 360 399 361 c 1
 419 361 438 360 454 360 c 0
 483 360 508 361 531 363 c 1
EndSplineSet
Validated: 1
EndChar

StartChar: Eth
Encoding: 208 208 80
Width: 804
VWidth: 1080
Flags: HW
VStem: 138.246 108.904<200.747 326.875>
LayerCount: 2
Back
SplineSet
72.2891 314.58 m 4
 49.6299 345.881 57.9053 383.798 79.7363 408.715 c 4
 121.418 456.289 175.054 437.703 211.342 443.885 c 4
 239.025 448.602 262.218 458.278 300 453 c 4
 324.444 449.584 358.717 448.726 382.699 416.025 c 4
 403.257 387.996 412.142 349.091 389.25 315.236 c 4
 353.363 262.165 295.522 269.891 252.487 268.258 c 4
 195.302 266.089 120.181 248.424 72.2891 314.58 c 4
319.491 649.406 m 1
 335.499 663.442 376.493 655.38 423.988 642.204 c 0
 482.505 625.97 511.075 607.686 548.075 561.356 c 0
 594.776 502.879 610.023 462.672 611.002 389.199 c 0
 611.934 319.291 598.418 281.963 555.605 224.636 c 0
 520.049 177.024 489.979 160.188 430.138 135.824 c 0
 393.565 120.933 375.534 115.491 342.484 121.215 c 0
 310.085 126.826 302.776 126.628 302.98 129.206 c 0
 322.376 374.014 300.103 257.066 319.491 649.406 c 1
92 634.6 m 0
 93.3145 634.633 l 1
 126.057 636.27 133.971 654.783 135.354 655.121 c 0
 158.378 660.769 172.292 651.085 155.701 666.847 c 1
 143.74 270.176 156.872 500.692 145.276 128.925 c 1
 140.298 123.519 72.9746 161.158 20.3828 121.146 c 0
 16.8369 118.447 14.4287 115.288 12.7314 111.284 c 1
 -0.0556641 80.3643 -3.56934 47.1514 16.3418 23.3271 c 0
 20.8252 17.9629 25.8975 15.4199 33.0293 14.418 c 1
 150.419 1.07422 195.208 0.000976562 298.243 0.951172 c 0
 298.309 0.952148 l 1
 376.418 1.86719 430.445 -7.24609 512.76 18.2725 c 0
 581.186 39.4873 627.635 62.0195 677.508 114.184 c 0
 732.842 172.06 749.282 223.321 768.234 294.365 c 0
 786.144 361.502 797.924 412.404 777.124 485.032 c 0
 755.241 561.442 720.657 607.368 658.469 659.118 c 0
 601.77 706.301 552.993 719.25 486.532 736.375 c 0
 372.965 765.637 301.217 759.775 189.89 759.05 c 0
 157.663 758.84 126.416 766.754 85.751 749.362 c 0
 54.9541 736.191 7.05566 709.366 16.2773 674.321 c 1
 20.3047 632.243 78.1729 634.6 92 634.6 c 0
EndSplineSet
Fore
SplineSet
312 451 m 1
 335 449 362 444 383 416 c 0
 396 398 403 378 403 359 c 0
 403 316 369 278 311 271 c 1
 311 239 308 199 303 129 c 0
 303 127 310 127 342 121 c 0
 351 119 358 119 366 119 c 0
 387 119 403 125 430 136 c 0
 490 160 520 177 556 225 c 0
 597 280 611 317 611 382 c 0
 611 384 611 387 611 389 c 0
 610 463 595 503 548 561 c 0
 511 608 482 626 424 642 c 0
 394 650 367 656 347 656 c 0
 335 656 325 654 319 649 c 1
 315 561 313 498 312 451 c 1
155 657 m 1
 150 657 143 657 135 655 c 0
 135 655 125 636 92 635 c 0
 90 635 88 635 85 635 c 0
 64 635 20 637 16 674 c 1
 15 677 15 680 15 683 c 0
 15 713 58 737 86 749 c 0
 107 759 126 761 144 761 c 0
 160 761 175 759 190 759 c 0
 226 759 257 760 287 760 c 0
 351 760 409 756 487 736 c 0
 553 719 602 706 658 659 c 0
 721 607 755 561 777 485 c 0
 785 458 788 433 788 410 c 0
 788 372 779 336 768 294 c 0
 749 223 733 172 678 114 c 0
 581 12 449 -0 365 -0 c 0
 338 -0 316 1 302 1 c 0
 300 1 299 1 298 1 c 0
 195 1 150 1 33 14 c 1
 11 17 3 42 3 67 c 0
 3 90 10 113 20 121 c 0
 39 135 60 140 79 140 c 0
 110 140 136 129 143 129 c 0
 144 129 145 129 145 129 c 1
 147 189 148 233 149 267 c 1
 97 276 59 315 59 357 c 0
 59 374 65 392 80 409 c 0
 101 433 126 440 150 442 c 1
 151 480 152 540 155 657 c 1
EndSplineSet
Validated: 1
EndChar

StartChar: multiply
Encoding: 215 215 86
Width: 446
VWidth: 1080
Flags: HW
LayerCount: 2
Fore
SplineSet
396 468 m 0
 361 428 297 353 277 327 c 1
 288 299 320 283 380 206 c 0
 388 195 392 180 392 165 c 0
 392 149 387 134 374 128 c 0
 343 113 323 115 303 112 c 1
 281 119 277 119 277 129 c 0
 277 133 277 139 278 148 c 1
 225 204 l 1
 223 213 222 210 213 215 c 1
 210 215 200 215 198 215 c 1
 182 199 186 214 177 197 c 1
 173 184 149 141 149 138 c 0
 149 117 148 111 127 107 c 0
 117 105 109 105 103 105 c 0
 87 105 78 109 60 113 c 0
 59 113 51 113 50 114 c 0
 39 118 36 124 36 133 c 0
 36 155 65 190 65 200 c 0
 65 201 l 1
 74 224 74 219 82 228 c 0
 143 289 136 289 148 310 c 1
 139 330 108 409 59 475 c 1
 56 486 53 492 53 497 c 0
 53 505 58 508 73 514 c 0
 93 523 101 524 112 524 c 0
 118 524 124 524 132 524 c 0
 143 523 149 520 155 509 c 0
 167 484 214 411 216 409 c 0
 219 407 219 406 228 410 c 0
 239 414 236 417 254 439 c 1
 298 485 l 1
 310 516 304 504 321 524 c 0
 321 524 329 526 340 526 c 0
 358 526 385 521 399 497 c 1
 405 485 405 478 396 468 c 0
EndSplineSet
Validated: 1
EndChar

StartChar: Oslash
Encoding: 216 216 87
Width: 783
VWidth: 1080
Flags: HW
LayerCount: 2
Fore
SplineSet
730 637 m 1
 716 624 l 1
 762 563 777 506 777 444 c 0
 777 401 770 357 760 307 c 0
 741 216 690 168 647 106 c 0
 592 27 507 -3 420 -3 c 0
 371 -3 322 6 277 22 c 1
 224 21 197 16 158 16 c 0
 137 16 112 17 77 22 c 0
 70 23 66 26 61 31 c 0
 56 37 14 52 14 93 c 0
 14 94 14 96 14 97 c 0
 15 122 30 142 74 158 c 1
 48 189 30 226 22 273 c 0
 16 311 12 347 12 382 c 0
 12 458 31 527 88 598 c 0
 177 710 284 759 430 759 c 0
 479 759 523 752 564 738 c 1
 570 744 579 751 590 751 c 0
 652 751 674 755 692 755 c 0
 711 755 727 750 786 731 c 0
 800 726 809 709 809 690 c 0
 809 673 803 655 786 642 c 0
 775 633 761 630 751 630 c 0
 739 630 730 634 730 637 c 1
234 264 m 1
 361 409 504 541 553 599 c 1
 513 632 483 649 442 649 c 0
 433 649 424 649 414 647 c 0
 343 635 310 599 266 533 c 0
 234 484 233 451 230 385 c 0
 229 361 227 340 227 321 c 0
 227 301 229 283 234 264 c 1
610 499 m 1
 504 352 445 307 333 151 c 1
 369 136 397 130 421 130 c 0
 448 130 468 137 489 148 c 0
 546 178 563 216 591 282 c 0
 611 332 622 368 622 410 c 0
 622 436 618 464 610 499 c 1
EndSplineSet
Validated: 1
EndChar

StartChar: Thorn
Encoding: 222 222 93
Width: 589
VWidth: 1080
Flags: HW
VStem: 120.82 118<79.1551 220.705>
LayerCount: 2
Fore
SplineSet
280 527 m 1
 276 483 274 453 274 426 c 0
 274 396 276 370 281 334 c 1
 282 333 284 333 286 333 c 0
 297 333 319 344 356 360 c 0
 382 371 392 376 400 394 c 0
 408 410 412 424 412 437 c 0
 412 450 408 463 400 479 c 0
 388 503 374 512 341 523 c 0
 324 528 315 532 305 532 c 0
 298 532 291 530 280 527 c 1
116 290 m 0
 116 299 122 365 122 530 c 0
 122 561 121 596 121 634 c 1
 116 633 111 633 104 633 c 0
 89 633 70 635 47 640 c 0
 30 643 17 664 17 689 c 0
 17 708 25 729 44 745 c 0
 49 749 54 751 60 751 c 0
 75 751 91 751 109 751 c 0
 186 751 285 749 347 749 c 0
 354 749 362 749 368 749 c 0
 369 749 l 0
 390 749 407 724 407 696 c 0
 407 681 402 666 392 652 c 0
 380 636 342 633 313 633 c 0
 296 633 281 634 278 634 c 0
 277 634 277 634 277 634 c 1
 365 615 449 635 521 567 c 1
 559 534 568 495 572 453 c 0
 572 448 572 444 572 440 c 0
 572 403 561 374 543 343 c 0
 515 293 490 253 430 225 c 0
 395 208 364 203 340 203 c 0
 310 203 289 211 283 211 c 0
 282 211 282 211 282 211 c 1
 283 166 286 167 289 126 c 1
 289 126 314 135 344 135 c 0
 375 135 411 126 433 87 c 0
 438 79 440 71 440 63 c 0
 440 44 427 27 408 13 c 0
 404 9 399 8 393 8 c 0
 317 7 251 -1 174 -1 c 0
 137 -1 97 1 52 7 c 0
 45 8 40 10 36 15 c 0
 24 29 19 42 19 54 c 0
 19 90 63 113 63 113 c 0
 81 120 94 123 102 123 c 0
 108 123 112 121 114 119 c 1
 116 194 116 280 116 290 c 0
EndSplineSet
Validated: 1
EndChar

StartChar: hbar
Encoding: 295 295 94
Width: 539
VWidth: 1000
Flags: HW
VStem: 102.398 86.287<189.833 273.694 332.694 356.694 419.194 430.194>
LayerCount: 2
Fore
SplineSet
249 636 m 1
 312 633 325 627 339 618 c 0
 353 609 359 599 359 590 c 0
 359 566 318 545 250 544 c 1
 249 524 249 510 249 501 c 1
 283 513 307 529 337 529 c 0
 362 529 391 518 433 485 c 0
 459 464 473 440 482 411 c 0
 500 354 506 310 506 271 c 0
 506 211 493 164 493 108 c 0
 493 106 493 103 493 101 c 1
 493 102 494 102 494 102 c 0
 500 102 523 69 523 38 c 0
 523 26 520 14 511 4 c 0
 505 -2 500 -4 492 -4 c 0
 478 -3 470 -3 464 -3 c 0
 454 -3 446 -4 416 -4 c 0
 397 -4 369 -4 326 -3 c 0
 319 -3 325 -1 320 4 c 0
 308 16 303 31 303 45 c 0
 303 61 309 76 317 87 c 1
 327 102 344 111 352 111 c 0
 353 111 354 111 355 110 c 1
 364 160 374 183 374 230 c 0
 374 253 371 282 365 323 c 0
 361 349 347 362 315 378 c 0
 308 382 304 383 298 383 c 0
 293 383 286 382 276 379 c 0
 250 372 250 378 250 374 c 0
 243 334 240 301 240 272 c 0
 240 216 249 173 249 126 c 0
 249 124 249 123 249 121 c 1
 261 108 285 79 285 48 c 0
 285 34 281 20 269 7 c 0
 260 -2 270 -3 90 -3 c 0
 83 -3 53 21 53 54 c 0
 53 63 55 72 60 82 c 0
 74 109 95 118 107 118 c 0
 113 118 117 116 118 114 c 1
 113 236 112 289 112 352 c 0
 112 399 113 452 113 543 c 1
 82 544 52 551 29 567 c 0
 20 573 15 580 15 587 c 0
 15 608 54 630 114 631 c 1
 114 635 114 639 114 644 c 1
 113 643 111 643 109 643 c 0
 100 643 82 649 66 663 c 0
 62 667 34 684 34 712 c 0
 34 715 34 719 35 722 c 0
 47 766 97 766 112 770 c 0
 130 773 153 782 178 782 c 0
 199 782 220 776 239 756 c 0
 245 749 247 753 249 636 c 1
EndSplineSet
Validated: 1
EndChar

StartChar: Iogonek
Encoding: 302 302 101
Width: 419
Flags: HW
LayerCount: 2
Fore
SplineSet
402 661 m 0
 402 654 382 628 345 628 c 0
 317 628 290 641 283 648 c 1
 293 551 295 497 295 432 c 0
 295 398 294 360 294 311 c 0
 294 261 295 199 297 116 c 1
 299 117 317 123 338 123 c 0
 391 123 404 86 404 66 c 0
 404 44 387 11 357 11 c 1
 348 -0 324 3 313 -11 c 0
 298 -31 294 -50 294 -64 c 0
 294 -96 309 -98 313 -98 c 0
 314 -98 l 0
 325 -99 322 -102 325 -91 c 1
 331 -75 344 -68 357 -68 c 0
 375 -68 393 -82 393 -102 c 0
 393 -103 393 -104 393 -105 c 0
 389 -170 345 -172 318 -172 c 2
 302 -172 l 2
 241 -172 208 -116 208 -66 c 0
 208 -39 217 -13 230 8 c 1
 209 7 200 6 189 6 c 0
 169 6 144 9 35 20 c 1
 12 25 -3 52 -3 74 c 0
 -3 107 29 132 63 132 c 0
 89 132 114 120 122 109 c 1
 119 255 117 339 117 407 c 0
 117 484 119 541 124 646 c 1
 119 641 107 636 92 636 c 0
 44 636 21 676 21 703 c 0
 21 724 36 751 58 751 c 0
 366 746 112 748 383 740 c 0
 400 740 412 721 412 701 c 0
 412 681 402 662 402 661 c 0
EndSplineSet
Validated: 1
EndChar

StartChar: iogonek
Encoding: 303 303 102
Width: 313
Flags: HW
VStem: 97 80<66 72> 97 85<72 151.447>
LayerCount: 2
Fore
SplineSet
234 603 m 0
 223 571 179 551 140 551 c 0
 118 551 98 557 84 570 c 0
 68 587 66 608 66 622 c 0
 66 684 110 711 152 711 c 0
 178 711 203 701 218 684 c 0
 231 668 238 648 238 629 c 0
 238 620 237 611 234 603 c 0
27 56 m 0
 27 90 55 114 86 114 c 0
 96 114 104 112 108 109 c 1
 108 141 l 2
 108 172 109 184 109 206 c 0
 109 231 107 268 102 356 c 1
 94 378 76 375 32 426 c 1
 28 435 25 442 25 447 c 0
 25 470 100 489 100 489 c 0
 116 494 133 506 160 506 c 0
 164 506 168 505 172 505 c 0
 198 501 225 492 241 464 c 0
 253 443 258 424 258 406 c 0
 258 371 243 341 243 314 c 0
 242 227 238 219 238 113 c 1
 240 116 245 119 251 119 c 0
 272 119 294 86 294 57 c 0
 294 43 289 28 276 17 c 0
 269 12 272 11 210 11 c 2
 193 11 l 1
 194 7 195 3 195 -1 c 0
 195 -26 161 -16 148 -34 c 0
 133 -54 129 -73 129 -87 c 0
 129 -119 144 -121 148 -121 c 0
 149 -121 l 0
 160 -122 157 -125 160 -114 c 1
 166 -98 179 -91 192 -91 c 0
 210 -91 228 -105 228 -125 c 0
 228 -126 228 -127 228 -128 c 0
 224 -193 180 -195 153 -195 c 2
 137 -195 l 2
 75 -195 43 -139 43 -89 c 0
 43 -58 54 -18 88 11 c 1
 61 11 l 2
 42 11 27 33 27 56 c 0
EndSplineSet
Validated: 1
EndChar

StartChar: IJ
Encoding: 306 306 103
Width: 644
VWidth: 1000
Flags: HW
LayerCount: 2
Fore
SplineSet
138 632 m 1
 136 629 124 626 109 626 c 0
 89 626 64 632 48 652 c 0
 39 664 33 679 33 694 c 0
 33 711 40 727 55 740 c 0
 60 744 65 746 72 746 c 0
 378 741 138 752 364 746 c 1
 390 752 420 755 453 755 c 0
 471 755 490 754 510 753 c 0
 513 753 516 753 520 753 c 0
 528 753 538 753 549 753 c 0
 574 753 602 749 623 723 c 0
 630 714 633 704 633 696 c 0
 633 685 629 676 626 670 c 0
 603 624 557 621 555 616 c 1
 559 504 559 439 559 384 c 0
 559 326 558 280 558 203 c 0
 558 144 559 68 561 -44 c 0
 561 -45 561 -47 561 -48 c 0
 561 -137 495 -176 477 -191 c 0
 440 -221 402 -250 334 -250 c 0
 332 -250 331 -250 330 -250 c 0
 311 -249 289 -250 265 -234 c 0
 243 -219 226 -195 226 -167 c 0
 226 -150 233 -131 249 -112 c 0
 257 -102 270 -84 297 -84 c 0
 300 -84 302 -84 305 -84 c 0
 347 -88 353 -121 357 -123 c 0
 368 -129 373 -132 378 -132 c 0
 383 -132 386 -127 395 -117 c 0
 406 -104 421 -97 424 -81 c 1
 436 -41 l 1
 445 -23 448 -13 448 -6 c 0
 448 3 443 3 443 4 c 0
 442 4 l 1
 437 1 433 -1 427 -1 c 0
 294 -3 263 -7 226 -7 c 0
 195 -7 159 -4 49 8 c 0
 31 10 11 35 11 62 c 0
 11 73 15 85 23 95 c 0
 37 112 58 117 79 117 c 0
 106 117 130 108 135 101 c 1
 132 222 131 259 131 288 c 0
 131 332 134 358 138 632 c 1
385 628 m 0
 377 629 372 636 367 631 c 0
 361 624 268 640 266 600 c 1
 276 460 276 355 276 284 c 0
 276 270 276 258 276 247 c 0
 276 199 277 172 282 164 c 0
 298 142 315 136 334 136 c 0
 355 136 379 144 405 146 c 0
 406 146 l 0
 414 146 422 141 429 141 c 0
 434 141 438 144 441 157 c 1
 442 212 442 250 442 309 c 0
 442 369 442 451 441 595 c 0
 441 599 440 602 438 606 c 0
 422 630 394 627 385 628 c 0
EndSplineSet
Validated: 1
LCarets2: 1 0 
Ligature2: "'liga' Standard Ligatures in Latin lookup 0 subtable" I J
EndChar

StartChar: ij
Encoding: 307 307 104
Width: 394
VWidth: 1000
Flags: HW
VStem: 117.033 62.717<103.534 204.11> 117.033 65.1605<98.6469 103.534> 245.725 79.8216<-33.3031 349.515> 245.817 2.12017<84.8003 95.3314>
LayerCount: 2
Fore
SplineSet
180 354 m 1
 174 326 172 296 172 265 c 0
 172 217 176 169 176 128 c 0
 176 122 176 116 176 110 c 1
 181 105 188 103 196 103 c 0
 205 103 217 106 230 110 c 1
 235 145 237 197 237 248 c 0
 237 295 235 342 234 374 c 1
 230 376 225 377 221 377 c 0
 206 377 190 366 180 354 c 1
227 -128 m 0
 228 -128 229 -128 230 -128 c 1
 232 -25 l 1
 25 -25 l 2
 7 -25 -10 -5 -10 20 c 0
 -10 28 -8 37 -3 46 c 0
 11 72 41 79 58 79 c 0
 65 79 71 78 72 76 c 1
 72 88 72 98 72 107 c 0
 72 137 73 148 73 171 c 0
 73 195 71 232 66 320 c 1
 58 342 40 339 -4 390 c 1
 -8 399 -11 406 -11 411 c 0
 -11 417 -7 422 4 429 c 0
 33 446 42 447 65 453 c 1
 181 472 l 1
 180 469 l 1
 184 473 188 476 193 477 c 0
 245 490 285 500 331 500 c 0
 339 500 347 500 355 499 c 1
 371 495 378 491 378 474 c 2
 378 -96 l 2
 378 -98 378 -100 377 -102 c 0
 351 -200 278 -236 249 -252 c 0
 231 -262 212 -276 181 -278 c 0
 180 -278 179 -278 178 -278 c 0
 142 -278 75 -251 75 -191 c 0
 75 -179 78 -167 83 -153 c 0
 98 -114 134 -98 167 -98 c 0
 195 -98 220 -110 227 -128 c 0
209 654 m 1
 222 692 258 711 293 711 c 0
 316 711 340 702 356 684 c 0
 371 668 378 648 378 628 c 0
 378 620 377 611 374 603 c 0
 364 575 340 567 329 562 c 0
 314 555 297 551 280 551 c 0
 247 551 216 566 208 600 c 1
 196 571 153 550 114 550 c 0
 76 550 41 570 41 622 c 0
 41 683 84 711 126 711 c 0
 162 711 198 691 209 654 c 1
EndSplineSet
Validated: 1
LCarets2: 1 0 
Ligature2: "'liga' Standard Ligatures in Latin lookup 0 subtable" i j
EndChar

StartChar: Kcommaaccent
Encoding: 310 310 105
Width: 736
Flags: HW
VStem: 105 114<401 656.683> 105 122<657 666>
LayerCount: 2
Fore
SplineSet
244 5 m 1
 278 -21 294 -70 294 -106 c 0
 294 -216 221 -348 132 -352 c 1
 122 -352 l 2
 51 -352 39 -317 39 -293 c 0
 39 -240 116 -229 123 -214 c 0
 125 -208 126 -204 126 -201 c 0
 126 -195 124 -190 124 -182 c 0
 124 -180 56 -178 49 -123 c 0
 47 -110 46 -97 46 -84 c 0
 46 -48 55 -14 90 14 c 1
 75 14 57 14 36 14 c 1
 17 15 1 37 1 62 c 0
 1 100 37 125 68 125 c 0
 81 125 91 121 95 118 c 1
 93 222 91 244 91 308 c 0
 91 362 93 446 97 636 c 1
 97 638 l 2
 97 641 96 642 93 642 c 0
 84 642 61 626 43 626 c 0
 25 626 17 654 17 669 c 0
 17 707 57 742 74 742 c 2
 306 742 l 1
 334 741 351 713 351 683 c 0
 351 648 330 614 287 614 c 0
 275 614 265 617 259 621 c 1
 261 550 261 528 261 518 c 0
 261 502 259 517 257 398 c 1
 428 622 l 1
 426 622 l 2
 415 622 369 633 369 679 c 0
 369 728 423 746 432 746 c 0
 495 747 519 748 528 748 c 0
 532 748 533 747 533 747 c 1
 533 747 532 747 532 746 c 0
 532 745 540 743 596 739 c 1
 596 739 662 726 662 681 c 2
 662 676 l 1
 657 624 588 621 585 619 c 0
 481 536 491 531 379 399 c 1
 506 292 460 329 643 120 c 1
 643 121 l 2
 643 124 651 132 664 132 c 0
 688 132 723 98 723 59 c 0
 723 32 704 -1 682 -1 c 2
 375 -1 l 2
 356 -1 337 23 337 50 c 0
 337 81 367 111 394 111 c 0
 415 111 429 96 435 96 c 2
 436 96 l 1
 443 101 443 114 440 123 c 1
 388 188 356 232 275 304 c 1
 264 298 258 291 251 279 c 1
 247 240 245 220 245 200 c 0
 245 178 247 155 251 106 c 1
 253 110 259 113 267 113 c 0
 290 113 314 88 314 62 c 0
 314 40 298 20 281 9 c 1
 276 7 300 5 295 5 c 0
 273 5 257 5 244 5 c 1
EndSplineSet
Validated: 1
EndChar

StartChar: kcommaaccent
Encoding: 311 311 106
Width: 609
Flags: HW
VStem: 81 90<274 647.195> 81 104<57 197>
LayerCount: 2
Fore
SplineSet
244 97 m 1
 261 97 291 73 291 45 c 0
 291 35 287 25 279 16 c 1
 346 0 366 -33 379 -60 c 0
 389 -83 393 -103 393 -123 c 0
 393 -233 320 -365 231 -369 c 1
 221 -369 l 2
 150 -369 138 -334 138 -310 c 0
 138 -257 215 -246 222 -231 c 0
 224 -225 225 -221 225 -218 c 0
 225 -212 223 -207 223 -199 c 0
 223 -197 155 -195 148 -140 c 0
 146 -127 145 -114 145 -101 c 0
 145 -39 175 -13 196 2 c 1
 178 1 160 1 143 1 c 0
 111 1 83 2 75 2 c 0
 58 3 43 19 43 42 c 0
 43 71 73 100 91 100 c 2
 92 100 l 1
 91 183 91 239 91 281 c 0
 91 365 92 395 92 482 c 0
 92 525 92 582 91 668 c 1
 84 663 77 660 70 660 c 0
 44 660 24 691 24 718 c 0
 24 726 26 733 28 740 c 1
 35 754 81 792 150 792 c 2
 181 792 l 2
 251 792 259 741 259 729 c 0
 259 708 243 677 230 669 c 1
 233 574 234 556 234 517 c 0
 234 484 233 436 232 311 c 1
 247 322 252 323 256 323 c 2
 258 323 l 2
 264 323 271 325 332 389 c 1
 327 389 l 2
 306 389 265 404 262 439 c 1
 262 443 l 2
 262 474 286 492 304 502 c 0
 313 507 306 502 519 517 c 1
 520 517 l 2
 544 517 566 484 566 457 c 0
 566 446 562 436 553 430 c 0
 414 332 406 332 337 277 c 1
 421 199 445 198 578 79 c 1
 584 72 586 67 586 58 c 2
 584 34 l 1
 581 20 577 14 564 11 c 0
 529 4 502 2 476 2 c 0
 436 2 398 7 335 7 c 0
 315 7 304 30 304 44 c 0
 304 62 318 81 338 97 c 1
 263 137 306 112 247 167 c 1
 244 97 l 1
EndSplineSet
Validated: 1
EndChar

StartChar: kgreenlandic
Encoding: 312 312 107
Width: 579
VWidth: 1000
Flags: HW
VStem: 72.8801 105<95 456> 73.8801 104<57 197>
LayerCount: 2
Fore
SplineSet
318 398 m 1
 317 398 315 398 313 398 c 0
 292 398 251 413 248 448 c 0
 248 449 248 450 248 452 c 0
 248 483 272 501 290 511 c 0
 294 513 286 514 290 514 c 0
 381 518 408 520 494 526 c 0
 495 526 l 0
 519 526 541 493 541 466 c 0
 541 455 537 445 528 439 c 0
 389 341 381 341 312 286 c 1
 396 208 420 208 553 88 c 0
 559 81 561 76 561 67 c 2
 559 43 l 1
 556 29 552 23 539 20 c 0
 504 13 477 11 451 11 c 0
 411 11 373 16 310 16 c 0
 302 16 297 18 292 24 c 0
 283 33 279 43 279 53 c 0
 279 71 293 90 313 106 c 1
 238 146 281 121 222 176 c 1
 222 177 222 178 222 178 c 0
 222 178 221 136 219 106 c 1
 228 106 247 97 256 82 c 0
 261 75 265 65 265 53 c 0
 265 44 262 34 254 25 c 0
 241 12 174 10 120 10 c 0
 84 10 54 11 49 11 c 0
 33 12 18 28 18 50 c 0
 18 61 21 72 29 83 c 0
 38 99 58 109 66 109 c 0
 67 109 l 1
 67 149 66 175 66 196 c 0
 66 242 67 257 67 317 c 0
 67 353 67 406 66 492 c 1
 69 510 70 521 135 521 c 0
 140 521 148 522 157 522 c 0
 177 522 203 518 222 493 c 0
 230 481 233 469 233 457 c 0
 233 444 229 432 224 422 c 0
 219 411 210 401 204 398 c 1
 204 398 205 392 207 320 c 1
 268 381 250 344 318 398 c 1
EndSplineSet
Validated: 1
EndChar

StartChar: Lcommaaccent
Encoding: 315 315 110
Width: 709
Flags: HW
VStem: 200 129<48 206 227 576.784>
LayerCount: 2
Fore
SplineSet
472 6 m 1
 492 -15 510 -54 510 -94 c 0
 510 -204 437 -336 348 -340 c 1
 338 -340 l 2
 267 -340 255 -305 255 -281 c 0
 255 -228 332 -217 339 -202 c 0
 341 -196 342 -192 342 -189 c 0
 342 -183 340 -178 340 -170 c 0
 340 -168 272 -166 265 -111 c 0
 263 -98 262 -85 262 -72 c 0
 262 -47 267 -23 281 -2 c 1
 224 -0 152 5 40 15 c 0
 21 18 4 44 4 62 c 0
 4 79 15 96 28 118 c 1
 34 126 39 129 49 130 c 1
 65 130 l 2
 125 130 150 113 164 113 c 2
 168 113 l 1
 168 156 l 2
 168 286 178 303 178 445 c 0
 178 478 177 519 176 569 c 1
 166 594 149 609 95 634 c 0
 78 641 75 671 75 686 c 0
 75 720 98 743 114 743 c 0
 230 748 241 751 256 751 c 0
 271 751 290 748 420 743 c 0
 440 742 471 708 471 669 c 0
 471 648 458 601 406 601 c 0
 394 601 383 604 377 604 c 0
 372 604 357 593 352 579 c 1
 354 490 354 434 354 395 c 0
 354 318 352 306 352 236 c 0
 352 205 353 162 354 95 c 1
 388 95 l 2
 443 95 468 97 535 125 c 1
 535 141 521 165 521 206 c 0
 521 260 535 287 585 287 c 0
 609 287 633 281 645 281 c 0
 646 281 647 281 648 281 c 0
 666 281 673 279 677 263 c 0
 691 203 696 173 696 138 c 0
 696 109 692 78 686 23 c 0
 686 22 687 22 687 21 c 0
 687 13 669 1 659 1 c 0
 657 1 655 2 654 3 c 0
 653 3 615 13 600 15 c 1
 548 12 507 9 472 6 c 1
EndSplineSet
Validated: 1
EndChar

StartChar: lcommaaccent
Encoding: 316 316 111
Width: 335
Flags: HW
VStem: 100 115<89 716>
LayerCount: 2
Fore
SplineSet
207 0 m 1
 252 -20 279 -74 279 -124 c 0
 279 -234 206 -366 117 -370 c 1
 107 -370 l 2
 36 -370 24 -335 24 -311 c 0
 24 -258 101 -247 108 -232 c 0
 110 -226 111 -222 111 -219 c 0
 111 -213 109 -208 109 -200 c 0
 109 -198 41 -196 34 -141 c 0
 32 -128 31 -115 31 -102 c 0
 31 -65 41 -30 77 -3 c 1
 58 -3 l 1
 32 -2 23 27 23 54 c 0
 23 73 27 91 34 97 c 0
 52 114 94 126 94 126 c 1
 93 612 l 1
 59 612 8 638 8 665 c 0
 8 666 8 668 8 669 c 2
 14 708 l 2
 18 729 54 784 129 784 c 0
 166 784 203 771 241 758 c 1
 253 752 257 747 258 734 c 1
 257 121 l 1
 279 120 289 105 304 81 c 0
 310 73 312 62 312 52 c 0
 312 37 308 23 307 22 c 0
 303 8 298 4 284 2 c 1
 207 0 l 1
EndSplineSet
Validated: 1
EndChar

StartChar: Lslash
Encoding: 321 321 116
Width: 709
VWidth: 1080
Flags: HW
VStem: 302.181 74.8522<213.229 282.04 300.679 410.129> 306.581 70.4523<380.412 410.582 436.529 489.835>
LayerCount: 2
Fore
SplineSet
75 686 m 0
 75 720 98 743 114 743 c 0
 230 748 241 751 256 751 c 0
 271 751 290 748 420 743 c 0
 440 742 471 708 471 669 c 0
 471 648 458 601 406 601 c 0
 394 601 383 604 377 604 c 0
 372 604 357 593 352 579 c 1
 353 540 353 507 354 479 c 1
 414 525 403 519 434 555 c 1
 423 553 416 551 412 551 c 0
 403 551 407 566 408 569 c 0
 415 588 438 599 445 599 c 0
 482 599 496 601 507 601 c 0
 519 601 558 590 564 581 c 1
 565 578 566 575 566 573 c 0
 566 550 534 525 518 525 c 0
 512 525 508 528 507 532 c 1
 354 403 l 1
 354 395 l 2
 354 318 352 306 352 236 c 0
 352 205 353 162 354 95 c 1
 388 95 l 2
 443 95 468 97 535 125 c 1
 535 141 521 165 521 206 c 0
 521 260 535 287 585 287 c 0
 609 287 633 281 645 281 c 0
 646 281 647 281 648 281 c 0
 666 281 673 279 677 263 c 0
 691 203 696 173 696 138 c 0
 696 109 692 78 686 23 c 0
 686 22 687 22 687 21 c 0
 687 13 669 1 659 1 c 0
 657 1 655 2 654 3 c 0
 653 3 615 13 600 15 c 1
 454 7 396 -2 308 -2 c 0
 247 -2 171 3 40 15 c 0
 21 18 4 44 4 62 c 0
 4 79 15 96 28 118 c 1
 34 126 39 129 49 130 c 1
 65 130 l 2
 125 130 150 113 164 113 c 2
 168 113 l 1
 168 156 l 2
 168 173 168 188 168 202 c 1
 160 184 120 161 114 161 c 0
 74 161 55 158 30 158 c 0
 17 158 -21 159 -25 167 c 0
 -27 171 -42 176 -42 193 c 0
 -42 196 -41 201 -39 206 c 1
 -28 234 12 246 27 246 c 0
 41 246 43 239 44 239 c 0
 102 288 141 320 176 346 c 1
 177 373 178 403 178 445 c 0
 178 478 177 519 176 569 c 1
 166 594 149 609 95 634 c 0
 78 641 75 671 75 686 c 0
169 224 m 1
 169 231 170 238 170 245 c 1
 157 233 l 1
 152 225 137 224 145 224 c 2
 148 224 l 2
 155 224 160 226 165 226 c 0
 166 226 168 225 169 224 c 1
EndSplineSet
Validated: 1
EndChar

StartChar: lslash
Encoding: 322 322 117
Width: 541
VWidth: 1080
Flags: HW
VStem: 448.375 65.8852<199.99 417.229 366.339 445.136 366.339 543.632>
LayerCount: 2
Fore
SplineSet
366 446 m 1
 365 129 l 1
 387 128 397 113 412 89 c 0
 418 81 420 70 420 60 c 0
 420 45 416 31 415 30 c 0
 411 16 406 12 392 10 c 1
 166 5 l 1
 140 6 131 35 131 62 c 0
 131 81 135 99 142 105 c 0
 160 122 202 134 202 134 c 1
 202 319 l 1
 181 301 l 1
 177 296 166 295 172 295 c 2
 174 295 l 2
 179 295 183 296 186 296 c 0
 194 296 191 285 189 281 c 0
 182 265 147 248 143 248 c 0
 113 248 99 245 80 245 c 0
 68 245 41 246 39 252 c 0
 38 255 22 260 32 282 c 0
 42 301 71 311 85 311 c 0
 95 311 97 306 97 306 c 2
 201 384 l 1
 201 620 l 1
 167 620 116 646 116 673 c 0
 116 674 116 676 116 677 c 2
 122 716 l 2
 126 737 162 792 237 792 c 0
 274 792 311 779 349 766 c 1
 361 760 365 755 366 742 c 1
 366 497 l 1
 397 520 394 520 416 543 c 1
 408 541 402 540 400 540 c 0
 393 540 398 553 398 554 c 0
 403 563 418 576 429 576 c 0
 456 576 467 578 475 578 c 0
 485 578 513 569 516 563 c 1
 516 562 517 560 517 559 c 0
 517 543 493 521 477 521 c 0
 472 521 470 523 470 526 c 1
 366 446 l 1
EndSplineSet
Validated: 1
EndChar

StartChar: Ncommaaccent
Encoding: 325 325 120
Width: 811
Flags: HW
VStem: 134 65<114 657>
LayerCount: 2
Fore
SplineSet
238 9 m 1
 263 -14 283 -56 283 -99 c 0
 283 -209 210 -340 121 -345 c 1
 111 -345 l 2
 40 -345 28 -309 28 -286 c 0
 28 -233 105 -222 112 -207 c 0
 114 -201 115 -197 115 -194 c 0
 115 -188 113 -183 113 -175 c 0
 113 -173 45 -171 38 -116 c 0
 36 -103 35 -90 35 -77 c 0
 35 -49 40 -23 58 0 c 1
 51 0 44 1 36 1 c 1
 21 4 16 8 12 23 c 0
 11 25 -4 42 -4 65 c 0
 -4 100 27 127 68 127 c 0
 88 127 105 121 109 110 c 1
 105 216 104 266 104 301 c 0
 104 371 109 380 109 649 c 1
 104 639 90 633 74 633 c 0
 24 633 12 681 12 699 c 0
 12 728 33 749 49 757 c 0
 51 757 52 758 54 758 c 0
 87 766 115 770 140 770 c 0
 178 770 213 762 257 750 c 0
 262 749 266 746 269 742 c 0
 291 716 592 346 609 322 c 1
 623 662 l 1
 617 662 601 650 579 650 c 0
 545 650 512 689 512 706 c 0
 512 715 518 723 521 736 c 0
 525 754 523 770 550 773 c 0
 620 781 638 785 650 785 c 0
 664 785 667 780 755 771 c 0
 785 768 801 747 801 724 c 0
 801 703 788 681 761 668 c 0
 746 661 752 658 732 656 c 1
 729 595 728 547 728 507 c 0
 728 418 733 363 733 272 c 0
 733 226 732 170 728 96 c 0
 728 90 708 33 662 29 c 0
 660 29 658 29 656 29 c 0
 620 29 601 57 589 73 c 0
 347 375 343 353 235 497 c 1
 238 471 239 449 239 429 c 0
 239 350 224 294 224 152 c 2
 224 120 l 1
 226 123 233 129 243 129 c 0
 260 129 280 103 280 76 c 0
 280 53 268 35 267 31 c 0
 261 10 252 9 241 9 c 0
 240 9 239 9 238 9 c 1
EndSplineSet
Validated: 1
EndChar

StartChar: ncommaaccent
Encoding: 326 326 121
Width: 542
Flags: HW
VStem: 51 106<119 331>
LayerCount: 2
Fore
SplineSet
25 -94 m 0
 25 -26 64 7 96 20 c 1
 83 20 l 2
 62 20 18 46 18 95 c 0
 18 132 49 164 65 164 c 0
 68 164 70 163 72 161 c 1
 71 230 71 341 71 414 c 1
 69 410 64 408 60 408 c 0
 45 408 23 425 20 446 c 0
 20 448 20 450 20 452 c 0
 20 468 35 468 124 558 c 0
 130 563 135 565 143 565 c 0
 170 564 187 550 197 543 c 0
 218 527 206 509 211 519 c 0
 219 532 232 529 273 542 c 0
 283 545 294 556 321 556 c 0
 322 556 323 556 324 556 c 0
 358 555 375 539 393 531 c 0
 402 527 430 525 449 498 c 1
 466 472 472 442 472 418 c 0
 472 401 469 388 466 381 c 1
 469 330 469 299 469 277 c 0
 469 243 467 232 467 198 c 0
 467 188 468 176 468 161 c 1
 470 174 473 179 478 179 c 0
 482 179 523 148 523 97 c 0
 523 42 487 18 473 18 c 0
 450 17 437 17 422 17 c 0
 402 17 377 17 318 18 c 0
 286 18 268 79 268 99 c 0
 268 127 292 166 313 166 c 0
 318 166 321 164 324 161 c 1
 323 224 322 248 322 263 c 0
 322 285 323 284 324 366 c 1
 322 379 322 394 296 396 c 0
 293 396 290 397 288 397 c 0
 267 397 232 372 227 360 c 1
 226 321 226 300 226 284 c 0
 226 253 227 245 227 162 c 1
 232 179 237 166 249 149 c 0
 260 133 267 115 267 96 c 0
 267 88 266 79 263 71 c 0
 258 54 251 30 216 21 c 0
 214 20 212 20 210 20 c 2
 170 20 l 1
 213 7 238 -8 259 -53 c 0
 269 -76 273 -96 273 -116 c 0
 273 -226 200 -358 111 -362 c 1
 101 -362 l 2
 30 -362 18 -327 18 -303 c 0
 18 -250 95 -239 102 -224 c 0
 104 -218 105 -214 105 -211 c 0
 105 -205 103 -200 103 -192 c 0
 103 -190 35 -188 28 -133 c 0
 26 -120 25 -107 25 -94 c 0
EndSplineSet
Validated: 1
EndChar

StartChar: Eng
Encoding: 330 330 125
Width: 829
VWidth: 1080
Flags: HW
VStem: 146.902 65<122.209 638.059>
LayerCount: 2
Fore
SplineSet
636 643 m 1
 618 643 562 644 562 644 c 1
 557 644 551 647 548 650 c 0
 535 662 530 672 530 681 c 0
 530 697 543 708 543 712 c 0
 543 713 l 1
 542 722 540 728 540 733 c 0
 540 743 545 746 563 748 c 0
 632 756 655 759 671 759 c 0
 693 759 703 753 792 746 c 0
 815 744 822 730 822 714 c 0
 822 689 806 658 798 648 c 1
 786 648 780 649 777 649 c 0
 771 649 777 647 745 637 c 1
 742 585 742 545 742 511 c 0
 742 427 747 383 747 294 c 0
 747 247 746 188 741 105 c 0
 741 101 739 99 738 95 c 0
 738 95 742 78 742 53 c 0
 742 12 732 -50 680 -98 c 1
 635 -164 493 -183 440 -192 c 0
 428 -194 418 -195 409 -195 c 0
 367 -195 353 -176 353 -154 c 0
 353 -131 369 -105 385 -96 c 0
 400 -88 627 -34 627 6 c 0
 627 7 627 8 627 9 c 0
 619 45 603 82 602 83 c 0
 358 372 365 338 248 486 c 1
 251 462 252 441 252 421 c 0
 252 347 237 294 237 158 c 0
 237 149 237 139 237 128 c 1
 239 130 246 136 255 136 c 0
 264 136 274 131 284 115 c 0
 290 105 293 95 293 86 c 0
 293 65 281 47 280 43 c 0
 276 29 271 23 256 22 c 0
 180 19 175 14 107 14 c 0
 92 14 73 14 49 15 c 1
 34 17 29 21 25 35 c 0
 25 36 10 54 10 77 c 0
 10 87 12 98 21 109 c 0
 35 128 61 135 82 135 c 0
 102 135 118 129 122 119 c 1
 118 219 116 267 116 300 c 0
 116 366 122 375 122 630 c 1
 116 621 98 614 78 614 c 0
 51 614 20 625 9 655 c 0
 7 660 6 666 6 670 c 0
 6 703 45 724 62 733 c 0
 64 733 65 734 67 734 c 0
 100 742 127 745 153 745 c 0
 191 745 225 738 269 727 c 0
 275 725 279 723 282 719 c 0
 304 694 604 343 622 320 c 1
 636 643 l 1
EndSplineSet
Validated: 1
EndChar

StartChar: eng
Encoding: 331 331 126
Width: 491
VWidth: 1000
Flags: HW
VStem: 45.5352 105<119 331>
LayerCount: 2
Fore
SplineSet
345 0 m 1
 309 1 316 -0 308 4 c 0
 287 15 269 50 269 81 c 0
 269 91 270 101 274 109 c 0
 286 136 309 148 317 148 c 0
 319 148 319 148 320 147 c 1
 319 204 318 229 318 243 c 0
 318 268 320 264 321 349 c 1
 319 362 318 377 293 379 c 0
 291 379 289 379 287 379 c 0
 256 379 228 351 223 343 c 1
 222 307 222 286 222 270 c 0
 222 237 223 231 224 152 c 1
 246 132 258 103 258 76 c 0
 258 44 241 13 205 4 c 0
 203 3 207 3 207 3 c 1
 183 3 167 3 153 3 c 0
 126 3 111 3 80 3 c 0
 51 3 15 37 15 78 c 0
 15 85 16 92 18 99 c 0
 29 132 53 146 63 146 c 0
 66 146 67 145 68 144 c 1
 68 185 68 213 68 237 c 0
 68 286 68 318 68 397 c 1
 65 392 60 390 55 390 c 0
 40 390 20 408 17 429 c 1
 17 431 17 433 17 435 c 0
 17 450 29 449 121 541 c 0
 124 544 131 548 142 548 c 0
 154 548 171 543 194 526 c 0
 216 509 208 511 208 502 c 0
 208 499 209 498 211 498 c 0
 218 498 237 515 269 525 c 0
 279 528 292 539 317 539 c 0
 318 539 319 539 320 539 c 0
 354 538 372 522 390 514 c 0
 399 510 426 508 445 481 c 0
 468 448 477 408 477 383 c 0
 477 375 476 368 474 364 c 1
 475 335 476 305 476 274 c 0
 476 216 474 155 474 90 c 0
 474 67 474 43 475 19 c 0
 475 -31 455 -96 406 -144 c 1
 361 -213 221 -233 166 -243 c 0
 154 -245 144 -246 135 -246 c 0
 93 -246 79 -225 79 -202 c 0
 79 -178 94 -151 110 -142 c 0
 126 -134 353 -76 353 -33 c 0
 353 -33 353 -32 353 -31 c 0
 350 -18 347 -7 345 0 c 1
EndSplineSet
Validated: 1
EndChar

StartChar: OE
Encoding: 338 338 131
Width: 963
VWidth: 1080
Flags: HW
LayerCount: 2
Fore
SplineSet
452 754 m 0
 482 754 508 754 532 754 c 0
 669 754 718 757 754 757 c 0
 788 757 810 754 882 742 c 1
 896 737 901 733 902 719 c 0
 908 625 923 636 923 616 c 0
 923 612 922 605 920 594 c 0
 920 593 l 0
 920 585 944 591 944 574 c 0
 944 570 943 566 941 560 c 0
 938 553 938 546 930 544 c 0
 891 532 871 528 847 528 c 0
 827 528 804 531 767 533 c 0
 760 534 755 536 750 542 c 0
 740 554 736 561 736 565 c 0
 736 576 763 568 763 580 c 0
 763 581 763 582 762 584 c 0
 760 588 760 590 760 592 c 0
 760 593 l 0
 760 595 759 597 743 617 c 1
 722 620 706 621 682 621 c 0
 671 621 657 621 641 621 c 0
 631 621 619 621 605 621 c 1
 581 617 599 621 577 620 c 1
 576 564 575 549 575 531 c 0
 575 512 576 490 577 421 c 1
 594 418 613 413 637 413 c 0
 647 413 658 414 670 416 c 1
 671 417 671 418 671 421 c 0
 671 428 668 442 668 458 c 0
 668 479 674 504 702 520 c 0
 714 527 727 530 739 530 c 0
 759 530 778 522 793 507 c 0
 801 498 799 507 803 216 c 0
 802 205 799 199 788 194 c 0
 770 186 754 183 741 183 c 0
 717 183 700 193 687 210 c 0
 684 213 682 216 682 220 c 0
 679 234 678 245 678 253 c 0
 678 284 693 284 693 285 c 0
 693 286 l 0
 693 292 684 291 660 298 c 0
 637 305 623 310 609 310 c 0
 602 310 596 309 588 307 c 0
 571 302 571 302 568 297 c 1
 554 232 552 214 552 124 c 1
 553 123 558 119 568 115 c 1
 614 105 647 102 679 102 c 0
 715 102 750 106 802 108 c 1
 831 123 803 138 875 223 c 1
 884 229 890 233 896 233 c 0
 901 233 906 230 913 224 c 0
 948 190 943 163 944 139 c 0
 945 127 946 115 946 102 c 0
 946 69 939 35 904 8 c 0
 899 4 894 3 888 3 c 2
 446 3 l 2
 444 3 442 3 440 3 c 0
 349 3 268 23 258 29 c 0
 158 83 48 139 27 270 c 0
 21 308 17 344 17 378 c 0
 17 455 36 524 93 596 c 0
 174 697 271 757 401 757 c 0
 413 757 425 757 437 756 c 0
 442 756 451 754 452 754 c 0
377 145 m 0
 390 146 393 151 396 162 c 1
 407 266 414 333 414 456 c 0
 414 494 414 538 412 590 c 0
 410 631 405 636 390 636 c 0
 388 636 385 636 383 636 c 1
 372 632 l 1
 315 602 270 582 231 525 c 0
 199 477 198 437 196 386 c 0
 195 367 193 349 193 332 c 0
 193 300 198 270 218 236 c 0
 245 190 280 172 324 152 c 0
 337 146 350 144 361 144 c 0
 367 144 372 144 377 145 c 0
EndSplineSet
Validated: 1
EndChar

StartChar: oe
Encoding: 339 339 132
Width: 586
VWidth: 1000
Flags: HW
LayerCount: 2
Fore
SplineSet
367 399 m 0
 388 386 416 368 435 368 c 0
 446 368 455 374 458 390 c 0
 461 406 463 417 463 425 c 0
 463 433 461 437 459 439 c 0
 455 442 450 444 445 444 c 0
 435 444 422 438 404 426 c 0
 389 417 363 411 363 404 c 0
 363 403 364 401 367 399 c 0
399 298 m 0
 324 305 l 0
 324 303 341 267 345 242 c 0
 351 204 355 187 378 168 c 0
 390 158 398 159 426 156 c 0
 441 155 451 154 458 154 c 0
 477 154 475 161 484 189 c 0
 492 212 510 222 529 222 c 0
 556 222 584 202 584 171 c 0
 584 170 584 169 584 168 c 0
 582 114 579 106 564 81 c 0
 536 34 495 26 466 26 c 0
 451 26 439 28 433 28 c 0
 406 28 391 29 366 31 c 0
 365 31 364 31 363 31 c 0
 352 31 341 27 320 27 c 0
 315 27 310 27 305 27 c 0
 287 27 274 28 257 28 c 0
 253 28 244 27 231 27 c 0
 200 27 148 33 101 77 c 0
 65 110 42 143 30 192 c 0
 23 221 20 246 20 271 c 0
 20 299 24 327 33 358 c 0
 50 416 68 461 120 502 c 0
 173 544 233 551 281 551 c 0
 304 551 325 549 341 549 c 0
 343 549 346 549 348 549 c 0
 370 549 389 551 411 551 c 0
 425 551 440 550 458 547 c 0
 491 540 536 538 561 488 c 0
 577 456 583 431 583 407 c 0
 583 387 579 367 571 346 c 0
 565 330 552 305 522 302 c 0
 518 301 453 298 399 298 c 0
257 348 m 0
 261 375 263 392 263 403 c 0
 263 426 256 423 249 428 c 1
 242 429 236 429 229 429 c 0
 190 429 161 410 144 366 c 0
 133 338 127 306 127 276 c 0
 127 212 154 154 218 146 c 1
 236 147 l 1
 246 151 249 155 250 165 c 1
 250 182 257 203 257 225 c 0
 257 231 257 237 255 244 c 0
 251 259 250 271 250 284 c 0
 250 303 253 321 257 348 c 0
EndSplineSet
Validated: 1
EndChar

StartChar: Rcommaaccent
Encoding: 342 342 133
Width: 777
Flags: HW
LayerCount: 2
Fore
SplineSet
313 636 m 1
 309 592 307 560 307 531 c 0
 307 500 309 472 314 435 c 1
 316 434 318 433 322 433 c 0
 334 433 356 443 390 456 c 0
 416 466 425 471 433 488 c 0
 443 507 448 523 448 539 c 0
 448 555 443 570 434 589 c 1
 421 613 407 621 374 632 c 0
 357 637 348 641 338 641 c 0
 331 641 324 639 313 636 c 1
240 9 m 1
 271 -13 294 -60 294 -105 c 0
 294 -215 220 -347 132 -351 c 1
 122 -351 l 2
 51 -351 39 -316 39 -292 c 0
 39 -239 116 -228 123 -213 c 0
 125 -207 126 -203 126 -200 c 0
 126 -194 124 -189 124 -181 c 0
 124 -179 56 -177 49 -122 c 0
 47 -109 46 -96 46 -83 c 0
 46 -46 56 -11 92 16 c 1
 82 18 71 19 60 21 c 0
 46 23 26 44 26 71 c 0
 26 106 63 145 98 145 c 0
 107 145 115 143 119 143 c 2
 120 143 l 1
 122 222 125 281 125 287 c 2
 125 289 l 1
 129 354 130 446 130 522 c 0
 130 598 129 657 129 657 c 1
 119 656 131 632 92 632 c 0
 83 632 71 634 56 637 c 0
 39 640 26 662 26 687 c 0
 26 720 51 748 68 748 c 0
 167 750 209 757 308 757 c 0
 412 757 500 751 586 677 c 0
 618 650 637 606 637 558 c 0
 637 484 592 401 478 351 c 1
 516 332 651 230 763 71 c 1
 766 64 768 59 768 54 c 0
 768 37 717 7 667 7 c 0
 634 7 570 22 561 34 c 1
 552 44 342 321 341 321 c 0
 332 321 321 319 310 319 c 0
 304 319 297 319 290 322 c 1
 291 241 291 269 297 150 c 1
 297 150 306 152 320 152 c 0
 384 152 404 104 404 82 c 0
 404 53 379 24 358 20 c 1
 314 16 278 11 240 9 c 1
EndSplineSet
Validated: 1
EndChar

StartChar: rcommaaccent
Encoding: 343 343 134
Width: 403
Flags: HW
LayerCount: 2
Fore
SplineSet
237 149 m 0
 247 149 262 103 262 85 c 0
 262 70 258 54 246 41 c 0
 239 33 215 28 185 22 c 1
 223 8 244 -6 263 -47 c 0
 273 -70 277 -90 277 -110 c 0
 277 -220 204 -352 115 -356 c 1
 105 -356 l 2
 34 -356 22 -321 22 -297 c 0
 22 -244 99 -233 106 -218 c 0
 108 -212 109 -208 109 -205 c 0
 109 -199 107 -194 107 -186 c 0
 107 -184 39 -182 32 -127 c 0
 30 -114 29 -101 29 -88 c 0
 29 -55 37 -24 64 2 c 1
 42 5 23 34 23 61 c 0
 23 92 52 122 66 122 c 0
 68 122 70 121 71 119 c 1
 73 152 74 177 74 198 c 0
 74 230 72 256 72 295 c 0
 72 311 72 329 73 350 c 1
 60 352 16 371 16 412 c 0
 16 417 17 421 20 425 c 0
 35 450 70 525 139 525 c 0
 177 525 197 502 217 494 c 1
 223 502 224 532 283 532 c 2
 297 532 l 1
 370 527 390 442 390 416 c 0
 390 369 347 321 310 321 c 0
 270 321 257 361 238 384 c 1
 236 373 230 348 230 343 c 2
 230 210 l 2
 230 190 230 169 229 141 c 1
 232 146 235 149 237 149 c 0
EndSplineSet
Validated: 1
EndChar

StartChar: Scedilla
Encoding: 350 350 141
Width: 502
Flags: HW
LayerCount: 2
Fore
SplineSet
292 -2 m 1
 329 -24 353 -74 353 -121 c 0
 353 -230 279 -362 191 -367 c 1
 181 -367 l 2
 110 -367 98 -331 98 -308 c 0
 98 -255 175 -244 182 -229 c 0
 184 -223 185 -219 185 -216 c 0
 185 -210 183 -205 183 -197 c 0
 183 -195 115 -193 108 -138 c 0
 106 -125 105 -112 105 -99 c 0
 105 -71 109 -20 165 11 c 1
 103 26 113 21 27 75 c 0
 21 79 17 84 16 92 c 0
 12 129 10 154 10 175 c 0
 10 206 13 227 13 264 c 1
 14 279 31 297 60 297 c 0
 72 297 86 294 102 285 c 0
 185 241 160 157 199 130 c 0
 221 114 239 108 264 108 c 0
 272 108 282 109 292 110 c 0
 327 113 340 115 349 131 c 0
 359 148 364 165 364 182 c 0
 364 207 353 232 333 260 c 0
 301 305 254 295 180 333 c 0
 150 349 100 349 67 398 c 0
 38 442 25 486 25 530 c 0
 25 565 33 601 48 638 c 0
 84 731 188 747 226 747 c 0
 265 747 302 736 342 729 c 1
 374 722 422 727 452 683 c 0
 455 679 457 665 457 643 c 0
 457 611 452 560 439 496 c 0
 438 494 436 474 399 474 c 0
 316 474 330 619 290 641 c 0
 269 653 253 660 239 660 c 0
 216 660 177 626 177 570 c 0
 177 546 184 520 197 495 c 0
 213 466 244 474 297 448 c 0
 339 428 408 436 452 373 c 0
 481 332 493 291 493 249 c 0
 493 209 482 168 465 127 c 0
 425 25 326 3 292 -2 c 1
EndSplineSet
Validated: 1
EndChar

StartChar: scedilla
Encoding: 351 351 142
Width: 362
Flags: HW
LayerCount: 2
Fore
SplineSet
142 -325 m 0
 139 -325 135 -325 132 -325 c 0
 104 -325 59 -320 50 -277 c 0
 49 -273 49 -269 49 -266 c 0
 49 -213 126 -202 133 -187 c 0
 135 -181 136 -177 136 -174 c 0
 136 -168 134 -163 134 -155 c 0
 134 -153 66 -151 59 -96 c 0
 57 -83 56 -70 56 -57 c 0
 56 -28 62 -0 82 24 c 1
 64 29 46 39 33 59 c 0
 18 82 10 105 10 130 c 0
 10 149 15 170 27 193 c 0
 37 212 47 220 57 220 c 0
 95 220 135 116 164 116 c 2
 165 116 l 1
 189 118 205 138 206 166 c 0
 206 167 206 167 206 168 c 0
 206 181 196 188 169 208 c 1
 143 230 73 204 38 269 c 0
 20 302 15 322 15 353 c 0
 15 359 16 366 16 373 c 0
 19 443 64 482 115 512 c 0
 137 526 160 532 183 532 c 0
 195 532 207 530 220 527 c 0
 262 516 299 494 316 449 c 0
 321 436 324 425 324 414 c 0
 324 394 317 375 305 349 c 0
 296 331 287 324 279 324 c 0
 251 324 226 392 217 397 c 0
 196 411 188 417 181 417 c 0
 179 417 178 417 176 416 c 0
 156 410 146 399 146 387 c 0
 146 385 147 384 147 382 c 0
 152 360 189 376 235 340 c 0
 273 309 320 289 341 226 c 0
 347 207 350 188 350 170 c 0
 350 138 341 108 321 79 c 0
 302 53 280 39 256 30 c 1
 271 18 281 2 290 -16 c 0
 300 -39 304 -59 304 -79 c 0
 304 -96 301 -114 298 -132 c 0
 286 -191 270 -233 226 -280 c 0
 205 -302 182 -323 142 -325 c 0
EndSplineSet
Validated: 1
EndChar

StartChar: Tcedilla
Encoding: 354 354 145
Width: 889
Flags: HW
VStem: 327 148<105 620.431> 327 165<97 105>
LayerCount: 2
Fore
SplineSet
522 -362 m 0
 519 -362 515 -362 512 -362 c 0
 484 -362 439 -357 430 -314 c 0
 429 -310 429 -306 429 -303 c 0
 429 -250 506 -239 513 -224 c 0
 515 -218 516 -214 516 -211 c 0
 516 -205 514 -200 514 -192 c 0
 514 -190 446 -188 439 -133 c 0
 437 -120 436 -107 436 -94 c 0
 436 -59 445 -26 477 1 c 1
 399 3 334 8 218 28 c 0
 201 31 181 57 181 85 c 0
 181 98 185 110 194 122 c 0
 212 146 240 152 263 152 c 0
 287 152 307 145 307 145 c 1
 307 166 306 185 306 203 c 0
 306 403 334 379 334 512 c 0
 334 544 333 583 329 636 c 1
 311 637 275 644 218 644 c 0
 211 644 205 644 198 644 c 1
 145 614 203 577 108 451 c 0
 107 449 105 448 103 446 c 0
 94 439 85 436 76 436 c 0
 40 436 14 491 7 512 c 0
 6 516 6 520 7 525 c 0
 40 664 14 602 49 712 c 0
 50 716 52 719 55 722 c 0
 82 749 110 746 127 748 c 0
 159 753 188 754 215 754 c 0
 292 754 353 740 438 740 c 0
 517 740 575 757 646 757 c 0
 673 757 701 755 733 748 c 0
 758 743 774 732 781 725 c 0
 839 666 795 709 871 539 c 0
 872 537 872 534 872 531 c 0
 872 508 844 464 799 464 c 0
 794 464 788 465 783 466 c 0
 776 467 772 470 768 475 c 0
 662 614 708 635 667 652 c 1
 620 642 542 633 506 631 c 1
 506 539 489 468 489 370 c 0
 489 303 496 224 523 117 c 0
 524 113 526 112 530 112 c 0
 539 112 555 123 569 123 c 0
 576 123 582 121 587 114 c 0
 597 100 603 83 603 66 c 0
 603 49 598 33 587 18 c 1
 593 16 600 13 606 11 c 0
 639 -2 657 -25 670 -53 c 0
 680 -76 684 -96 684 -116 c 0
 684 -133 681 -151 678 -169 c 0
 666 -228 650 -270 606 -317 c 0
 585 -339 562 -360 522 -362 c 0
EndSplineSet
Validated: 1
EndChar

StartChar: tcedilla
Encoding: 355 355 146
Width: 352
Flags: HW
VStem: 64 88<157 355>
LayerCount: 2
Fore
SplineSet
110 -358 m 0
 107 -358 103 -358 100 -358 c 0
 72 -358 27 -353 18 -310 c 0
 17 -306 17 -302 17 -299 c 0
 17 -246 94 -235 101 -220 c 0
 103 -214 104 -210 104 -207 c 0
 104 -201 102 -196 102 -188 c 0
 102 -186 34 -184 27 -129 c 0
 25 -116 24 -103 24 -90 c 0
 24 -52 34 -16 73 12 c 0
 86 21 99 26 111 29 c 1
 90 42 73 60 61 81 c 0
 58 85 57 89 57 94 c 0
 57 141 57 173 57 200 c 0
 57 254 57 286 57 371 c 1
 48 377 26 389 14 413 c 0
 11 420 10 427 10 434 c 0
 10 457 24 479 26 481 c 0
 126 588 62 514 121 582 c 0
 126 588 136 592 146 592 c 0
 163 592 183 583 194 564 c 0
 204 548 207 535 207 526 c 0
 207 518 205 512 204 508 c 1
 206 508 209 508 212 508 c 0
 226 508 252 506 303 503 c 0
 322 501 341 473 341 441 c 0
 341 423 335 404 320 387 c 1
 312 380 299 378 279 378 c 0
 263 378 242 379 217 379 c 0
 210 379 203 379 196 379 c 1
 196 355 196 341 196 329 c 0
 196 298 195 292 194 189 c 1
 205 136 201 128 213 124 c 0
 214 124 237 143 267 143 c 0
 273 143 278 142 284 141 c 0
 306 136 313 123 313 108 c 0
 313 88 301 66 296 59 c 0
 285 41 255 21 252 19 c 0
 235 13 221 10 206 9 c 1
 232 -4 247 -25 258 -49 c 0
 268 -72 272 -92 272 -112 c 0
 272 -129 269 -147 266 -165 c 0
 254 -224 238 -266 194 -313 c 0
 173 -335 150 -356 110 -358 c 0
EndSplineSet
Validated: 1
EndChar

StartChar: Tbar
Encoding: 358 358 149
Width: 883
VWidth: 1080
Flags: HW
HStem: 374.354 88.6654<287.99 352.99> 376.799 93.9939<489.99 557.99>
VStem: 334.99 165<110.692 163.466>
LayerCount: 2
Fore
SplineSet
318 332 m 1
 312 332 300 331 283 331 c 0
 248 331 195 335 139 363 c 0
 117 374 108 387 108 401 c 0
 108 420 127 440 152 450 c 0
 197 468 235 472 266 472 c 0
 295 472 317 468 330 468 c 1
 332 492 334 523 334 555 c 0
 334 581 333 607 331 632 c 1
 312 634 293 641 233 641 c 0
 223 641 212 640 200 640 c 1
 147 610 205 573 110 448 c 0
 109 446 107 444 105 442 c 0
 96 435 87 432 78 432 c 0
 42 432 16 487 9 508 c 0
 8 512 8 516 9 521 c 0
 42 660 16 598 51 708 c 0
 52 712 54 715 57 718 c 0
 84 745 112 742 129 744 c 0
 161 749 190 750 217 750 c 0
 294 750 355 736 440 736 c 0
 519 736 577 753 648 753 c 0
 675 753 703 751 735 744 c 0
 760 739 776 728 783 721 c 0
 841 662 797 706 873 535 c 0
 874 533 874 530 874 527 c 0
 874 504 846 460 801 460 c 0
 796 460 790 461 785 462 c 0
 778 463 774 466 770 471 c 0
 664 610 710 631 669 648 c 1
 596 632 546 630 508 627 c 1
 508 496 509 515 511 478 c 1
 517 476 525 475 532 475 c 0
 544 475 556 477 564 477 c 0
 618 474 660 475 701 455 c 0
 728 442 745 422 745 403 c 0
 745 388 736 374 714 363 c 0
 666 338 614 334 574 334 c 0
 554 334 538 335 526 335 c 0
 525 335 523 335 522 335 c 1
 524 327 524 318 524 309 c 0
 524 284 521 253 521 205 c 0
 521 180 522 149 525 113 c 1
 527 110 529 108 533 108 c 0
 542 108 557 119 571 119 c 0
 578 119 584 117 589 110 c 0
 599 96 605 80 605 64 c 0
 605 43 596 23 576 7 c 0
 571 3 566 2 560 2 c 0
 504 2 460 -1 414 -1 c 0
 360 -1 303 2 220 17 c 0
 200 20 183 49 183 79 c 0
 183 93 187 106 196 118 c 0
 216 145 245 153 268 153 c 0
 289 153 306 146 309 141 c 1
 309 159 308 174 308 187 c 0
 308 249 312 267 318 332 c 1
EndSplineSet
Validated: 1
EndChar

StartChar: tbar
Encoding: 359 359 150
Width: 358
VWidth: 1080
Flags: HW
VStem: 70.5519 87.6973<205 356>
LayerCount: 2
Fore
SplineSet
64 157 m 1
 54 160 39 165 29 173 c 0
 16 182 11 194 11 204 c 0
 11 221 23 238 37 246 c 0
 54 256 60 250 63 258 c 1
 63 298 63 288 63 326 c 1
 57 329 32 390 21 413 c 1
 20 414 l 0
 17 421 15 429 15 435 c 0
 15 452 24 466 27 473 c 1
 28 476 30 479 32 481 c 0
 132 588 69 514 127 582 c 1
 131 587 136 590 142 591 c 0
 145 591 148 592 151 592 c 0
 172 592 191 580 200 564 c 1
 210 550 213 531 213 518 c 0
 213 514 212 511 212 508 c 1
 214 508 217 508 220 508 c 0
 236 508 261 506 309 503 c 1
 316 502 321 500 325 495 c 0
 340 480 347 460 347 441 c 0
 347 422 340 402 326 387 c 1
 321 382 315 379 308 379 c 0
 283 378 268 378 258 378 c 0
 242 378 239 379 227 379 c 0
 221 379 214 378 203 378 c 0
 203 378 203 377 201 376 c 1
 202 351 203 335 203 316 c 0
 203 303 202 288 202 267 c 1
 204 266 206 265 209 265 c 0
 215 265 223 267 233 267 c 0
 235 267 238 267 240 267 c 0
 264 265 291 267 315 249 c 0
 330 239 340 222 340 206 c 0
 340 194 335 183 322 173 c 0
 294 152 261 150 229 150 c 0
 221 150 214 150 206 150 c 1
 219 124 l 1
 220 124 242 143 273 143 c 0
 278 143 284 142 290 141 c 0
 313 136 320 123 320 108 c 0
 320 88 307 66 303 59 c 0
 292 42 282 37 267 24 c 1
 264 22 262 20 258 19 c 0
 237 12 219 9 200 9 c 0
 187 9 174 11 160 13 c 1
 119 20 88 48 67 81 c 1
 64 85 63 89 63 94 c 1
 64 124 64 146 64 157 c 1
EndSplineSet
Validated: 1
EndChar

StartChar: Uogonek
Encoding: 370 370 161
Width: 832
Flags: HW
LayerCount: 2
Fore
SplineSet
302 654 m 1
 297 525 286 486 286 427 c 0
 286 387 291 337 306 243 c 1
 329 192 355 155 409 147 c 0
 417 146 426 145 434 145 c 0
 503 145 561 188 594 232 c 1
 607 348 610 389 610 417 c 0
 610 442 608 458 608 507 c 0
 608 538 609 581 612 648 c 1
 608 644 593 639 577 639 c 0
 556 639 532 646 521 667 c 0
 517 676 515 684 515 691 c 0
 515 722 544 746 565 757 c 0
 569 759 573 761 578 761 c 0
 638 762 660 762 672 762 c 0
 692 762 687 761 767 758 c 0
 783 757 821 727 821 691 c 0
 821 683 818 674 813 665 c 0
 803 650 782 643 766 643 c 0
 758 643 752 645 749 647 c 1
 747 610 746 582 746 559 c 0
 746 503 751 474 751 409 c 0
 751 356 747 278 736 140 c 0
 736 137 735 134 733 131 c 0
 704 78 659 57 606 39 c 0
 561 24 520 12 480 6 c 1
 482 2 482 -2 482 -6 c 0
 482 -31 448 -21 435 -39 c 0
 420 -59 416 -78 416 -92 c 0
 416 -109 422 -120 426 -124 c 0
 428 -125 425 -125 436 -126 c 0
 447 -127 444 -130 447 -119 c 1
 453 -103 466 -96 479 -96 c 0
 497 -96 515 -110 515 -130 c 0
 515 -131 515 -132 515 -133 c 0
 511 -198 467 -200 440 -200 c 0
 438 -200 436 -200 435 -200 c 0
 433 -200 429 -200 424 -200 c 0
 410 -200 387 -198 366 -178 c 0
 340 -154 330 -124 330 -94 c 0
 330 -56 348 -19 370 2 c 1
 333 5 295 13 254 25 c 0
 184 46 162 93 118 126 c 1
 113 131 110 136 109 143 c 0
 99 299 94 429 94 521 c 0
 94 581 96 624 100 647 c 1
 89 644 66 616 42 616 c 0
 35 616 27 618 20 625 c 0
 9 636 3 651 3 668 c 0
 3 701 25 739 72 754 c 0
 74 754 77 755 79 755 c 0
 191 759 226 763 252 763 c 0
 280 763 298 758 391 746 c 0
 407 744 438 712 438 679 c 0
 438 667 434 654 424 643 c 0
 411 628 395 623 378 623 c 0
 342 623 305 647 302 654 c 1
EndSplineSet
Validated: 1
EndChar

StartChar: uogonek
Encoding: 371 371 162
Width: 498
Flags: HW
VStem: 47 93<142 375> 291 86<127 394>
LayerCount: 2
Fore
SplineSet
401 7 m 1
 403 0 404 -5 404 -10 c 0
 404 -35 370 -25 357 -43 c 0
 342 -63 338 -82 338 -96 c 0
 338 -113 344 -124 348 -128 c 0
 350 -129 347 -129 358 -130 c 0
 369 -131 366 -134 369 -123 c 1
 375 -107 388 -100 401 -100 c 0
 419 -100 437 -114 437 -134 c 0
 437 -135 437 -136 437 -137 c 0
 433 -202 389 -204 362 -204 c 0
 360 -204 358 -204 357 -204 c 0
 355 -204 351 -204 346 -204 c 0
 332 -204 309 -202 288 -182 c 0
 262 -158 252 -128 252 -98 c 0
 252 -58 272 -18 296 1 c 0
 299 4 304 8 312 14 c 1
 301 23 297 35 294 42 c 1
 267 36 226 11 182 11 c 0
 157 11 131 18 106 40 c 0
 66 76 58 126 58 131 c 0
 58 204 58 216 58 216 c 1
 58 216 58 213 57 213 c 1
 57 213 57 235 57 399 c 1
 56 398 54 397 52 397 c 0
 37 397 8 424 8 453 c 0
 8 461 10 468 15 476 c 0
 36 510 85 533 128 533 c 0
 158 533 185 522 198 496 c 0
 201 490 202 452 202 399 c 0
 202 338 201 258 201 185 c 1
 205 178 229 157 254 157 c 0
 271 157 290 167 303 200 c 1
 303 324 302 415 302 415 c 1
 300 414 294 413 288 413 c 0
 271 413 245 418 233 438 c 0
 227 447 225 457 225 466 c 0
 225 482 232 497 241 507 c 0
 264 535 295 533 314 535 c 0
 328 537 341 538 354 538 c 0
 374 538 394 535 417 525 c 0
 423 523 456 516 461 484 c 0
 461 482 462 479 462 477 c 0
 462 457 450 440 442 440 c 0
 440 440 439 441 438 442 c 1
 438 171 l 1
 462 140 442 162 481 132 c 1
 487 124 491 118 491 112 c 0
 491 107 489 103 485 97 c 0
 455 56 437 35 396 17 c 1
 397 15 399 11 401 7 c 1
EndSplineSet
Validated: 1
EndChar

StartChar: A
Encoding: 65 65 332
Width: 811
VWidth: 1080
Flags: HW
LayerCount: 2
Fore
SplineSet
433 554 m 1
 420 521 400 495 400 492 c 0
 393 473 389 456 381 434 c 24
 373 414 369 401 360 384 c 1
 376 374 392 371 410 371 c 0
 433 371 460 376 497 380 c 1
 497 391 477 423 463 459 c 0
 453 484 435 536 433 554 c 1
543 231 m 0
 543 233 542 258 509 263 c 1
 485 261 466 261 449 261 c 0
 421 261 398 262 372 262 c 0
 354 262 334 261 310 259 c 1
 293 245 292 220 292 197 c 0
 292 195 292 192 292 190 c 1
 295 191 300 192 305 192 c 0
 319 192 337 187 350 171 c 1
 354 166 356 162 356 156 c 0
 357 133 358 114 358 97 c 0
 358 73 355 54 343 38 c 1
 342 37 341 36 340 35 c 0
 319 14 296 8 274 8 c 0
 245 8 216 19 193 19 c 0
 192 19 191 19 190 19 c 0
 151 17 139 17 113 16 c 1
 109 15 101 10 89 10 c 0
 78 10 63 14 44 27 c 1
 41 30 38 32 37 35 c 0
 34 39 9 52 9 86 c 0
 9 87 9 87 9 88 c 0
 11 137 41 166 77 187 c 0
 91 195 104 198 115 198 c 0
 132 198 143 192 143 188 c 1
 163 225 186 306 188 315 c 1
 188 315 188 316 188 317 c 0
 269 573 265 542 362 730 c 1
 364 735 368 739 373 741 c 0
 400 755 429 770 460 770 c 0
 476 770 492 767 509 757 c 1
 512 755 515 752 517 749 c 0
 565 678 566 642 588 581 c 0
 649 406 655 301 697 184 c 1
 703 176 760 181 791 124 c 0
 799 110 806 90 806 71 c 0
 806 56 801 40 788 28 c 0
 777 18 760 14 757 14 c 0
 720 6 687 6 652 6 c 0
 648 6 643 6 639 6 c 0
 625 6 612 6 597 5 c 0
 580 4 568 4 558 4 c 0
 536 4 519 5 468 5 c 0
 433 5 420 31 420 62 c 0
 420 93 433 129 450 147 c 0
 466 165 478 170 489 170 c 0
 504 170 517 159 534 159 c 0
 537 159 540 159 543 160 c 1
 545 162 550 162 550 169 c 0
 549 180 546 208 543 231 c 0
EndSplineSet
Validated: 1
EndChar

StartChar: B
Encoding: 66 66 333
Width: 661
VWidth: 1080
Flags: HW
LayerCount: 2
Fore
SplineSet
462 245 m 4
 462 247 462 249 462 250 c 4
 462 299 436 339 396 343 c 4
 356 347 331 351 320 351 c 4
 315 351 313 351 313 349 c 4
 308 280 304 252 304 207 c 4
 304 198 304 190 304 180 c 4
 305 155 331 136 362 136 c 4
 364 136 367 136 370 136 c 4
 424 142 459 187 462 245 c 4
336 631 m 5
 332 584 329 552 329 523 c 4
 329 493 332 465 337 427 c 5
 338 426 339 426 341 426 c 4
 351 426 375 438 412 455 c 4
 438 467 446 471 455 491 c 4
 463 509 468 523 468 537 c 4
 468 550 464 564 456 580 c 4
 443 606 428 615 397 626 c 4
 381 632 371 636 360 636 c 4
 354 636 346 634 336 631 c 5
41 634 m 4
 30 647 25 662 25 677 c 4
 25 699 35 722 52 737 c 5
 55 739 59 741 63 742 c 4
 115 756 155 760 195 760 c 4
 231 760 267 756 311 751 c 4
 413 738 501 747 589 669 c 4
 628 634 637 593 640 549 c 4
 640 542 641 535 641 529 c 4
 641 494 633 462 609 430 c 4
 588 402 575 397 563 397 c 4
 556 397 549 398 541 398 c 4
 532 398 521 397 507 389 c 5
 516 384 524 383 532 383 c 4
 544 383 554 387 564 387 c 4
 577 387 591 381 609 356 c 4
 635 320 642 285 642 248 c 4
 642 235 641 221 640 208 c 4
 634 149 627 91 570 48 c 4
 522 12 476 3 429 3 c 4
 388 3 348 10 306 10 c 4
 299 10 291 9 284 9 c 4
 230 5 200 -0 156 -0 c 4
 127 -0 92 2 40 9 c 5
 33 10 28 13 24 18 c 4
 11 34 5 51 5 69 c 4
 5 99 22 128 44 147 c 5
 46 149 49 150 51 151 c 4
 69 158 84 160 97 160 c 4
 127 160 142 145 146 138 c 5
 146 144 146 150 146 156 c 4
 146 225 130 222 129 307 c 5
 129 307 129 308 129 309 c 4
 154 638 l 5
 148 630 147 618 116 618 c 4
 103 618 83 620 55 626 c 5
 49 627 45 629 41 634 c 4
EndSplineSet
Validated: 1
EndChar

StartChar: C
Encoding: 67 67 334
Width: 745
VWidth: 1080
Flags: HW
LayerCount: 2
Fore
SplineSet
649 182 m 0
 652 182 655 183 658 183 c 0
 683 183 691 165 691 144 c 0
 691 119 680 89 670 77 c 0
 598 -13 496 -3 395 -6 c 0
 390 -6 385 -6 380 -6 c 0
 327 -6 286 4 237 29 c 0
 158 69 111 110 65 185 c 0
 34 236 19 279 19 335 c 0
 19 343 19 351 20 360 c 0
 27 456 60 517 118 592 c 0
 173 662 222 701 308 737 c 0
 345 752 392 759 439 759 c 0
 490 759 540 751 577 737 c 0
 627 718 687 708 718 645 c 0
 731 619 736 595 736 571 c 0
 736 528 718 487 692 439 c 1
 684 430 679 425 672 425 c 0
 668 425 663 427 656 431 c 0
 594 467 611 518 599 534 c 0
 555 589 539 625 485 638 c 0
 469 642 455 644 441 644 c 0
 404 644 373 630 336 602 c 0
 262 546 236 491 226 399 c 0
 224 384 224 370 224 357 c 0
 224 303 239 263 280 214 c 0
 326 160 369 142 443 134 c 0
 450 133 456 133 462 133 c 0
 526 133 574 171 649 182 c 0
EndSplineSet
Validated: 1
EndChar

StartChar: D
Encoding: 68 68 335
Width: 804
VWidth: 1080
Flags: HW
LayerCount: 2
Fore
SplineSet
319 649 m 1
 312 506 311 431 311 381 c 0
 311 344 311 321 311 295 c 0
 311 260 310 218 303 129 c 0
 303 127 310 127 342 121 c 0
 351 119 358 119 366 119 c 0
 387 119 403 125 430 136 c 0
 490 160 520 177 556 225 c 0
 597 280 611 317 611 382 c 0
 611 384 611 387 611 389 c 0
 610 463 595 503 548 561 c 0
 511 608 483 626 424 642 c 0
 394 650 366 656 346 656 c 0
 334 656 325 654 319 649 c 1
92 635 m 0
 90 635 88 635 85 635 c 0
 64 635 20 637 16 674 c 1
 15 677 15 680 15 683 c 0
 15 713 58 737 86 749 c 0
 107 759 126 761 144 761 c 0
 160 761 175 759 190 759 c 0
 226 759 257 760 287 760 c 0
 351 760 409 756 487 736 c 0
 553 719 602 706 658 659 c 0
 721 607 755 561 777 485 c 0
 785 458 788 433 788 410 c 0
 788 372 779 336 768 294 c 0
 749 223 733 172 678 114 c 0
 580 12 447 -0 363 -0 c 0
 337 -0 316 1 302 1 c 0
 301 1 299 1 298 1 c 0
 280 1 264 1 249 1 c 0
 177 1 130 3 33 14 c 1
 11 17 2 41 2 66 c 0
 2 89 10 113 20 121 c 0
 39 135 60 140 79 140 c 0
 110 140 136 129 143 129 c 0
 144 129 145 129 145 129 c 1
 150 278 151 330 151 365 c 0
 151 382 150 395 150 413 c 0
 150 450 151 508 156 667 c 1
 147 662 158 661 135 655 c 0
 135 655 125 635 92 635 c 0
EndSplineSet
Validated: 1
EndChar

StartChar: E
Encoding: 69 69 336
Width: 682
VWidth: 1080
Flags: HW
HStem: 629.425 97.85<94 122 255.88 289.978>
LayerCount: 2
Fore
SplineSet
417 283 m 4
 418 283 422 283 422 283 c 4
 422 284 422 284 422 285 c 4
 422 290 412 290 389 296 c 4
 366 303 352 308 337 308 c 4
 331 308 325 307 318 305 c 4
 300 300 299 298 297 295 c 5
 283 229 280 214 280 187 c 4
 280 172 281 154 281 122 c 5
 282 121 287 117 297 113 c 5
 343 103 375 100 407 100 c 4
 443 100 478 104 530 106 c 5
 560 121 531 136 604 221 c 5
 613 227 619 231 625 231 c 4
 630 231 635 228 642 222 c 4
 677 189 672 160 673 137 c 4
 674 125 674 113 674 100 c 4
 674 67 668 33 632 6 c 4
 628 3 623 0 617 0 c 6
 71 0 l 6
 67 0 9 11 9 54 c 4
 9 92 52 100 63 104 c 4
 67 105 71 106 75 106 c 4
 98 106 108 81 109 81 c 4
 109 81 109 85 109 86 c 4
 101 146 98 193 98 234 c 4
 98 369 133 424 133 578 c 4
 133 588 132 599 132 611 c 5
 131 611 122 599 102 599 c 4
 95 599 86 601 75 605 c 4
 54 614 26 632 26 665 c 4
 26 667 26 668 26 670 c 4
 32 740 128 756 128 756 c 4
 168 756 203 756 234 756 c 4
 340 756 397 757 439 757 c 4
 498 757 524 754 610 740 c 5
 624 735 630 731 631 717 c 4
 632 706 632 696 632 688 c 4
 632 645 624 637 624 634 c 4
 624 632 630 633 649 619 c 4
 657 613 678 604 678 582 c 4
 678 577 677 571 674 564 c 4
 671 556 667 552 659 550 c 4
 620 538 599 534 575 534 c 4
 555 534 533 537 496 539 c 4
 489 540 483 542 479 548 c 4
 468 560 464 567 464 572 c 4
 464 585 497 577 498 596 c 4
 498 602 l 4
 497 602 496 599 493 599 c 4
 489 599 482 602 472 615 c 5
 454 618 438 620 416 620 c 4
 395 620 368 618 328 611 c 4
 304 607 311 608 306 618 c 5
 304 562 304 547 304 529 c 4
 304 510 304 488 306 420 c 5
 323 416 342 411 366 411 c 4
 376 411 387 412 399 414 c 5
 400 415 400 416 400 418 c 4
 400 423 397 433 397 444 c 4
 397 460 403 480 431 496 c 4
 442 503 455 506 468 506 c 4
 488 506 507 498 522 483 c 4
 528 477 528 474 528 467 c 4
 529 324 530 302 530 302 c 4
 530 306 l 4
 531 306 531 294 532 228 c 4
 531 217 528 211 517 206 c 4
 499 198 483 195 470 195 c 4
 446 195 429 205 415 222 c 4
 413 225 411 228 410 232 c 4
 407 246 406 256 406 263 c 4
 406 281 412 283 417 283 c 4
EndSplineSet
Validated: 1
EndChar

StartChar: F
Encoding: 70 70 337
Width: 648
VWidth: 1080
Flags: HW
HStem: -1 120.942<311.456 375 393 415.898> -1 105<-11.4258 37 41 73.2431 247.05 371.902> 198 84<381 436> 305.592 103.408<272.798 364.438> 597 157<35.979 97.9473> 618 137<272.317 437.158>
VStem: 64 182.989<115.822 292.742> 75 171.989<109.731 230.074> 99 173<415.733 576> 496 2<299 305.99>
LayerCount: 2
Fore
SplineSet
381 282 m 0xb240
 384 282 388 282 388 283 c 0
 388 288 378 288 355 294 c 0
 332 301 318 306 303 306 c 0
 297 306 291 305 284 303 c 0
 266 298 265 296 263 293 c 1
 248 229 247 213 247 146 c 0
 247 138 247 129 247 120 c 1
 248 119 253 115 263 111 c 1
 296 104 306 101 311 101 c 0
 320 101 308 110 375 113 c 1
 385 118 393 120 400 120 c 0
 420 120 426 100 426 77 c 0
 426 48 416 13 416 13 c 0
 414 6 401 -1 393 -1 c 0
 386 -1 346 -1 296 -1 c 0
 195 -1 51 -1 37 -1 c 0x7940
 33 -1 -25 9 -25 52 c 0
 -25 90 18 98 29 102 c 0
 33 103 37 104 41 104 c 0
 64 104 74 79 75 79 c 0
 75 79 75 79 75 80 c 0
 75 80 75 82 75 84 c 0
 67 144 64 191 64 232 c 0x3a40
 64 367 99 422 99 576 c 0x38c0
 99 586 98 597 98 609 c 1
 97 609 88 597 68 597 c 0
 61 597 52 599 41 603 c 0
 20 612 -8 630 -8 663 c 0
 -8 665 -8 666 -8 668 c 0
 -2 738 94 754 94 754 c 0
 134 754 169 754 200 754 c 0
 306 754 363 755 405 755 c 0xb4c0
 464 755 490 752 576 738 c 1
 590 733 596 729 597 715 c 0
 598 704 598 694 598 686 c 0
 598 641 590 630 590 623 c 0
 590 618 596 616 615 602 c 0
 623 596 644 587 644 565 c 0
 644 560 643 554 640 547 c 0
 637 540 633 535 625 533 c 0
 586 521 565 517 541 517 c 0
 521 517 499 520 462 522 c 0
 455 523 449 525 445 531 c 0
 434 543 431 551 431 557 c 0
 431 573 458 574 458 588 c 0
 458 589 457 591 457 592 c 0
 452 607 448 606 438 613 c 1
 420 616 404 618 382 618 c 0
 361 618 334 616 294 609 c 0
 270 605 279 607 272 616 c 1
 270 560 270 545 270 527 c 0
 270 508 270 486 272 418 c 1
 289 414 308 409 332 409 c 0
 342 409 353 410 365 412 c 1
 366 413 366 414 366 415 c 0
 366 420 363 429 363 440 c 0
 363 454 369 472 397 488 c 0
 409 495 422 499 434 499 c 0
 454 499 474 491 488 475 c 0
 492 471 494 466 494 460 c 0
 495 323 496 299 496 299 c 0
 496 306 l 0
 497 306 497 293 498 231 c 0
 497 220 494 214 483 209 c 0
 465 201 449 198 436 198 c 0
 412 198 395 208 381 225 c 0
 379 228 377 231 376 235 c 0
 373 249 372 258 372 265 c 0
 372 279 377 282 381 282 c 0xb240
EndSplineSet
Validated: 1
EndChar

StartChar: G
Encoding: 71 71 338
Width: 818
VWidth: 1080
Flags: HW
LayerCount: 2
Fore
SplineSet
748 118 m 0
 668 9 525 2 383 -5 c 0
 377 -5 370 -5 364 -5 c 0
 313 -5 272 6 225 30 c 0
 146 70 99 111 53 186 c 0
 22 237 7 280 7 336 c 0
 7 344 7 352 8 361 c 0
 15 457 48 518 106 593 c 0
 161 663 210 702 296 738 c 0
 355 762 397 758 454 759 c 0
 459 759 464 759 469 759 c 0
 617 759 664 729 747 674 c 0
 752 671 755 667 757 662 c 0
 768 631 772 606 772 583 c 0
 772 541 756 507 731 459 c 1
 723 449 718 444 711 444 c 0
 706 444 702 445 695 449 c 0
 631 486 650 539 639 550 c 0
 585 603 548 629 476 638 c 0
 460 640 445 642 432 642 c 0
 392 642 361 631 324 603 c 0
 250 547 224 492 214 400 c 0
 212 385 212 371 212 358 c 0
 212 304 227 264 268 215 c 0
 314 161 357 144 431 135 c 0
 446 133 459 132 472 132 c 0
 520 132 555 144 574 160 c 1
 575 212 576 229 576 239 c 0
 576 250 574 250 568 282 c 0
 565 298 497 270 461 322 c 0
 457 328 453 338 453 349 c 0
 453 358 456 368 464 376 c 0
 473 384 464 384 771 399 c 0
 791 399 806 379 806 355 c 0
 806 341 801 325 788 311 c 0
 782 305 778 303 774 303 c 0
 768 303 763 310 754 317 c 0
 753 317 l 0
 752 317 752 315 752 312 c 0
 752 294 762 237 762 188 c 0
 762 159 758 133 748 118 c 0
EndSplineSet
Validated: 1
EndChar

StartChar: H
Encoding: 72 72 339
Width: 851
VWidth: 1080
Flags: HW
VStem: 628 105<131.675 370.125>
LayerCount: 2
Fore
SplineSet
49 664 m 0
 41 675 35 689 35 703 c 0
 35 717 41 732 55 744 c 0
 61 748 66 750 72 750 c 0
 380 746 126 747 397 740 c 0
 416 739 429 718 429 696 c 0
 429 683 425 670 415 659 c 0
 400 643 380 638 363 638 c 0
 337 638 315 649 313 653 c 1
 310 602 308 575 308 550 c 0
 308 524 310 500 310 455 c 1
 371 454 406 453 440 453 c 0
 482 453 523 454 611 455 c 1
 612 479 612 499 612 516 c 0
 612 539 612 557 612 573 c 0
 612 595 613 614 617 638 c 1
 615 636 606 633 594 633 c 0
 577 633 553 639 537 662 c 0
 530 673 524 687 524 703 c 0
 524 716 528 730 541 741 c 0
 545 745 550 747 556 747 c 0
 612 753 645 756 675 756 c 0
 711 756 746 751 816 741 c 0
 828 740 843 727 843 705 c 0
 843 697 840 686 834 675 c 0
 810 629 763 631 762 629 c 1
 759 74 769 570 762 136 c 1
 763 133 787 126 803 93 c 0
 811 77 812 63 812 51 c 0
 812 47 812 43 812 39 c 0
 812 36 812 33 812 30 c 1
 811 12 808 5 789 4 c 0
 699 -6 679 -8 663 -8 c 0
 645 -8 631 -5 524 -5 c 1
 505 -1 500 1 500 16 c 0
 500 18 500 21 500 24 c 0
 501 40 497 69 521 98 c 0
 543 123 573 126 589 126 c 0
 595 126 599 126 600 126 c 0
 601 126 601 126 601 126 c 0
 607 206 608 198 608 212 c 0
 608 224 607 250 607 348 c 1
 515 352 470 354 428 354 c 0
 394 354 361 353 306 352 c 1
 308 273 312 232 312 175 c 0
 312 162 311 148 311 132 c 1
 311 131 313 131 315 131 c 0
 319 131 325 132 332 132 c 0
 356 132 393 128 410 94 c 0
 415 85 418 74 418 64 c 0
 418 46 409 29 391 16 c 0
 386 13 382 11 376 11 c 0
 244 9 226 5 203 5 c 0
 183 5 159 8 49 20 c 0
 32 22 11 47 11 73 c 0
 11 84 15 96 23 106 c 0
 36 122 53 128 69 128 c 0
 93 128 115 116 120 109 c 1
 118 188 118 247 118 296 c 0
 118 441 124 487 138 646 c 1
 135 642 122 638 106 638 c 0
 87 638 64 644 49 664 c 0
EndSplineSet
Validated: 1
EndChar

StartChar: I
Encoding: 73 73 340
Width: 419
VWidth: 1080
Flags: W
HStem: 6 126<22.1875 121.613> 11 112<297.105 376.766> 628 112<284.274 395.737> 636 115<41.2805 120.415>
VStem: 117 178<116 643.484>
LayerCount: 2
Fore
SplineSet
283 648 m 1x28
 293 551 295 497 295 432 c 0
 295 398 294 360 294 311 c 0
 294 261 295 199 297 116 c 1
 299 117 317 123 338 123 c 0
 358 123 381 118 395 96 c 0
 401 86 404 76 404 66 c 0
 404 47 394 28 377 16 c 1
 372 13 368 12 362 11 c 0x68
 229 10 212 6 189 6 c 0
 169 6 144 9 35 20 c 1
 30 21 26 22 22 25 c 0
 7 37 -3 55 -3 74 c 0
 -3 85 1 97 9 107 c 0
 24 125 44 132 63 132 c 0
 89 132 114 120 122 109 c 1
 119 255 117 339 117 407 c 0
 117 484 119 541 124 646 c 1
 119 641 107 636 92 636 c 0
 73 636 51 643 35 664 c 0
 27 675 21 689 21 703 c 0
 21 718 27 733 41 745 c 1
 47 749 52 751 58 751 c 0x98
 366 746 112 748 383 740 c 1
 390 740 395 738 400 732 c 0
 409 723 412 712 412 701 c 0
 412 681 402 662 402 661 c 1
 402 659 401 658 400 656 c 0
 386 635 365 628 345 628 c 0
 317 628 290 641 283 648 c 1x28
EndSplineSet
Validated: 1
EndChar

StartChar: J
Encoding: 74 74 341
Width: 343
VWidth: 1000
Flags: HW
VStem: 193 99<-38.4267 510.673>
LayerCount: 2
Fore
SplineSet
120 631 m 1
 118 628 112 626 104 626 c 0
 88 626 65 633 48 655 c 0
 38 668 35 683 35 695 c 0
 35 704 37 712 37 716 c 0
 40 726 44 732 54 735 c 0
 89 746 123 749 160 749 c 0
 178 749 198 748 218 747 c 0
 221 747 224 747 228 747 c 0
 237 747 247 747 257 747 c 0
 282 747 309 743 332 717 c 0
 339 709 341 699 341 691 c 0
 341 680 337 670 334 664 c 0
 311 618 265 615 263 610 c 1
 267 498 267 433 267 378 c 0
 267 320 266 274 266 197 c 0
 266 138 267 62 269 -50 c 0
 269 -50 269 -51 269 -52 c 0
 269 -61 268 -97 253 -125 c 0
 235 -160 211 -175 185 -197 c 0
 162 -216 145 -231 111 -243 c 0
 91 -251 65 -256 40 -256 c 0
 15 -256 -9 -251 -26 -240 c 0
 -48 -225 -65 -201 -65 -174 c 0
 -65 -156 -59 -137 -42 -118 c 0
 -34 -108 -21 -90 5 -90 c 0
 8 -90 10 -90 13 -90 c 0
 55 -94 63 -126 65 -129 c 0
 72 -139 83 -139 87 -138 c 0
 89 -138 112 -125 119 -88 c 1
 120 155 120 239 120 391 c 0
 120 454 120 529 120 631 c 1
EndSplineSet
Validated: 1
EndChar

StartChar: K
Encoding: 75 75 342
Width: 736
VWidth: 1080
Flags: HW
VStem: 105 114<399.875 642.774> 105 122<643.075 651.625>
LayerCount: 2
Fore
SplineSet
428 622 m 1
 427 622 427 622 426 622 c 0
 408 622 376 639 370 665 c 0
 369 670 369 675 369 679 c 0
 369 728 423 746 432 746 c 0
 495 747 519 748 528 748 c 0
 532 748 533 747 533 747 c 0
 533 747 532 747 532 746 c 0
 532 745 540 743 596 739 c 0
 596 739 662 726 662 681 c 0
 662 679 662 678 662 676 c 0
 657 624 588 621 585 619 c 0
 481 536 491 531 379 399 c 1
 506 292 460 329 643 120 c 1
 643 120 643 120 643 121 c 0
 643 124 651 132 664 132 c 0
 672 132 683 128 696 117 c 0
 713 101 723 80 723 59 c 0
 723 41 716 22 700 6 c 0
 695 1 689 -1 682 -1 c 2
 375 -1 l 2
 356 -1 337 23 337 50 c 0
 337 65 343 80 357 94 c 0
 371 107 383 111 394 111 c 0
 415 111 429 96 435 96 c 0
 436 96 l 0
 443 101 443 114 440 123 c 1
 388 188 356 232 275 304 c 1
 264 298 258 291 251 279 c 1
 247 240 245 220 245 200 c 0
 245 178 247 155 251 106 c 1
 253 110 259 113 267 113 c 0
 279 113 295 106 307 86 c 0
 312 78 314 70 314 62 c 0
 314 40 298 20 281 9 c 0
 276 7 300 5 295 5 c 0
 136 5 253 14 36 14 c 0
 17 15 1 37 1 62 c 0
 1 75 5 90 17 102 c 0
 35 120 53 125 68 125 c 0
 81 125 91 121 95 118 c 1
 93 222 91 244 91 308 c 0
 91 362 93 446 97 636 c 1
 97 637 97 637 97 638 c 0
 97 641 96 642 93 642 c 0
 84 642 61 626 43 626 c 0
 37 626 31 629 27 635 c 0
 20 646 17 658 17 669 c 0
 17 698 38 723 60 737 c 0
 64 740 69 742 74 742 c 2
 306 742 l 2
 334 741 351 713 351 683 c 0
 351 664 345 644 329 629 c 0
 317 618 301 614 287 614 c 0
 275 614 265 617 259 621 c 1
 261 550 261 528 261 518 c 0
 261 502 259 517 257 398 c 1
 428 622 l 1
EndSplineSet
Validated: 1
EndChar

StartChar: L
Encoding: 76 76 343
Width: 709
VWidth: 1080
Flags: HW
VStem: 200 129<63.9016 214.002 233.952 566.246>
LayerCount: 2
Fore
SplineSet
114 743 m 0
 230 748 241 751 256 751 c 0
 271 751 290 748 420 743 c 0
 440 742 471 708 471 669 c 0
 471 655 467 640 457 626 c 0
 443 606 423 601 406 601 c 0
 394 601 383 604 377 604 c 0
 375 604 374 604 373 603 c 0
 360 595 354 585 352 579 c 1
 354 490 354 434 354 395 c 0
 354 318 352 306 352 236 c 0
 352 205 353 162 354 95 c 1
 366 95 378 95 388 95 c 0
 443 95 468 97 535 125 c 1
 535 141 521 165 521 206 c 0
 521 218 522 232 525 247 c 0
 532 279 558 287 585 287 c 0
 609 287 633 281 645 281 c 0
 646 281 647 281 648 281 c 1
 666 281 673 279 677 263 c 0
 691 203 696 173 696 138 c 0
 696 109 692 78 686 23 c 1
 686 22 687 22 687 21 c 0
 687 13 669 1 659 1 c 0
 657 1 655 2 654 3 c 0
 653 3 615 13 600 15 c 1
 454 7 396 -2 308 -2 c 0
 247 -2 171 3 40 15 c 0
 33 16 28 18 24 23 c 0
 10 37 4 50 4 62 c 0
 4 79 15 96 28 118 c 0
 34 126 39 129 49 130 c 0
 55 130 60 130 65 130 c 0
 125 130 150 113 164 113 c 0
 166 113 167 113 168 113 c 1
 168 128 168 143 168 156 c 0
 168 286 178 303 178 445 c 0
 178 478 177 519 176 569 c 1
 166 594 149 609 95 634 c 0
 88 637 85 641 82 648 c 0
 78 659 75 672 75 686 c 0
 75 704 81 722 98 737 c 0
 103 741 108 743 114 743 c 0
EndSplineSet
Validated: 1
EndChar

StartChar: M
Encoding: 77 77 344
Width: 879
VWidth: 1080
Flags: HW
VStem: 95 86<156.889 451.108>
LayerCount: 2
Fore
SplineSet
788 634 m 1
 784 501 781 412 781 328 c 0
 781 271 783 216 785 151 c 1
 788 159 793 163 799 163 c 0
 809 163 821 155 831 141 c 0
 842 127 845 112 845 99 c 0
 845 77 836 58 836 46 c 1
 834 31 830 24 814 22 c 0
 770 16 747 14 727 14 c 0
 697 14 678 19 614 22 c 1
 595 27 590 30 590 48 c 0
 590 55 585 69 585 85 c 0
 585 99 589 116 604 132 c 0
 619 148 636 153 650 153 c 0
 662 153 671 149 673 144 c 1
 681 205 683 253 683 294 c 0
 683 371 674 420 674 480 c 0
 674 482 674 484 674 486 c 1
 654 445 626 328 501 56 c 1
 500 55 499 53 498 52 c 0
 497 51 487 21 455 18 c 0
 453 18 451 18 449 18 c 0
 414 18 393 45 381 60 c 1
 380 61 379 63 378 66 c 0
 238 405 223 473 205 506 c 1
 206 496 207 484 207 469 c 0
 207 431 204 373 204 275 c 0
 204 242 204 205 205 163 c 1
 206 164 208 164 212 164 c 0
 227 164 261 156 279 118 c 0
 283 109 285 100 285 92 c 0
 285 71 274 54 273 48 c 1
 269 34 264 28 249 28 c 0
 172 24 168 19 100 19 c 0
 84 19 66 19 42 20 c 1
 27 23 22 26 18 41 c 0
 17 44 3 60 3 82 c 0
 3 91 6 102 13 113 c 0
 23 128 37 134 48 134 c 0
 57 134 65 130 69 123 c 1
 65 206 64 266 64 317 c 0
 64 418 69 478 69 610 c 0
 69 618 69 627 69 636 c 1
 66 630 59 627 49 627 c 0
 32 627 10 637 2 661 c 0
 0 666 -0 671 -0 676 c 0
 -0 709 37 729 55 738 c 1
 57 739 58 739 60 739 c 0
 94 747 122 751 147 751 c 0
 185 751 219 743 263 732 c 1
 271 729 276 726 279 718 c 0
 366 506 363 461 453 298 c 1
 692 738 l 0
 694 742 697 745 701 747 c 0
 723 759 741 765 760 765 c 0
 783 765 808 757 842 746 c 1
 846 745 850 743 853 739 c 0
 861 730 875 699 875 676 c 0
 875 665 872 657 865 652 c 1
 865 651 l 0
 865 635 833 627 810 627 c 0
 798 627 788 629 788 634 c 1
EndSplineSet
Validated: 1
EndChar

StartChar: N
Encoding: 78 78 345
Width: 811
VWidth: 1080
Flags: HW
VStem: 134 65<114 657>
LayerCount: 2
Fore
SplineSet
623 662 m 5
 617 662 601 650 579 650 c 4
 566 650 550 655 535 670 c 5
 517 687 512 697 512 706 c 4
 512 715 518 723 521 736 c 12
 525 754 523 770 550 773 c 4
 620 781 638 785 650 785 c 4
 664 785 667 779 755 771 c 4
 785 768 801 747 801 724 c 4
 801 703 788 681 761 668 c 4
 746 661 752 658 732 656 c 5
 729 595 728 547 728 507 c 4
 728 418 733 363 733 272 c 4
 733 226 732 170 728 96 c 5
 728 91 726 87 724 83 c 4
 721 79 705 33 662 29 c 4
 660 29 658 29 656 29 c 4
 620 29 601 57 589 73 c 5
 347 375 343 353 235 497 c 5
 238 471 239 449 239 429 c 4
 239 350 224 294 224 152 c 4
 224 142 224 131 224 120 c 5
 226 123 233 129 243 129 c 4
 251 129 261 124 271 107 c 4
 278 96 280 86 280 76 c 4
 280 53 268 35 267 31 c 5
 263 16 258 10 243 9 c 4
 166 5 162 0 94 0 c 4
 78 0 60 0 36 1 c 5
 21 4 16 8 12 23 c 4
 11 25 -4 42 -4 65 c 4
 -4 76 -1 87 8 99 c 4
 22 119 46 127 68 127 c 4
 88 127 105 121 109 110 c 5
 105 216 104 266 104 301 c 4
 104 371 109 380 109 649 c 5
 104 639 90 633 74 633 c 4
 52 633 28 644 17 674 c 4
 14 683 12 691 12 699 c 4
 12 728 33 749 49 757 c 5
 51 757 52 758 54 758 c 4
 87 766 115 770 140 770 c 4
 178 770 213 762 257 750 c 5
 262 749 266 746 269 742 c 4
 291 716 592 346 609 322 c 5
 623 662 l 5
EndSplineSet
Validated: 1
EndChar

StartChar: O
Encoding: 79 79 346
Width: 783
VWidth: 1080
Flags: W
HStem: -3 133<330.216 496.409> 650 109<357.572 512.684>
VStem: 12 215<274.453 501.879> 622 155<305.55 532.644>
LayerCount: 2
Fore
SplineSet
230 385 m 0
 229 360 227 340 227 321 c 0
 227 287 232 259 252 225 c 0
 279 179 304 159 358 142 c 0
 383 134 403 130 422 130 c 0
 444 130 465 135 489 148 c 0
 546 178 563 216 591 282 c 0
 611 331 622 367 622 408 c 0
 622 428 619 448 615 472 c 0
 604 533 593 567 547 604 c 0
 510 634 481 650 443 650 c 0
 434 650 424 649 414 647 c 0
 343 635 310 599 266 533 c 0
 234 484 233 451 230 385 c 0
717 622 m 0
 762 562 777 503 777 442 c 0
 777 399 770 355 760 307 c 0
 741 216 690 168 647 106 c 1
 593 27 507 -3 419 -3 c 0
 363 -3 306 9 255 30 c 1
 254 31 253 31 253 31 c 0
 152 86 43 142 22 273 c 0
 16 311 12 347 12 382 c 0
 12 458 31 527 88 598 c 0
 177 710 284 759 430 759 c 0
 552 758 646 719 717 622 c 0
EndSplineSet
Validated: 1
EndChar

StartChar: P
Encoding: 80 80 347
Width: 631
VWidth: 1080
Flags: HW
HStem: 10 150.863<290.407 370.873> 10 135<39.1562 113.75> 328.039 121.961<283.059 344.394> 649 106.641<281.513 373.304>
VStem: 18 379.968<26.7199 123.64> 117 166<159.112 325.622> 122 153<452.726 641.948> 413 200.557<496.081 612.296>
LayerCount: 2
Fore
SplineSet
281 644 m 1x33
 277 600 275 570 275 543 c 0
 275 514 277 488 282 451 c 1
 283 450 285 450 287 450 c 0
 297 450 319 461 356 477 c 0
 383 489 393 493 401 511 c 0
 409 527 413 541 413 554 c 0
 413 567 409 580 401 596 c 0
 389 621 375 629 342 640 c 0
 325 645 316 649 306 649 c 0
 299 649 292 647 281 644 c 1x33
121 663 m 0
 110 663 123 639 84 639 c 0
 75 639 63 640 48 643 c 1
 42 644 38 647 34 651 c 0
 23 664 18 677 18 690 c 0
 18 709 28 728 45 742 c 1
 50 745 55 747 61 748 c 1
 160 750 203 753 300 755 c 1
 313 755 326 756 339 756 c 0
 423 756 493 744 562 684 c 0
 600 650 610 612 613 570 c 0
 613 565 614 560 614 555 c 0
 614 520 604 490 583 458 c 0
 542 399 497 367 429 341 c 0
 391 327 360 323 336 323 c 0
 309 323 291 328 284 328 c 0
 283 328 l 1x75
 284 250 285 223 290 156 c 1
 292 158 301 161 314 161 c 0
 336 161 368 152 388 118 c 0
 395 106 398 93 398 81 c 0
 398 56 385 31 363 15 c 1
 359 11 354 10 348 10 c 0xb9
 273 10 226 2 164 2 c 0
 133 2 98 4 53 10 c 1
 46 11 41 13 37 18 c 0
 24 33 18 50 18 66 c 0x79
 18 95 35 123 57 141 c 1
 59 143 61 144 64 145 c 0
 82 154 112 155 114 157 c 1
 115 235 117 287 117 293 c 1
 117 294 l 0x75
 121 357 122 451 122 529 c 0
 122 606 121 663 121 663 c 0
EndSplineSet
Validated: 1
EndChar

StartChar: Q
Encoding: 81 81 348
Width: 759
VWidth: 1080
Flags: HW
LayerCount: 2
Fore
SplineSet
178 410 m 4
 177 396 177 383 177 370 c 4
 177 310 185 269 220 213 c 4
 250 166 273 144 325 128 c 4
 348 121 366 117 384 117 c 4
 405 117 425 123 448 135 c 4
 504 165 517 202 544 268 c 4
 563 317 573 352 573 392 c 4
 573 412 570 434 566 459 c 4
 556 519 544 551 502 591 c 4
 460 630 429 652 382 652 c 4
 377 652 372 651 367 651 c 4
 301 646 265 614 221 556 c 4
 185 509 181 474 178 410 c 4
541 36 m 4
 600 32 653 14 720 -12 c 4
 865 -70 1037 -132 1087 -132 c 4
 1088 -132 1088 -132 1089 -132 c 4
 1118 -131 1173 -101 1208 -101 c 4
 1225 -101 1237 -108 1238 -129 c 4
 1239 -142 1242 -150 1242 -159 c 4
 1242 -169 1238 -179 1224 -195 c 4
 1182 -242 1127 -234 1083 -241 c 4
 1061 -244 1041 -246 1022 -246 c 4
 1003 -246 985 -244 963 -241 c 4
 828 -217 758 -176 637 -126 c 4
 514 -75 363 12 336 19 c 4
 293 30 240 51 231 56 c 4
 136 111 33 170 14 297 c 4
 9 333 6 363 6 390 c 4
 6 457 24 505 69 566 c 4
 150 676 245 743 393 746 c 4
 395 746 398 746 400 746 c 4
 517 746 600 699 666 608 c 4
 709 548 723 491 723 431 c 4
 723 387 715 342 706 293 c 4
 689 208 648 166 599 93 c 4
 586 73 535 47 535 39 c 4
 535 37 537 36 541 36 c 4
EndSplineSet
Validated: 1
EndChar

StartChar: R
Encoding: 82 82 349
Width: 777
VWidth: 1080
Flags: HW
LayerCount: 2
Fore
SplineSet
313 636 m 5
 309 592 307 560 307 531 c 4
 307 500 309 472 314 435 c 5
 316 434 318 433 322 433 c 4
 334 433 356 443 390 456 c 4
 416 466 425 471 433 488 c 4
 443 507 448 523 448 539 c 4
 448 555 443 570 434 589 c 4
 421 613 407 621 374 632 c 4
 357 637 348 641 338 641 c 4
 331 641 324 639 313 636 c 5
478 351 m 5
 516 332 651 230 763 71 c 5
 766 64 768 59 768 54 c 4
 768 48 765 44 757 38 c 4
 727 16 699 7 667 7 c 4
 639 7 608 14 571 27 c 4
 567 28 564 30 561 34 c 4
 552 44 342 321 341 321 c 4
 332 321 321 319 310 319 c 4
 304 319 297 319 290 322 c 5
 291 241 291 269 297 150 c 5
 297 150 306 152 320 152 c 4
 342 152 377 146 396 111 c 4
 401 101 404 91 404 82 c 4
 404 61 392 41 372 26 c 4
 367 23 363 21 358 20 c 4
 299 15 255 8 199 8 c 4
 161 8 118 12 60 21 c 4
 46 23 26 44 26 71 c 4
 26 91 36 113 65 135 c 4
 68 136 70 137 72 139 c 4
 81 143 90 145 98 145 c 4
 107 145 115 143 119 143 c 4
 120 143 l 5
 122 222 125 281 125 287 c 4
 125 288 125 288 125 289 c 4
 129 354 130 446 130 522 c 4
 130 598 129 657 129 657 c 5
 119 656 131 632 92 632 c 4
 83 632 71 634 56 637 c 4
 39 640 26 662 26 687 c 4
 26 705 33 725 52 742 c 4
 57 746 62 748 68 748 c 4
 167 750 209 757 308 757 c 4
 412 757 500 751 586 677 c 4
 618 650 637 606 637 558 c 4
 637 484 592 401 478 351 c 5
EndSplineSet
Validated: 1
EndChar

StartChar: S
Encoding: 83 83 350
Width: 502
VWidth: 1080
Flags: HW
LayerCount: 2
Fore
SplineSet
13 264 m 0
 14 279 31 297 60 297 c 0
 72 297 86 294 102 285 c 0
 185 241 160 157 199 130 c 0
 221 114 239 108 264 108 c 0
 272 108 282 109 292 110 c 0
 327 113 340 115 349 131 c 0
 359 148 364 165 364 182 c 0
 364 207 353 232 333 260 c 0
 301 305 254 295 180 333 c 0
 150 349 100 349 67 398 c 0
 38 442 25 486 25 530 c 0
 25 565 33 601 48 638 c 0
 67 687 101 714 149 732 c 0
 177 743 202 747 226 747 c 0
 265 747 302 736 342 729 c 0
 374 722 422 727 452 683 c 0
 455 679 457 665 457 643 c 0
 457 611 452 560 439 496 c 0
 435 485 431 480 420 477 c 0
 412 475 405 474 399 474 c 0
 316 474 330 619 290 641 c 0
 269 653 253 660 239 660 c 0
 231 660 224 657 217 652 c 0
 189 631 177 602 177 570 c 0
 177 546 184 520 197 495 c 0
 213 466 244 474 297 448 c 0
 339 428 408 436 452 373 c 0
 481 332 493 291 493 249 c 0
 493 209 482 168 465 127 c 0
 443 71 407 37 350 14 c 0
 318 1 290 -4 262 -4 c 0
 226 -4 192 4 155 13 c 0
 101 25 94 33 27 75 c 0
 21 79 17 84 16 92 c 0
 12 129 10 154 10 175 c 0
 10 206 13 227 13 264 c 0
EndSplineSet
Validated: 1
EndChar

StartChar: T
Encoding: 84 84 351
Width: 889
VWidth: 1080
Flags: HW
VStem: 327 148<118.167 607.826> 327 165<110.567 118.167>
LayerCount: 2
Fore
SplineSet
218 28 m 0
 201 31 181 57 181 85 c 0
 181 98 185 110 194 122 c 0
 212 146 240 152 263 152 c 0
 287 152 307 145 307 145 c 1
 307 166 306 185 306 203 c 0
 306 403 334 379 334 512 c 0
 334 544 333 583 329 636 c 1
 311 637 275 644 218 644 c 0
 211 644 205 644 198 644 c 1
 145 614 203 577 108 451 c 0
 107 449 105 448 103 446 c 0
 94 439 85 436 76 436 c 0
 40 436 14 491 7 512 c 0
 6 516 6 520 7 525 c 0
 40 664 14 602 49 712 c 0
 50 716 52 719 55 722 c 0
 82 749 110 746 127 748 c 0
 159 753 188 754 215 754 c 0
 292 754 353 740 438 740 c 0
 517 740 575 757 646 757 c 0
 673 757 701 755 733 748 c 0
 758 743 774 732 781 725 c 0
 839 666 795 709 871 539 c 0
 872 537 872 534 872 531 c 0
 872 508 844 464 799 464 c 0
 794 464 788 465 783 466 c 0
 776 467 772 470 768 475 c 0
 662 614 708 635 667 652 c 1
 620 642 542 633 506 631 c 1
 506 539 489 468 489 370 c 0
 489 303 496 224 523 117 c 0
 524 113 526 112 530 112 c 0
 539 112 555 123 569 123 c 0
 576 123 582 121 587 114 c 0
 597 100 603 83 603 66 c 0
 603 44 594 22 574 6 c 0
 569 2 564 1 558 1 c 0
 436 1 372 1 218 28 c 0
EndSplineSet
Validated: 1
EndChar

StartChar: U
Encoding: 85 85 352
Width: 832
VWidth: 1080
Flags: HW
LayerCount: 2
Fore
SplineSet
302 654 m 1
 297 525 286 486 286 427 c 0
 286 387 291 337 306 243 c 1
 329 192 355 155 409 147 c 0
 417 146 426 145 434 145 c 0
 503 145 561 188 594 232 c 1
 607 348 610 389 610 417 c 0
 610 442 608 458 608 507 c 0
 608 538 609 581 612 648 c 1
 608 644 593 639 577 639 c 0
 556 639 532 646 521 667 c 0
 517 676 515 684 515 691 c 0
 515 722 544 746 565 757 c 0
 569 759 573 761 578 761 c 0
 638 762 660 762 672 762 c 0
 692 762 687 761 767 758 c 0
 783 757 821 727 821 691 c 0
 821 683 818 674 813 665 c 0
 803 650 782 643 766 643 c 0
 758 643 752 645 749 647 c 1
 747 610 746 582 746 559 c 0
 746 503 751 474 751 409 c 0
 751 356 747 278 736 140 c 0
 736 137 735 134 733 131 c 0
 704 78 659 57 606 39 c 0
 534 14 472 0 407 0 c 0
 359 0 309 8 254 25 c 0
 184 46 162 93 118 126 c 0
 113 131 110 136 109 143 c 0
 99 299 94 429 94 521 c 0
 94 581 96 624 100 647 c 1
 89 644 66 616 42 616 c 0
 35 616 27 618 20 625 c 0
 9 636 3 651 3 668 c 0
 3 701 25 739 72 754 c 0
 74 754 77 755 79 755 c 0
 191 759 226 763 252 763 c 0
 280 763 298 758 391 746 c 0
 407 744 438 712 438 679 c 0
 438 667 434 654 424 643 c 0
 411 628 395 623 378 623 c 0
 342 623 305 647 302 654 c 1
EndSplineSet
Validated: 1
EndChar

StartChar: V
Encoding: 86 86 353
Width: 706
VWidth: 1080
Flags: HW
LayerCount: 2
Fore
SplineSet
229 684 m 1
 298 513 310 489 360 252 c 1
 499 471 436 497 547 673 c 0
 547 674 l 0
 547 675 546 675 545 675 c 0
 537 675 513 668 490 668 c 0
 475 668 461 671 454 683 c 0
 449 691 447 699 447 706 c 0
 447 722 456 737 468 746 c 0
 472 749 480 752 505 752 c 0
 533 752 580 749 665 743 c 0
 674 741 680 738 685 731 c 0
 691 722 693 713 693 706 c 0
 693 674 656 653 652 644 c 0
 541 413 519 308 385 36 c 0
 373 13 343 1 315 1 c 0
 286 1 259 13 253 41 c 0
 194 281 159 359 82 628 c 0
 82 629 81 629 79 629 c 0
 77 629 74 629 70 629 c 0
 56 629 34 632 20 660 c 0
 16 668 14 677 14 685 c 0
 14 702 21 718 36 729 c 0
 40 733 44 734 49 735 c 0
 140 745 157 750 186 750 c 0
 209 750 238 747 310 743 c 0
 326 741 343 722 343 701 c 0
 343 695 341 688 337 682 c 0
 331 672 319 669 305 669 c 0
 275 669 236 684 229 684 c 1
EndSplineSet
Validated: 1
EndChar

StartChar: W
Encoding: 87 87 354
Width: 1079
VWidth: 1080
Flags: HW
LayerCount: 2
Fore
SplineSet
229 678 m 1
 309 479 321 470 380 265 c 1
 418 330 484 514 486 519 c 1
 451 618 l 1
 451 618 447 617 441 617 c 0
 427 617 403 622 387 654 c 0
 383 662 381 671 381 679 c 0
 381 696 388 712 403 723 c 0
 408 727 413 729 419 729 c 0
 441 729 459 728 474 728 c 0
 537 728 556 731 594 731 c 0
 620 731 653 730 714 726 c 0
 730 725 747 706 747 685 c 0
 747 678 745 671 741 665 c 0
 728 645 691 630 673 630 c 1
 664 629 642 626 642 614 c 0
 642 614 642 613 642 612 c 0
 662 515 711 410 747 265 c 1
 871 454 869 468 913 669 c 1
 912 669 912 669 911 669 c 0
 901 669 875 662 855 662 c 0
 841 662 828 666 821 677 c 0
 816 685 814 693 814 700 c 0
 814 716 823 731 835 740 c 0
 839 743 847 746 872 746 c 0
 900 746 947 743 1032 737 c 0
 1041 735 1047 732 1052 725 c 0
 1058 716 1060 707 1060 700 c 0
 1060 668 1023 647 1019 638 c 0
 906 407 886 302 752 30 c 0
 744 14 724 5 704 5 c 0
 684 5 665 14 660 35 c 0
 592 309 552 395 552 395 c 1
 540 363 516 297 385 30 c 0
 377 14 358 6 339 6 c 0
 320 6 302 14 297 35 c 0
 236 276 217 357 126 622 c 0
 125 624 123 625 119 625 c 0
 111 625 97 622 81 622 c 0
 60 622 36 627 21 653 c 0
 16 662 14 671 14 679 c 0
 14 696 22 712 36 723 c 0
 40 727 44 728 49 729 c 0
 140 739 157 744 186 744 c 0
 209 744 238 741 310 737 c 0
 326 735 343 716 343 695 c 0
 343 689 341 682 337 676 c 0
 331 666 319 663 305 663 c 0
 275 663 236 678 229 678 c 1
EndSplineSet
Validated: 1
EndChar

StartChar: X
Encoding: 88 88 355
Width: 847
VWidth: 1080
Flags: HW
HStem: 11.2998 154.056<703.555 816.093> 16.0498 103.95<296.988 341.479> 16.2793 127.966<53.3102 170.441> 618.753 118.042<34.7051 193.039> 644 83.515<368.535 432.515> 671.645 73.055<566.834 606.98>
LayerCount: 2
Fore
SplineSet
150 144 m 1
 278 280 280 286 364 365 c 0
 367 368 366 378 360 392 c 1
 194 583 180 619 180 619 c 1
 180 619 180 619 179 619 c 0
 175 619 146 606 111 606 c 0
 92 606 73 609 54 620 c 0
 39 629 15 647 15 673 c 0
 15 678 16 682 17 687 c 0
 24 714 45 729 97 737 c 0
 164 747 209 754 253 754 c 0
 298 754 342 747 409 728 c 0x08
 423 724 438 704 438 683 c 0
 438 673 435 664 428 655 c 0
 417 641 415 637 410 637 c 0
 404 637 395 642 368 644 c 1
 403 592 417 585 468 516 c 1
 477 525 600 663 609 672 c 1x84
 593 664 583 660 576 660 c 0
 565 660 564 670 560 682 c 0
 558 687 558 692 558 696 c 0
 558 717 573 734 589 742 c 0
 593 744 597 745 601 745 c 0
 662 745 684 749 702 749 c 0
 722 749 737 744 797 724 c 0
 811 719 820 702 820 683 c 0
 820 666 814 648 797 635 c 0
 784 625 773 620 764 620 c 0
 754 620 748 626 744 634 c 1
 668 552 655 537 555 420 c 1
 634 295 638 269 717 165 c 1
 720 164 723 164 726 164 c 0
 735 164 747 166 760 166 c 0
 779 166 800 162 820 140 c 0
 836 122 841 103 841 86 c 0
 841 66 835 47 835 35 c 1
 832 18 828 12 810 11 c 0
 784 11 763 10 746 10 c 0
 615 10 670 19 530 19 c 1
 512 22 507 25 505 43 c 0
 504 54 497 67 497 85 c 0
 497 94 499 105 504 117 c 0
 521 159 525 134 532 127 c 1
 493 198 475 205 441 277 c 1x40
 397 208 387 201 338 150 c 1
 338 150 302 138 296 120 c 1
 302 119 308 119 313 119 c 0
 330 119 342 122 351 122 c 0
 360 122 366 119 371 105 c 0
 373 99 375 93 375 88 c 0
 375 53 331 32 327 27 c 0
 321 19 315 16 306 16 c 0
 240 16 211 10 169 10 c 0
 148 10 123 12 89 16 c 0x30
 82 17 77 20 72 25 c 0
 67 31 25 47 25 89 c 0
 25 129 63 143 82 151 c 0
 93 156 103 157 111 157 c 0
 135 157 147 144 150 144 c 1
EndSplineSet
Validated: 1
EndChar

StartChar: Y
Encoding: 89 89 356
Width: 788
VWidth: 1080
Flags: HW
LayerCount: 2
Fore
SplineSet
207 13 m 0
 190 15 177 34 177 57 c 0
 177 74 183 93 200 108 c 0
 215 121 230 126 244 126 c 0
 266 126 283 115 287 109 c 1
 294 188 295 215 295 305 c 1
 213 476 180 474 94 620 c 1
 93 610 84 603 71 603 c 0
 60 603 48 608 35 619 c 0
 18 635 7 659 7 682 c 0
 7 699 12 716 25 731 c 0
 30 737 35 739 42 740 c 0
 119 746 148 748 165 748 c 0
 183 748 188 746 222 746 c 0
 243 746 275 747 327 749 c 0
 327 749 327 749 328 749 c 0
 347 749 374 719 374 687 c 0
 374 678 372 669 367 660 c 0
 359 648 341 639 323 639 c 0
 310 639 297 643 287 653 c 1
 356 494 369 491 395 407 c 1
 530 626 l 1
 525 622 517 620 508 620 c 0
 492 620 471 630 459 664 c 0
 456 671 455 678 455 685 c 0
 455 712 475 734 494 745 c 0
 497 747 501 749 505 749 c 0
 584 754 594 757 609 757 c 0
 624 757 642 754 739 749 c 0
 758 748 777 722 777 693 c 0
 777 681 774 669 766 658 c 0
 751 636 730 631 710 631 c 0
 687 631 666 639 657 639 c 0
 656 639 655 638 654 638 c 1
 580 504 554 434 457 305 c 1
 456 297 456 290 456 283 c 0
 456 234 470 216 470 178 c 0
 470 158 466 133 455 95 c 0
 455 94 454 93 454 93 c 0
 454 91 455 91 456 91 c 0
 461 91 484 110 504 110 c 0
 511 110 518 107 524 102 c 0
 536 92 546 74 546 56 c 0
 546 46 543 36 536 26 c 0
 531 20 526 17 518 16 c 0
 428 7 395 3 358 3 c 0
 325 3 290 6 207 13 c 0
EndSplineSet
Validated: 1
EndChar

StartChar: Z
Encoding: 90 90 357
Width: 798
VWidth: 1080
Flags: HW
HStem: 26 59<273 580> 691 34<113 540>
LayerCount: 2
Fore
SplineSet
283 110 m 5
 575 110 l 5
 606 123 625 144 653 188 c 4
 674 220 653 226 693 310 c 4
 699 322 711 327 724 327 c 4
 751 327 784 306 784 282 c 4
 784 213 777 182 756 128 c 4
 740 86 733 34 677 4 c 4
 673 2 669 1 665 1 c 4
 406 1 475 14 215 14 c 5
 203 12 174 -18 138 -18 c 4
 126 -18 113 -15 99 -6 c 4
 76 9 71 31 71 51 c 4
 71 66 73 81 73 90 c 4
 73 92 73 94 73 96 c 4
 72 103 73 109 78 115 c 4
 359 495 300 413 530 666 c 5
 262 666 l 5
 245 660 230 648 209 624 c 4
 173 582 174 561 135 491 c 4
 129 481 102 468 74 468 c 4
 52 468 29 476 15 499 c 4
 11 505 10 511 12 518 c 4
 40 629 34 629 91 737 c 4
 97 746 102 750 113 750 c 4
 144 750 172 750 197 750 c 4
 649 750 169 742 711 742 c 4
 722 741 728 738 733 729 c 4
 737 722 739 715 739 709 c 4
 739 689 719 675 713 667 c 4
 493 399 501 415 283 110 c 5
EndSplineSet
Validated: 1
EndChar

StartChar: backslash
Encoding: 92 92 359
Width: 823
VWidth: 1080
Flags: HW
LayerCount: 2
Fore
SplineSet
690 152 m 0
 691 152 699 163 722 163 c 0
 731 163 741 162 752 157 c 0
 773 149 807 135 809 97 c 0
 809 96 809 94 809 93 c 0
 809 52 767 37 762 31 c 0
 758 26 753 23 746 22 c 1
 711 18 687 16 665 16 c 0
 623 16 594 22 528 22 c 0
 519 22 514 25 508 32 c 1
 504 38 460 60 460 95 c 0
 460 100 461 105 463 111 c 0
 469 125 474 129 481 129 c 0
 488 129 496 126 508 126 c 0
 509 126 510 126 512 126 c 0
 525 126 502 128 498 141 c 1
 412 261 394 273 296 392 c 0
 208 499 199 514 90 640 c 1
 86 633 78 628 68 628 c 0
 60 628 49 632 37 642 c 0
 23 654 14 671 14 689 c 0
 14 700 17 712 25 722 c 0
 29 726 32 729 37 731 c 1
 96 750 112 755 131 755 c 0
 149 755 171 751 233 751 c 0
 238 751 241 750 245 748 c 1
 261 740 277 724 277 702 c 0
 277 697 276 692 274 687 c 0
 270 676 269 672 260 672 c 0
 254 672 243 674 226 678 c 1
 262 606 232 633 376 489 c 0
 495 368 544 328 690 152 c 0
EndSplineSet
Validated: 1
EndChar

StartChar: bracketright
Encoding: 93 93 360
Width: 262
Flags: HW
LayerCount: 2
Fore
SplineSet
14 708 m 0
 14 735 45 756 81 756 c 0
 101 756 121 751 135 749 c 0
 137 749 157 752 179 752 c 0
 212 752 250 746 250 721 c 0
 250 714 247 706 241 696 c 1
 240 673 240 651 240 630 c 0
 240 544 245 464 245 315 c 0
 245 279 243 178 243 42 c 1
 242 30 238 24 227 20 c 0
 204 11 196 8 187 8 c 0
 178 8 168 11 140 14 c 0
 134 14 116 -1 92 -1 c 0
 65 -1 34 19 34 50 c 0
 34 66 43 98 90 98 c 2
 99 98 l 2
 102 98 104 98 104 99 c 0
 119 118 122 134 122 153 c 0
 122 170 120 190 120 216 c 0
 129 374 l 0
 132 433 130 467 137 529 c 0
 140 561 143 584 143 601 c 0
 143 644 129 653 84 676 c 1
 81 676 70 669 56 669 c 0
 37 669 14 685 14 708 c 0
EndSplineSet
Validated: 1
EndChar

StartChar: asciicircum
Encoding: 94 94 361
Width: 366
VWidth: 1080
Flags: HW
LayerCount: 2
Fore
SplineSet
186 536 m 1
 184 524 174 485 169 455 c 0
 165 432 130 422 92 422 c 0
 49 422 4 436 4 462 c 0
 4 465 5 468 6 471 c 0
 34 544 53 583 114 701 c 0
 116 706 120 709 125 711 c 0
 151 724 178 739 208 739 c 0
 223 739 239 735 255 726 c 0
 258 724 261 722 263 718 c 0
 309 650 310 616 330 559 c 0
 342 525 352 494 360 463 c 0
 361 460 361 458 361 455 c 0
 361 432 328 421 294 421 c 0
 258 421 220 433 220 454 c 0
 220 484 202 525 186 536 c 1
EndSplineSet
Validated: 1
EndChar

StartChar: grave
Encoding: 96 96 363
Width: 296
VWidth: 1080
Flags: HW
LayerCount: 2
Fore
SplineSet
38 705 m 0
 60 722 87 734 117 734 c 0
 133 734 151 730 168 720 c 1
 172 718 174 716 177 712 c 0
 223 644 224 610 244 553 c 0
 256 519 266 488 274 457 c 0
 275 454 275 451 275 448 c 0
 275 421 235 409 196 409 c 0
 166 409 136 416 126 431 c 0
 101 468 67 645 38 661 c 1
 27 675 21 681 21 687 c 0
 21 692 26 696 38 705 c 0
EndSplineSet
Validated: 1
EndChar

StartChar: a
Encoding: 97 97 364
Width: 480
VWidth: 1000
Flags: HW
LayerCount: 2
Fore
SplineSet
232 168 m 0
 248 187 253 202 253 214 c 0
 253 231 243 241 243 242 c 2
 243 242 229 242 194 220 c 0
 194 219 153 198 153 181 c 2
 153 180 l 1
 154 154 157 131 166 131 c 0
 168 131 169 132 171 133 c 0
 177 137 164 135 185 143 c 0
 212 154 221 155 232 168 c 0
10 139 m 0
 10 161 14 185 23 208 c 0
 53 286 173 340 219 340 c 0
 221 340 222 340 223 340 c 0
 224 340 225 340 226 340 c 0
 232 340 243 343 243 380 c 0
 243 407 235 437 230 441 c 1
 165 441 176 410 173 372 c 0
 169 332 131 309 95 309 c 0
 68 309 23 324 23 386 c 0
 23 428 45 476 75 502 c 0
 98 521 134 547 232 547 c 0
 257 547 284 544 310 525 c 0
 388 471 370 382 375 257 c 0
 375 249 375 241 375 234 c 0
 375 221 375 210 375 199 c 0
 375 189 375 180 376 169 c 1
 387 180 404 192 421 192 c 0
 441 192 462 176 462 149 c 0
 462 137 458 126 458 123 c 0
 456 95 458 61 427 31 c 0
 405 10 380 14 367 13 c 0
 360 13 354 12 349 12 c 0
 280 12 273 44 264 53 c 1
 255 69 l 1
 253 69 241 52 214 36 c 0
 207 32 187 5 122 5 c 0
 53 5 10 62 10 139 c 0
EndSplineSet
Validated: 1
EndChar

StartChar: b
Encoding: 98 98 365
Width: 533
VWidth: 1000
Flags: HW
LayerCount: 2
Fore
SplineSet
288 426 m 0
 288 426 276 436 258 436 c 0
 241 436 220 427 200 395 c 0
 183 367 179 343 179 312 c 0
 179 297 180 281 181 261 c 0
 183 209 188 185 213 141 c 0
 227 116 230 109 248 104 c 0
 254 102 258 101 262 101 c 0
 268 101 274 103 283 108 c 0
 325 131 340 154 362 202 c 0
 374 227 380 243 380 264 c 0
 380 271 379 279 378 287 c 0
 372 335 357 357 323 398 c 0
 309 415 306 418 288 426 c 0
92 844 m 0
 99 849 106 851 113 851 c 0
 148 851 174 792 175 781 c 0
 178 714 179 657 179 609 c 0
 179 567 178 531 177 499 c 1
 188 514 167 524 214 534 c 0
 240 538 290 556 332 556 c 0
 346 556 359 554 370 549 c 0
 431 521 454 476 479 425 c 0
 504 376 514 318 514 265 c 0
 514 225 508 189 498 161 c 0
 487 130 473 110 453 86 c 0
 437 67 422 25 372 19 c 0
 326 13 266 7 209 7 c 0
 143 7 82 16 56 47 c 0
 52 51 50 56 50 62 c 0
 43 173 41 293 41 400 c 0
 41 528 44 637 47 687 c 1
 45 684 39 683 31 683 c 0
 12 683 -18 692 -18 716 c 0
 -18 722 -16 729 -12 736 c 0
 10 779 38 807 92 844 c 0
EndSplineSet
Validated: 1
EndChar

StartChar: c
Encoding: 99 99 366
Width: 453
VWidth: 1000
Flags: HW
LayerCount: 2
Fore
SplineSet
368 349 m 0
 367 349 365 349 364 349 c 0
 326 349 310 386 305 390 c 0
 281 407 277 417 266 420 c 0
 258 422 251 422 245 422 c 0
 231 422 221 419 206 409 c 0
 190 399 187 392 177 366 c 0
 163 328 156 304 156 274 c 0
 156 261 157 247 160 230 c 0
 166 189 172 171 197 147 c 0
 210 135 219 135 246 131 c 0
 258 129 266 128 273 128 c 0
 280 128 285 130 292 134 c 0
 309 143 310 150 320 177 c 0
 328 200 346 210 365 210 c 0
 393 210 421 189 421 158 c 0
 421 157 421 156 421 155 c 0
 418 105 416 92 398 67 c 0
 364 21 301 15 268 15 c 0
 256 15 248 16 247 16 c 0
 243 16 234 15 222 15 c 0
 191 15 138 21 92 65 c 0
 56 99 32 131 21 180 c 0
 14 208 11 233 11 259 c 0
 11 287 15 315 24 346 c 0
 41 404 59 450 111 490 c 0
 158 526 202 539 258 539 c 0
 262 539 266 539 270 539 c 0
 310 537 343 534 384 494 c 0
 411 467 422 439 422 415 c 0
 422 379 398 351 368 349 c 0
EndSplineSet
Validated: 1
EndChar

StartChar: d
Encoding: 100 100 367
Width: 507
VWidth: 1000
Flags: HW
LayerCount: 2
Fore
SplineSet
271 437 m 0
 270 437 269 437 269 437 c 0
 254 437 225 421 208 399 c 0
 175 358 159 337 153 291 c 0
 151 280 150 270 150 262 c 0
 150 243 155 229 167 210 c 0
 186 180 204 171 243 156 c 0
 255 151 265 149 272 149 c 0
 290 149 298 162 315 188 c 0
 336 222 342 239 345 277 c 0
 346 292 347 305 347 317 c 0
 347 345 342 366 325 394 c 0
 308 421 297 431 271 437 c 0
326 541 m 1
 326 557 325 572 325 589 c 0
 325 622 326 663 329 728 c 0
 329 731 333 739 331 737 c 0
 318 722 299 709 286 709 c 0
 279 709 273 713 271 721 c 0
 270 726 269 731 269 736 c 0
 269 775 306 822 332 839 c 0
 341 845 352 847 364 847 c 0
 403 847 450 818 450 790 c 0
 450 786 449 781 446 777 c 1
 450 704 455 529 455 260 c 0
 455 223 455 184 455 144 c 1
 457 145 458 146 460 146 c 0
 472 146 488 120 488 98 c 0
 488 95 488 91 488 87 c 0
 488 68 485 35 453 21 c 0
 445 17 437 16 430 16 c 0
 415 16 403 21 402 21 c 0
 401 21 400 21 399 21 c 0
 365 21 342 72 338 72 c 0
 337 72 337 71 337 70 c 0
 335 43 253 17 186 17 c 0
 177 17 169 17 161 18 c 0
 112 24 97 65 81 85 c 0
 48 125 21 171 21 250 c 0
 21 252 21 255 21 258 c 0
 22 298 24 446 158 536 c 0
 188 556 214 562 238 562 c 0
 272 562 300 549 326 541 c 1
EndSplineSet
Validated: 1
EndChar

StartChar: e
Encoding: 101 101 368
Width: 427
VWidth: 1000
Flags: HW
HStem: 13.7326 127.625<190.555 298.938> 285.892 7.10803<143.3 144> 430.914 105.484<199.916 281.229>
VStem: 16.8477 127.152<228.234 292.996> 282.271 122.017<373.495 427.941> 304 101.078<141.997 199.282>
LayerCount: 2
Fore
SplineSet
144 293 m 1xf8
 144 291 161 255 166 230 c 0
 172 192 176 175 198 156 c 0
 209 146 219 147 246 144 c 0
 262 143 272 141 279 141 c 0
 296 141 294 149 304 177 c 0
 312 200 331 210 350 210 c 0
 377 210 405 190 405 159 c 0xf4
 405 158 405 157 405 156 c 0
 402 102 399 95 385 69 c 0
 358 22 315 14 286 14 c 0
 270 14 258 16 253 16 c 0
 249 16 241 15 228 15 c 0
 197 15 145 21 98 65 c 0
 62 99 38 131 27 180 c 0
 20 208 17 233 17 259 c 0
 17 287 21 315 30 346 c 0
 47 404 65 450 117 490 c 0
 159 522 200 536 249 536 c 0
 258 536 267 536 277 535 c 0
 316 531 357 524 381 476 c 0
 397 444 404 419 404 395 c 0
 404 375 400 356 392 335 c 0
 386 319 372 292 342 290 c 0
 338 290 271 286 215 286 c 0
 180 286 150 288 144 293 c 1xf8
179 378 m 1
 181 378 183 378 185 378 c 0
 208 378 243 374 267 370 c 1
 267 372 266 374 266 376 c 0
 266 393 282 420 282 425 c 0xf8
 282 426 282 426 282 426 c 0
 278 429 270 431 260 431 c 0
 243 431 220 426 202 414 c 0
 192 407 185 389 179 378 c 1
EndSplineSet
Validated: 1
EndChar

StartChar: f
Encoding: 102 102 369
Width: 349
VWidth: 1000
Flags: HW
VStem: 70 93<94.5219 277.665>
LayerCount: 2
Fore
SplineSet
217 489 m 1
 223 494 238 504 256 504 c 0
 271 504 289 497 307 475 c 0
 317 462 321 448 321 435 c 0
 321 411 309 387 292 372 c 0
 276 358 263 354 251 354 c 0
 238 354 228 359 218 360 c 1
 217 348 213 346 213 255 c 0
 213 220 214 171 215 102 c 1
 215 101 l 0
 215 114 220 120 227 120 c 0
 235 120 246 112 256 99 c 1
 257 98 l 0
 268 82 271 67 271 55 c 0
 271 35 262 20 256 12 c 1
 251 5 245 2 236 2 c 0
 228 2 60 2 48 2 c 1
 42 2 37 4 32 8 c 0
 16 21 9 39 9 56 c 0
 9 70 13 84 20 95 c 1
 30 112 44 121 55 121 c 0
 61 121 66 118 68 113 c 1
 70 172 71 199 71 228 c 0
 71 235 71 242 71 249 c 0
 71 272 71 301 72 348 c 1
 72 349 62 347 38 376 c 1
 36 378 35 379 35 381 c 0
 30 389 25 403 25 419 c 0
 25 426 26 433 28 440 c 0
 39 480 70 491 73 497 c 1
 75 507 75 516 75 524 c 0
 75 540 73 555 73 571 c 0
 73 593 77 617 94 649 c 1
 117 699 148 725 192 753 c 0
 222 772 246 776 275 781 c 0
 284 783 293 784 303 784 c 0
 312 784 322 783 332 780 c 0
 364 771 412 765 433 715 c 0
 437 706 439 697 439 688 c 0
 439 669 431 651 414 638 c 0
 403 629 391 626 381 626 c 0
 367 626 355 632 347 634 c 0
 314 643 307 659 300 660 c 0
 290 662 283 662 276 662 c 0
 266 662 259 660 251 654 c 0
 235 642 234 631 225 600 c 0
 216 568 214 544 214 528 c 0
 214 509 217 498 217 491 c 0
 217 490 217 490 217 489 c 1
EndSplineSet
Validated: 1
EndChar

StartChar: g
Encoding: 103 103 370
Width: 551
VWidth: 1000
Flags: HW
HStem: 452 20G<111 146>
LayerCount: 2
Fore
SplineSet
301 12 m 0
 293 14 286 16 279 16 c 0
 261 16 244 7 220 -9 c 0
 186 -30 172 -40 172 -58 c 0
 172 -59 172 -59 172 -60 c 0
 173 -79 189 -90 225 -105 c 0
 238 -110 248 -113 259 -113 c 0
 272 -113 285 -109 305 -105 c 0
 340 -97 361 -94 361 -74 c 0
 361 -67 358 -57 352 -44 c 0
 337 -10 327 4 301 12 c 0
277 403 m 0
 266 435 256 451 242 451 c 0
 231 451 218 441 199 423 c 0
 180 404 174 393 172 365 c 0
 172 361 172 358 172 355 c 0
 172 336 177 325 192 303 c 0
 212 276 220 266 232 266 c 0
 233 266 234 266 235 266 c 0
 256 268 264 287 277 327 c 0
 282 342 285 354 285 366 c 0
 285 377 282 388 277 403 c 0
113 195 m 1
 112 195 109 202 100 220 c 0
 85 248 49 262 34 315 c 0
 32 324 31 332 31 340 c 0
 31 360 37 376 40 390 c 0
 50 437 81 457 81 476 c 0
 81 479 80 483 78 486 c 0
 75 489 48 494 48 525 c 0
 48 530 49 537 51 545 c 0
 55 556 60 561 71 563 c 0
 76 564 81 564 85 564 c 0
 119 564 132 542 143 542 c 0
 172 542 198 575 256 575 c 0
 270 575 285 573 303 568 c 0
 354 555 365 532 391 531 c 0
 406 531 417 563 450 563 c 0
 455 563 461 562 467 560 c 0
 468 560 l 0
 473 560 488 565 503 565 c 0
 520 565 537 559 540 532 c 0
 542 518 544 503 544 488 c 0
 544 468 541 447 530 425 c 0
 521 409 506 378 474 378 c 0
 464 378 453 381 440 387 c 1
 442 375 442 361 442 344 c 0
 442 341 442 338 442 334 c 0
 442 330 442 325 442 321 c 0
 442 296 440 268 419 241 c 0
 378 187 324 190 287 170 c 0
 280 166 223 156 221 142 c 0
 220 141 222 137 240 129 c 0
 248 125 257 124 265 124 c 0
 286 124 309 133 341 133 c 0
 352 133 364 132 378 129 c 0
 413 121 530 103 530 -24 c 0
 530 -26 530 -28 530 -30 c 0
 529 -65 518 -92 497 -119 c 0
 453 -173 411 -193 352 -219 c 0
 302 -241 265 -247 212 -249 c 0
 203 -249 194 -250 187 -250 c 0
 123 -250 94 -234 54 -176 c 0
 35 -147 2 -116 2 -69 c 0
 2 -63 3 -56 4 -49 c 0
 13 -6 49 5 66 18 c 0
 83 31 99 36 111 39 c 1
 95 52 52 63 50 110 c 0
 50 115 51 119 53 123 c 0
 84 179 97 174 113 195 c 1
EndSplineSet
Validated: 1
EndChar

StartChar: h
Encoding: 104 104 371
Width: 539
VWidth: 1000
Flags: HW
VStem: 102 86<165.383 333 451 646>
LayerCount: 2
Fore
SplineSet
113 644 m 1
 112 643 111 643 108 643 c 0
 100 643 81 649 65 663 c 0
 62 667 34 684 34 711 c 0
 34 715 34 718 35 722 c 0
 46 766 96 766 111 770 c 0
 129 773 153 782 177 782 c 0
 198 782 219 776 238 756 c 0
 242 752 245 747 245 740 c 0
 248 670 250 616 250 577 c 0
 250 538 248 514 248 501 c 1
 282 513 306 529 337 529 c 0
 362 529 391 518 433 485 c 0
 459 464 472 440 482 411 c 0
 500 354 506 309 506 270 c 0
 506 211 493 164 493 108 c 0
 493 106 493 104 493 101 c 1
 493 102 494 102 494 102 c 0
 500 102 523 69 523 38 c 0
 523 26 520 14 511 4 c 0
 505 -2 499 -4 491 -4 c 0
 477 -3 470 -3 464 -3 c 0
 454 -3 446 -4 415 -4 c 0
 396 -4 369 -4 326 -3 c 0
 319 -3 324 -1 319 4 c 0
 307 16 302 30 302 44 c 0
 302 60 308 76 317 87 c 1
 326 102 343 111 351 111 c 0
 353 111 354 111 355 110 c 1
 363 159 373 183 373 230 c 0
 373 253 370 282 364 323 c 0
 360 349 347 362 315 378 c 0
 308 382 303 383 298 383 c 0
 292 383 286 382 275 379 c 0
 250 372 250 378 249 374 c 0
 242 336 239 303 239 274 c 0
 239 217 249 174 249 126 c 0
 249 124 249 123 249 121 c 1
 260 108 285 79 285 47 c 0
 285 34 281 20 269 7 c 0
 260 -2 269 -3 91 -3 c 0
 80 -3 53 22 53 54 c 0
 53 63 55 73 60 82 c 0
 74 109 94 118 107 118 c 0
 112 118 116 116 118 114 c 1
 113 235 112 288 112 351 c 0
 112 414 113 486 113 644 c 1
EndSplineSet
Validated: 1
EndChar

StartChar: k
Encoding: 107 107 374
Width: 609
VWidth: 1000
Flags: HW
VStem: 81 90<274 647.195> 81 104<57 197>
LayerCount: 2
Fore
SplineSet
332 389 m 1
 331 389 329 389 327 389 c 0
 306 389 265 404 262 439 c 0
 262 440 262 441 262 443 c 0
 262 474 286 492 304 502 c 0
 313 507 306 502 519 517 c 0
 520 517 l 0
 544 517 566 484 566 457 c 0
 566 446 562 436 553 430 c 0
 414 332 406 332 337 277 c 1
 421 199 445 198 578 79 c 0
 584 72 586 67 586 58 c 2
 584 34 l 1
 581 20 577 14 564 11 c 0
 529 4 502 2 476 2 c 0
 436 2 398 7 335 7 c 0
 327 7 322 9 317 15 c 0
 308 24 304 34 304 44 c 0
 304 62 318 81 338 97 c 1
 263 137 306 112 247 167 c 1
 244 97 l 1
 253 97 272 88 281 73 c 0
 286 67 291 56 291 45 c 0
 291 35 287 25 279 16 c 0
 266 4 198 1 143 1 c 0
 111 1 83 2 75 2 c 0
 58 3 43 19 43 42 c 0
 43 52 47 63 54 74 c 0
 63 90 83 100 91 100 c 0
 92 100 l 1
 91 183 91 239 91 281 c 0
 91 365 92 395 92 482 c 0
 92 525 92 582 91 668 c 1
 84 663 77 660 70 660 c 0
 58 660 47 667 39 677 c 0
 29 689 24 704 24 718 c 0
 24 726 26 733 28 740 c 0
 31 746 34 750 39 753 c 0
 50 761 85 792 150 792 c 0
 153 792 157 792 161 792 c 0
 162 792 164 792 165 792 c 0
 170 792 176 792 181 792 c 0
 202 792 228 789 247 764 c 0
 255 752 259 740 259 729 c 0
 259 716 254 703 249 693 c 0
 244 682 235 672 230 669 c 1
 233 574 234 556 234 517 c 0
 234 484 233 436 232 311 c 1
 247 322 252 323 256 323 c 0
 257 323 257 323 258 323 c 0
 264 323 271 325 332 389 c 1
EndSplineSet
Validated: 1
EndChar

StartChar: l
Encoding: 108 108 375
Width: 335
VWidth: 1000
Flags: HW
VStem: 100 115<89 716>
LayerCount: 2
Fore
SplineSet
94 126 m 0
 93 612 l 1
 76 612 33 621 12 651 c 0
 9 657 7 663 8 669 c 2
 14 708 l 2
 20 743 67 769 72 772 c 0
 91 781 110 784 129 784 c 0
 166 784 203 771 241 758 c 1
 253 752 257 747 258 734 c 1
 257 121 l 1
 279 120 289 105 304 81 c 1
 310 73 312 62 312 52 c 0
 312 37 308 23 307 22 c 0
 303 8 298 4 284 2 c 1
 58 -3 l 1
 32 -2 23 27 23 54 c 0
 23 73 27 91 34 97 c 0
 52 114 94 126 94 126 c 0
EndSplineSet
Validated: 1
EndChar

StartChar: m
Encoding: 109 109 376
Width: 780
VWidth: 1000
Flags: HW
VStem: 51 106<119 331> 558 98<137 174.092 137 348> 559 97<123 137>
LayerCount: 2
Fore
SplineSet
751 142 m 0
 760 123 768 104 768 81 c 0
 768 73 767 64 764 54 c 0
 759 35 746 21 728 12 c 1
 725 10 722 9 718 9 c 0
 695 8 686 8 676 8 c 0
 662 8 645 8 585 9 c 1
 581 9 577 10 574 12 c 0
 558 19 550 32 545 46 c 0
 540 59 535 74 535 91 c 0
 535 99 536 107 539 115 c 0
 543 128 561 158 571 158 c 0
 573 158 575 157 576 154 c 1
 576 226 577 219 577 238 c 0
 577 253 576 282 575 372 c 1
 574 374 569 383 559 391 c 0
 544 401 538 403 521 404 c 0
 519 404 517 404 515 404 c 0
 506 404 501 402 489 394 c 0
 473 385 464 373 463 372 c 1
 466 321 466 290 466 268 c 0
 466 234 464 223 464 189 c 0
 464 179 465 167 465 152 c 1
 466 164 470 169 474 169 c 0
 481 169 490 158 499 147 c 0
 514 129 520 108 520 88 c 0
 520 77 518 66 515 55 c 0
 510 37 498 21 480 12 c 1
 477 10 474 9 470 9 c 0
 447 8 434 8 419 8 c 0
 399 8 374 8 315 9 c 1
 311 9 307 10 304 12 c 0
 288 19 283 33 278 46 c 0
 273 58 266 73 266 90 c 0
 266 99 268 108 272 117 c 0
 285 145 301 156 312 156 c 0
 316 156 319 154 321 152 c 1
 320 215 319 239 319 254 c 0
 319 276 320 275 321 357 c 1
 319 368 319 373 315 377 c 0
 309 384 306 386 293 387 c 0
 290 387 287 388 285 388 c 0
 274 388 266 384 251 375 c 0
 233 365 226 356 224 351 c 1
 223 312 223 291 223 275 c 0
 223 244 224 236 224 153 c 1
 230 168 235 157 247 140 c 0
 258 124 265 106 265 87 c 0
 265 79 264 70 261 62 c 0
 256 45 248 21 213 12 c 1
 211 11 209 11 207 11 c 0
 183 11 167 11 153 11 c 0
 126 11 111 11 80 11 c 1
 77 11 75 11 73 12 c 0
 59 16 43 23 31 39 c 0
 22 52 15 68 15 86 c 0
 15 93 16 100 18 107 c 0
 29 141 49 153 63 153 c 0
 65 153 67 153 69 152 c 1
 68 274 68 282 68 405 c 1
 66 403 63 402 59 402 c 0
 44 402 20 415 17 437 c 1
 16 446 18 452 25 459 c 0
 77 506 51 478 121 549 c 1
 127 554 132 556 140 556 c 0
 167 555 184 541 194 534 c 0
 215 518 203 500 208 510 c 0
 216 523 229 520 270 533 c 0
 280 536 291 547 317 547 c 0
 318 547 319 547 320 547 c 0
 357 546 372 528 388 523 c 0
 409 516 415 512 425 512 c 0
 426 512 427 512 428 512 c 0
 433 512 438 522 464 530 c 0
 488 537 508 542 533 542 c 0
 539 542 545 542 552 541 c 0
 589 538 617 530 650 509 c 0
 683 487 707 463 721 423 c 1
 722 420 723 417 723 415 c 0
 725 334 726 292 726 267 c 0
 726 226 724 224 723 167 c 1
 724 168 726 168 728 168 c 0
 734 168 742 162 751 142 c 0
EndSplineSet
Validated: 1
EndChar

StartChar: n
Encoding: 110 110 377
Width: 542
VWidth: 1000
Flags: W
HStem: 20 144<40.1031 71.9062 286.2 323.859> 397 159<242.064 322.682>
VStem: 18 249<41.5639 148.941> 72 155<162 381.53> 268 255<35.6881 152.985> 322 147<161 395.635>
LayerCount: 2
Fore
SplineSet
18 95 m 0xe0
 18 132 49 164 65 164 c 0
 68 164 70 163 72 161 c 1
 71 230 71 341 71 414 c 1
 69 410 64 408 60 408 c 0
 45 408 23 425 20 446 c 0
 20 448 20 450 20 452 c 0
 20 468 35 468 124 558 c 0
 130 563 135 565 143 565 c 0
 170 564 187 550 197 543 c 0
 218 527 206 509 211 519 c 0
 219 532 232 529 273 542 c 0
 283 545 294 556 321 556 c 0
 322 556 323 556 324 556 c 0
 358 555 375 539 393 531 c 0
 402 527 430 525 449 498 c 1
 466 472 472 442 472 418 c 0
 472 401 469 388 466 381 c 1
 469 330 469 299 469 277 c 0xd4
 469 243 467 232 467 198 c 0
 467 188 468 176 468 161 c 1
 470 174 473 179 478 179 c 0
 482 179 523 148 523 97 c 0
 523 42 487 18 473 18 c 0
 450 17 437 17 422 17 c 0
 402 17 377 17 318 18 c 0
 286 18 268 79 268 99 c 0xc8
 268 127 292 166 313 166 c 0
 318 166 321 164 324 161 c 1
 323 224 322 248 322 263 c 0
 322 285 323 284 324 366 c 1
 322 379 322 394 296 396 c 0
 293 396 290 397 288 397 c 0
 267 397 232 372 227 360 c 1
 226 321 226 300 226 284 c 0
 226 253 227 245 227 162 c 1xd4
 232 179 237 166 249 149 c 0
 260 133 267 115 267 96 c 0
 267 88 266 79 263 71 c 0
 258 54 251 30 216 21 c 0
 214 20 212 20 210 20 c 2
 83 20 l 2
 62 20 18 46 18 95 c 0xe0
EndSplineSet
Validated: 1
EndChar

StartChar: o
Encoding: 111 111 378
Width: 486
VWidth: 1000
Flags: W
HStem: 6 113<201.078 315.069> 413 117<200.686 301.402>
VStem: 17 145<160.265 360.653> 344 128<156.498 363.251>
LayerCount: 2
Fore
SplineSet
212 400 m 0
 196 390 193 383 183 357 c 0
 169 319 162 295 162 265 c 0
 162 252 163 238 166 221 c 0
 172 180 178 162 203 138 c 0
 216 126 225 126 252 122 c 0
 264 120 272 119 279 119 c 0
 286 119 291 121 298 125 c 0
 315 134 316 141 326 169 c 0
 339 202 344 226 344 254 c 0
 344 268 343 283 340 301 c 0
 335 340 329 357 307 385 c 0
 293 403 288 407 272 411 c 0
 264 413 257 413 251 413 c 0
 237 413 227 410 212 400 c 0
253 7 m 0
 249 7 240 6 228 6 c 0
 197 6 144 12 98 56 c 0
 62 90 38 122 27 171 c 0
 20 199 17 224 17 250 c 0
 17 278 21 306 30 337 c 0
 47 395 65 441 117 481 c 0
 164 517 208 530 264 530 c 0
 268 530 272 530 276 530 c 0
 316 528 349 525 390 485 c 0
 447 427 467 389 471 290 c 0
 472 276 472 263 472 250 c 0
 472 222 469 195 459 162 c 0
 448 125 424 41 328 12 c 0
 311 7 297 6 285 6 c 0
 274 6 264 7 253 7 c 0
EndSplineSet
Validated: 1
EndChar

StartChar: p
Encoding: 112 112 379
Width: 519
VWidth: 1000
Flags: W
HStem: -253 119<44.8462 82.9524 261.094 297.679> -7 143<259.831 331.79> 384 142<229.389 330.921>
VStem: 31 281<-241.8 -146.75> 82 147<144.135 377.824> 83 176<-135 9> 374 135<182.528 336.525>
LayerCount: 2
Fore
SplineSet
260 9 m 1xea
 260 -12 259 -23 259 -29 c 0xe6
 259 -46 261 -23 261 -137 c 1
 263 -135 265 -134 268 -134 c 0
 279 -134 296 -146 306 -173 c 0
 309 -182 312 -193 312 -204 c 0
 312 -219 308 -234 294 -246 c 0
 289 -251 284 -253 277 -253 c 0
 254 -253 234 -253 216 -253 c 0
 198 -253 182 -253 166 -253 c 0
 136 -253 108 -252 73 -251 c 0
 56 -250 31 -226 31 -196 c 0xf2
 31 -193 32 -191 32 -188 c 0
 39 -150 65 -134 78 -134 c 0
 80 -134 82 -134 83 -135 c 1xe6
 82 20 82 85 82 369 c 1
 79 374 76 372 35 393 c 1
 23 400 19 406 22 420 c 0
 34 484 92 500 137 523 c 0
 140 525 143 526 146 526 c 0
 148 526 150 526 152 526 c 0
 194 526 203 495 207 491 c 0
 207 491 249 526 317 526 c 0
 333 526 351 524 370 519 c 0
 479 491 485 425 496 376 c 0
 505 338 509 311 509 277 c 0
 509 270 509 263 509 255 c 0
 505 143 490 120 438 69 c 0
 415 46 397 28 363 13 c 0
 336 2 312 -7 293 -7 c 0
 279 -7 268 -2 260 9 c 1xea
229 370 m 0xea
 234 320 236 293 236 275 c 0
 236 239 229 240 229 165 c 0
 229 160 230 157 248 146 c 0
 257 141 269 136 282 136 c 0
 302 136 325 146 348 177 c 0
 366 201 368 219 373 258 c 0
 374 262 374 267 374 271 c 0
 374 302 358 333 336 357 c 0
 323 370 305 384 281 384 c 0
 273 384 264 382 254 379 c 0
 231 370 229 375 229 370 c 0xea
EndSplineSet
Validated: 1
EndChar

StartChar: q
Encoding: 113 113 380
Width: 492
VWidth: 1000
Flags: HW
VStem: 259 178<-141.509 -0.787864> 292 144<138.896 356.15>
LayerCount: 2
Fore
SplineSet
417 504 m 16
 428 498 436 488 436 476 c 0x40
 437 146 437 126 437 -142 c 1
 438 -141 440 -141 442 -141 c 0
 455 -141 482 -155 489 -194 c 0
 489 -197 490 -200 490 -203 c 0
 490 -225 476 -242 461 -253 c 0
 452 -258 422 -259 374 -259 c 0
 350 -259 321 -259 289 -259 c 0
 275 -259 260 -259 244 -259 c 0
 227 -259 209 -240 209 -211 c 0
 209 -201 211 -191 215 -180 c 0
 225 -153 244 -141 254 -141 c 0
 256 -141 258 -142 259 -144 c 1x80
 259 -27 261 -50 261 -33 c 0
 261 -28 260 -18 260 3 c 1
 251 -5 239 -9 224 -9 c 0
 206 -9 185 -4 159 6 c 0
 123 20 105 42 83 63 c 0
 34 111 15 126 12 248 c 0
 12 252 12 257 12 261 c 0
 12 343 30 425 64 465 c 0
 94 498 144 518 199 518 c 0
 217 518 235 516 253 512 c 0
 291 503 309 487 313 484 c 1
 315 485 325 519 368 519 c 0
 370 519 373 519 375 519 c 0
 378 519 402 512 417 504 c 16
292 363 m 0x40
 292 368 290 363 267 372 c 0
 260 375 251 378 240 378 c 0
 225 378 206 371 185 350 c 0
 152 315 146 283 146 264 c 0
 146 258 147 253 147 250 c 0
 152 213 154 196 173 170 c 0
 196 140 218 130 238 130 c 0
 251 130 262 134 272 140 c 0
 291 152 292 155 292 158 c 0
 292 233 285 232 285 268 c 0
 285 286 287 313 292 363 c 0x40
EndSplineSet
Validated: 1
EndChar

StartChar: r
Encoding: 114 114 381
Width: 403
VWidth: 1000
Flags: HW
LayerCount: 2
Fore
SplineSet
230 343 m 0
 230 327 230 313 230 301 c 0
 230 262 230 237 230 210 c 0
 230 190 230 169 229 141 c 1
 232 146 235 149 237 149 c 0
 243 149 249 136 255 118 c 0
 259 108 262 96 262 85 c 0
 262 70 258 54 246 41 c 0
 231 24 143 19 73 3 c 0
 71 3 69 2 67 2 c 0
 44 2 23 33 23 61 c 0
 23 69 24 77 28 84 c 0
 42 112 57 122 66 122 c 0
 68 122 70 121 71 119 c 1
 73 152 74 177 74 198 c 0
 74 230 72 256 72 295 c 0
 72 311 72 329 73 350 c 1
 60 352 16 371 16 412 c 0
 16 417 17 421 20 425 c 0
 52 477 63 502 111 520 c 0
 121 524 130 525 139 525 c 0
 165 525 185 512 189 510 c 0
 198 506 204 499 217 494 c 1
 223 502 224 532 283 532 c 0
 287 532 292 532 297 532 c 0
 353 528 377 480 387 439 c 0
 388 435 390 427 390 416 c 0
 390 402 386 382 372 362 c 0
 366 353 343 321 310 321 c 0
 307 321 304 321 301 322 c 0
 265 330 262 354 238 384 c 1
 236 373 230 348 230 343 c 0
EndSplineSet
Validated: 1
EndChar

StartChar: s
Encoding: 115 115 382
Width: 362
VWidth: 1080
Flags: HW
LayerCount: 2
Fore
SplineSet
27 193 m 0
 37 212 47 220 57 220 c 0
 95 220 135 116 164 116 c 0
 165 116 l 0
 189 118 205 138 206 166 c 0
 206 167 206 167 206 168 c 0
 206 181 196 188 169 208 c 0
 143 230 73 204 38 269 c 0
 20 302 15 322 15 353 c 0
 15 359 16 366 16 373 c 0
 19 443 64 482 115 512 c 0
 137 526 160 532 183 532 c 0
 195 532 207 530 220 527 c 0
 262 516 299 494 316 449 c 0
 321 436 324 425 324 414 c 0
 324 394 317 375 305 349 c 0
 296 331 287 324 279 324 c 0
 251 324 226 392 217 397 c 0
 196 411 188 417 181 417 c 0
 179 417 178 417 176 416 c 0
 156 410 146 399 146 387 c 0
 146 385 147 384 147 382 c 0
 152 360 189 376 235 340 c 0
 273 309 320 289 341 226 c 0
 347 207 350 188 350 170 c 0
 350 138 341 108 321 79 c 0
 290 35 248 26 208 17 c 0
 191 13 176 11 161 11 c 0
 145 11 128 13 111 17 c 0
 88 22 54 27 33 59 c 0
 18 82 10 105 10 130 c 0
 10 149 15 170 27 193 c 0
EndSplineSet
Validated: 1
EndChar

StartChar: t
Encoding: 116 116 383
Width: 352
VWidth: 1080
Flags: HW
VStem: 64 88<157 355>
LayerCount: 2
Fore
SplineSet
196 379 m 1
 196 355 196 341 196 329 c 0
 196 298 195 292 194 189 c 1
 205 136 201 128 213 124 c 0
 214 124 237 143 267 143 c 0
 273 143 278 142 284 141 c 0
 306 136 313 123 313 108 c 0
 313 88 301 66 296 59 c 0
 285 41 255 21 252 19 c 0
 231 12 213 9 194 9 c 0
 181 9 168 11 154 13 c 1
 112 20 81 48 61 81 c 0
 58 85 57 89 57 94 c 0
 57 141 57 173 57 200 c 0
 57 254 57 286 57 371 c 1
 48 377 26 389 14 413 c 0
 11 420 10 427 10 434 c 0
 10 457 24 479 26 481 c 0
 126 588 62 514 121 582 c 0
 126 588 136 592 146 592 c 0
 163 592 183 583 194 564 c 1
 204 548 207 535 207 526 c 0
 207 518 205 512 204 508 c 1
 206 508 209 508 212 508 c 0
 226 508 252 506 303 503 c 0
 322 501 341 473 341 441 c 0
 341 423 335 404 320 387 c 0
 312 380 299 378 279 378 c 0
 263 378 242 379 217 379 c 0
 210 379 203 379 196 379 c 1
EndSplineSet
Validated: 1
EndChar

StartChar: u
Encoding: 117 117 384
Width: 498
VWidth: 1080
Flags: HW
VStem: 47 93<142 375> 291 86<127 394>
LayerCount: 2
Fore
SplineSet
302 415 m 17
 300 414 294 413 288 413 c 0
 271 413 245 418 233 438 c 0
 227 447 225 457 225 466 c 0
 225 482 232 497 241 507 c 0
 264 535 295 533 314 535 c 0
 328 537 341 538 354 538 c 0
 374 538 394 535 417 525 c 0
 423 523 456 516 461 484 c 0
 461 482 462 479 462 477 c 0
 462 457 450 440 442 440 c 0
 440 440 439 441 438 442 c 1
 438 171 l 1
 462 140 442 162 481 132 c 1
 487 124 491 118 491 112 c 0
 491 107 489 103 485 97 c 0
 448 46 429 26 359 3 c 0
 356 2 353 2 350 2 c 0
 306 4 299 30 294 42 c 1
 267 36 226 11 182 11 c 0
 157 11 131 18 106 40 c 0
 66 76 58 126 58 131 c 0
 58 204 58 216 58 216 c 0
 58 216 58 213 57 213 c 0
 57 213 57 235 57 399 c 1
 56 398 54 397 52 397 c 0
 37 397 8 424 8 453 c 0
 8 461 10 468 15 476 c 0
 36 510 85 533 128 533 c 0
 158 533 185 522 198 496 c 0
 201 490 202 452 202 399 c 0
 202 338 201 258 201 185 c 1
 205 178 229 157 254 157 c 0
 271 157 290 167 303 200 c 1
 303 324 302 415 302 415 c 17
EndSplineSet
Validated: 1
EndChar

StartChar: v
Encoding: 118 118 385
Width: 488
VWidth: 1080
Flags: HW
LayerCount: 2
Fore
SplineSet
14 507 m 0
 31 540 63 544 90 544 c 0
 99 544 107 544 114 544 c 0
 116 544 119 544 121 544 c 0
 132 545 141 546 150 546 c 0
 170 546 185 542 208 530 c 0
 225 522 231 511 231 499 c 0
 231 478 211 456 206 448 c 0
 200 439 198 432 198 425 c 0
 198 411 206 397 210 375 c 2
 231 248 l 10
 232 242 244 242 246 248 c 16
 260 300 260 285 286 383 c 0
 293 411 297 420 297 426 c 0
 297 428 297 429 296 431 c 0
 286 448 282 437 276 464 c 0
 273 477 268 488 268 499 c 0
 268 510 273 520 291 530 c 0
 313 541 326 545 340 545 c 0
 350 545 359 543 372 542 c 0
 395 540 433 546 461 512 c 0
 472 498 478 483 478 467 c 0
 478 454 475 442 468 430 c 0
 456 408 438 404 441 414 c 1
 372 310 418 349 301 152 c 1
 285 115 300 91 277 35 c 0
 271 23 250 12 226 12 c 0
 206 12 184 19 167 38 c 0
 166 40 165 42 164 44 c 0
 137 98 149 128 141 162 c 1
 87 348 98 291 55 411 c 1
 54 402 56 400 41 415 c 0
 29 428 7 451 7 480 c 0
 7 488 9 497 14 507 c 0
EndSplineSet
Validated: 1
EndChar

StartChar: w
Encoding: 119 119 386
Width: 712
VWidth: 1080
Flags: HW
LayerCount: 2
Fore
SplineSet
372 543 m 1
 385 547 407 552 430 552 c 0
 447 552 465 549 479 541 c 0
 491 534 502 517 502 496 c 0
 502 487 500 477 494 467 c 0
 473 430 451 431 449 424 c 0
 449 423 448 420 448 416 c 0
 448 397 454 345 454 331 c 1
 480 264 447 307 499 268 c 1
 521 273 520 279 543 348 c 1
 552 381 559 395 559 409 c 0
 559 414 558 419 556 425 c 0
 552 438 546 430 530 463 c 0
 527 470 523 480 523 491 c 0
 523 499 525 509 532 517 c 0
 550 540 571 544 591 544 c 0
 603 544 613 543 622 542 c 0
 636 541 665 543 686 518 c 0
 696 505 701 490 701 473 c 0
 701 462 699 450 695 438 c 0
 688 414 672 407 672 407 c 1
 624 255 658 199 526 26 c 0
 520 18 501 3 478 3 c 0
 471 3 464 4 456 8 c 0
 452 10 449 12 447 15 c 0
 373 117 391 116 371 211 c 0
 370 212 363 215 364 229 c 1
 356 218 354 216 348 209 c 1
 314 110 326 132 266 34 c 0
 264 31 241 2 210 2 c 0
 203 2 195 4 188 7 c 0
 183 10 180 13 177 18 c 0
 99 164 115 249 56 374 c 0
 38 408 51 403 17 435 c 0
 12 440 8 451 8 463 c 0
 8 486 18 514 43 531 c 0
 45 532 83 542 123 542 c 0
 171 542 223 528 223 464 c 0
 222 443 202 440 202 425 c 0
 202 423 202 420 203 418 c 0
 219 370 191 367 258 288 c 1
 284 306 288 286 302 343 c 0
 306 360 309 391 309 400 c 0
 309 401 309 402 309 402 c 0
 299 418 271 416 250 459 c 0
 246 468 242 480 242 493 c 0
 242 503 245 515 254 526 c 0
 254 526 281 551 326 551 c 0
 340 551 355 549 372 543 c 1
EndSplineSet
Validated: 1
EndChar

StartChar: x
Encoding: 120 120 387
Width: 542
VWidth: 1080
Flags: W
HStem: 7 148<42.1067 125.362> 524 20G<140 208 449 465.5>
VStem: 11 223<67.0099 142.475> 341 185<422.314 506.617>
LayerCount: 2
Fore
SplineSet
52 410 m 0
 34 415 26 439 26 463 c 0
 26 489 35 515 54 520 c 0
 116 536 112 544 168 544 c 0
 175 544 184 544 194 544 c 0
 222 544 258 541 278 510 c 1
 286 498 291 484 291 471 c 0
 291 459 287 447 278 438 c 0
 268 427 265 422 268 412 c 17
 277 404 273 391 289 391 c 0
 292 391 295 391 299 392 c 1
 320 400 341 415 341 430 c 0
 341 432 341 434 340 436 c 0
 338 440 335 441 332 441 c 0
 330 441 327 441 325 441 c 0
 319 441 313 444 307 461 c 0
 305 467 305 472 305 477 c 0
 305 507 333 525 347 534 c 0
 352 537 386 544 411 544 c 0
 414 544 417 544 419 544 c 0
 420 544 422 544 424 544 c 0
 432 544 443 545 455 545 c 0
 476 545 501 541 517 514 c 1
 524 504 526 493 526 483 c 0
 526 464 518 447 512 435 c 1
 505 420 494 413 486 413 c 0
 480 413 475 416 473 422 c 1
 428 373 388 338 352 291 c 1
 371 243 417 220 492 123 c 0
 501 111 507 91 507 73 c 0
 507 55 502 39 488 32 c 0
 445 12 426 15 394 12 c 0
 375 10 353 8 331 8 c 0
 316 8 300 9 284 12 c 0
 281 13 290 16 287 18 c 0
 274 29 271 44 271 56 c 0
 271 66 274 74 274 79 c 0
 275 94 279 96 285 96 c 0
 288 96 291 95 295 95 c 0
 297 95 300 96 302 98 c 8
 307 103 314 113 314 113 c 1
 320 126 318 132 311 140 c 16
 306 145 302 146 297 146 c 0
 295 146 294 145 293 145 c 0
 288 145 284 146 278 148 c 1
 271 149 261 148 253 148 c 1
 244 144 243 143 239 137 c 16
 235 131 234 127 234 123 c 0
 234 113 243 107 252 96 c 1
 252 95 l 1
 258 86 261 78 261 70 c 0
 261 53 251 39 248 35 c 0
 235 8 206 17 195 13 c 0
 195 13 165 7 129 7 c 0
 111 7 92 9 74 13 c 0
 35 21 11 61 11 97 c 0
 11 113 16 128 26 139 c 0
 41 156 57 161 71 161 c 0
 87 161 100 155 103 155 c 0
 104 155 104 155 104 155 c 1
 177 227 174 224 199 267 c 1
 175 319 180 325 124 401 c 1
 121 403 118 403 114 403 c 0
 110 403 106 403 101 403 c 0
 90 403 75 404 52 410 c 0
EndSplineSet
Validated: 1
EndChar

StartChar: y
Encoding: 121 121 388
Width: 545
VWidth: 1080
Flags: HW
LayerCount: 2
Fore
SplineSet
130 -54 m 1
 143 -50 170 -5 182 50 c 0
 184 59 184 66 184 73 c 0
 184 87 182 99 177 120 c 0
 144 293 132 303 87 393 c 1
 57 397 16 431 16 469 c 0
 16 482 21 495 32 508 c 0
 34 509 36 511 38 512 c 0
 89 544 114 543 152 545 c 0
 164 546 178 548 192 548 c 0
 216 548 241 543 262 519 c 0
 274 506 283 488 283 468 c 0
 283 455 279 442 269 429 c 0
 258 416 252 411 246 411 c 0
 241 411 236 416 229 423 c 1
 229 423 232 414 235 398 c 0
 253 308 259 302 281 252 c 1
 289 252 293 256 293 257 c 0
 322 311 335 318 344 403 c 0
 347 425 347 429 346 428 c 0
 343 422 339 418 334 418 c 0
 328 418 321 423 311 435 c 0
 301 447 296 462 296 477 c 0
 296 492 301 506 311 518 c 0
 323 532 379 549 432 549 c 0
 457 549 481 545 499 535 c 0
 509 530 533 502 533 467 c 0
 533 456 530 444 524 432 c 0
 515 415 495 414 489 412 c 1
 365 154 402 199 169 -229 c 0
 166 -235 162 -238 156 -240 c 0
 141 -246 128 -248 115 -248 c 0
 84 -248 56 -233 24 -210 c 0
 17 -205 5 -188 5 -162 c 0
 5 -149 8 -134 15 -116 c 1
 19 -84 34 -62 63 -48 c 1
 75 -42 84 -40 93 -40 c 0
 115 -40 122 -52 130 -54 c 1
EndSplineSet
Validated: 1
EndChar

StartChar: z
Encoding: 122 122 389
Width: 526
VWidth: 1080
Flags: HW
HStem: 470 21G<102.5 175.5>
LayerCount: 2
Fore
SplineSet
266 154 m 1
 286 150 298 147 308 147 c 0
 317 147 326 150 340 155 c 1
 377 172 375 227 430 272 c 0
 438 277 444 279 453 276 c 0
 507 260 508 199 511 169 c 2
 511 169 l 2
 512 155 513 140 513 125 c 0
 513 87 505 49 467 21 c 0
 462 17 457 16 452 16 c 0
 435 16 420 16 407 16 c 0
 349 16 324 14 273 14 c 0
 266 14 259 14 252 14 c 0
 249 14 246 14 243 14 c 0
 206 14 188 11 160 11 c 0
 135 11 101 13 39 22 c 0
 31 24 26 27 21 33 c 0
 16 41 14 49 14 57 c 0
 14 84 36 111 38 114 c 0
 174 283 179 273 263 389 c 1
 269 405 272 414 272 419 c 0
 272 421 272 422 271 423 c 0
 265 431 256 434 244 434 c 0
 231 434 213 429 192 420 c 0
 154 404 163 352 90 309 c 0
 84 306 79 305 72 306 c 0
 41 312 24 338 24 358 c 0
 24 366 27 374 33 378 c 1
 34 385 34 393 34 401 c 0
 34 417 33 435 33 453 c 0
 33 471 34 489 40 506 c 0
 44 518 52 523 64 525 c 0
 86 528 101 529 112 529 c 0
 135 529 143 525 163 525 c 0
 234 525 283 532 343 532 c 0
 373 532 406 530 445 525 c 0
 451 524 455 522 459 518 c 0
 474 504 478 487 478 470 c 0
 478 439 462 411 462 411 c 2
 266 154 l 1
EndSplineSet
Validated: 1
EndChar

StartChar: bar
Encoding: 124 124 391
Width: 255
VWidth: 1080
Flags: HW
VStem: 63.75 123.2<404.55 550.023>
LayerCount: 2
Fore
SplineSet
219 56 m 4
 220 52 221 48 221 44 c 4
 221 14 190 2 154 2 c 4
 106 2 51 24 51 54 c 4
 51 58 51 61 53 65 c 5
 53 82 53 98 53 112 c 4
 53 374 45 260 45 701 c 5
 45 702 45 703 45 705 c 4
 45 741 76 755 106 755 c 4
 119 755 133 752 143 747 c 4
 201 718 208 606 208 504 c 4
 208 472 207 440 207 413 c 4
 207 342 204 278 204 219.5 c 4
 204 161 207 108 219 56 c 4
EndSplineSet
Validated: 1
EndChar

StartChar: braceright
Encoding: 125 125 392
Width: 267
Flags: HW
LayerCount: 2
Fore
SplineSet
225 344 m 0
 166 318 164 339 152 297 c 0
 151 295 151 293 151 291 c 0
 151 275 173 262 192 226 c 0
 207 197 220 163 220 128 c 0
 220 100 212 72 189 46 c 0
 169 24 137 -2 101 -2 c 0
 90 -2 78 0 66 6 c 0
 48 14 40 30 40 46 c 0
 40 53 42 60 45 66 c 0
 56 88 76 91 90 91 c 0
 97 91 102 91 106 91 c 0
 107 91 108 91 108 91 c 0
 116 99 119 107 119 116 c 0
 119 145 77 178 53 245 c 1
 43 292 39 320 39 337 c 0
 39 365 51 363 75 370 c 1
 53 385 39 374 39 415 c 0
 39 427 40 444 43 468 c 0
 56 589 88 608 88 660 c 0
 88 665 88 671 87 677 c 0
 87 679 86 680 84 680 c 0
 79 680 66 671 53 671 c 0
 46 671 38 673 31 681 c 0
 24 688 21 697 21 706 c 0
 21 714 24 723 31 730 c 0
 49 749 75 760 101 760 c 0
 120 760 139 754 155 741 c 0
 192 713 207 673 207 633 c 0
 207 602 197 570 181 545 c 0
 161 514 148 501 148 484 c 0
 148 481 149 479 149 476 c 0
 157 434 183 423 233 385 c 1
 240 372 246 365 246 360 c 0
 246 354 240 351 225 344 c 0
EndSplineSet
Validated: 1
EndChar

StartChar: asciitilde
Encoding: 126 126 393
Width: 390
VWidth: 1000
Flags: HW
LayerCount: 2
Fore
SplineSet
144 433 m 0
 182 431 198 411 215 404 c 0
 243 393 244 388 249 388 c 0
 251 389 264 429 309 429 c 0
 336 428 373 412 376 374 c 0
 376 373 376 372 376 371 c 0
 376 338 341 327 340 326 c 0
 316 307 294 275 245 273 c 0
 243 273 240 273 238 273 c 0
 175 273 159 323 138 323 c 0
 137 323 137 323 137 323 c 0
 134 323 115 286 78 286 c 0
 74 286 71 286 68 287 c 0
 37 292 12 317 12 351 c 0
 13 389 48 402 60 409 c 0
 83 423 106 433 136 433 c 0
 139 433 141 433 144 433 c 0
EndSplineSet
Validated: 1
EndChar

StartChar: Ccedilla
Encoding: 199 199 395
Width: 727
Flags: HW
LayerCount: 2
Fore
SplineSet
534 -2 m 0
 533 -3 533 -4 533 -6 c 0
 533 -14 544 -28 544 -51 c 0
 544 -58 544 -65 541 -74 c 0
 525 -128 515 -172 470 -220 c 0
 450 -241 426 -263 387 -265 c 0
 384 -265 381 -265 378 -265 c 0
 350 -265 303 -260 295 -217 c 0
 294 -213 294 -208 294 -205 c 0
 294 -152 370 -142 377 -126 c 0
 380 -120 381 -116 381 -112 c 0
 381 -107 379 -101 376 -91 c 0
 335 36 357 -44 223 24 c 0
 144 64 97 105 51 179 c 0
 20 230 5 274 5 329 c 0
 5 337 5 346 6 354 c 0
 13 450 45 511 104 586 c 0
 159 657 208 696 294 731 c 0
 332 747 379 754 425 754 c 0
 476 754 527 745 563 731 c 0
 613 712 673 703 704 640 c 0
 717 613 722 589 722 565 c 0
 722 523 704 482 678 434 c 1
 670 424 665 419 658 419 c 0
 654 419 649 421 642 425 c 0
 580 461 597 513 585 528 c 0
 541 584 525 619 471 632 c 0
 455 636 440 638 426 638 c 0
 389 638 358 624 321 596 c 0
 247 540 222 485 212 394 c 0
 210 379 209 365 209 352 c 0
 209 297 226 257 266 209 c 0
 312 155 355 137 429 128 c 0
 436 127 442 127 448 127 c 0
 512 127 561 165 635 176 c 0
 638 177 641 177 644 177 c 0
 668 177 677 159 677 138 c 0
 677 113 666 84 656 71 c 0
 622 29 564 32 534 -2 c 0
EndSplineSet
Validated: 1
EndChar

StartChar: ae
Encoding: 230 230 404
Width: 664
VWidth: 1000
Flags: HW
LayerCount: 2
Fore
SplineSet
243 174 m 0
 259 193 264 208 264 220 c 0
 264 237 254 247 253 248 c 0
 253 248 240 248 205 226 c 0
 204 225 164 205 164 187 c 0
 164 186 164 186 164 186 c 0
 165 160 168 137 177 137 c 0
 178 137 179 138 181 139 c 0
 187 143 175 141 195 149 c 0
 222 160 231 161 243 174 c 0
382 299 m 1
 382 297 400 261 404 236 c 0
 411 198 414 181 437 162 c 0
 449 152 457 153 485 150 c 0
 500 149 510 148 517 148 c 0
 536 148 534 155 543 183 c 0
 551 206 569 216 588 216 c 0
 615 216 644 196 644 165 c 0
 644 164 644 163 644 162 c 0
 641 108 638 100 623 75 c 0
 596 30 560 20 519 20 c 0
 491 20 461 25 431 25 c 0
 429 25 428 25 427 25 c 0
 398 24 372 19 348 19 c 0
 334 19 320 21 307 28 c 0
 286 39 280 54 275 59 c 0
 259 75 266 64 269 73 c 0
 269 74 269 74 269 74 c 0
 269 75 269 75 269 75 c 0
 267 75 255 58 227 42 c 0
 217 37 206 23 181 18 c 0
 165 15 150 12 134 12 c 0
 113 12 92 16 71 30 c 0
 40 50 21 96 21 146 c 0
 21 168 25 192 33 214 c 0
 59 280 136 318 183 336 c 0
 206 345 221 346 230 346 c 0
 231 346 233 346 234 346 c 0
 244 346 247 347 251 365 c 0
 253 372 253 380 253 388 c 0
 253 415 246 443 241 447 c 0
 241 447 240 447 238 447 c 0
 229 447 200 444 191 431 c 0
 183 421 186 401 183 378 c 0
 178 338 141 315 105 315 c 0
 97 315 90 316 83 318 c 0
 48 329 33 359 33 393 c 0
 33 434 55 482 85 508 c 0
 132 548 177 545 224 553 c 0
 241 555 255 556 269 556 c 0
 288 556 306 555 328 554 c 0
 336 554 344 554 351 554 c 0
 371 554 389 554 407 554 c 0
 442 554 477 552 520 540 c 0
 547 532 595 533 620 482 c 0
 636 450 642 425 642 401 c 0
 642 381 638 361 630 340 c 0
 624 324 611 299 581 296 c 0
 577 295 512 292 458 292 c 0
 421 292 388 293 382 299 c 1
417 396 m 1
 437 395 464 392 485 388 c 1
 485 403 504 428 504 434 c 0
 504 435 l 0
 499 439 494 440 487 440 c 0
 475 440 460 434 439 420 c 0
 430 414 423 404 417 396 c 1
EndSplineSet
Validated: 1
EndChar

StartChar: ccedilla
Encoding: 231 231 405
Width: 462
Flags: HW
LayerCount: 2
Fore
SplineSet
226 108 m 0
 243 98 263 91 283 91 c 0
 296 91 308 94 320 100 c 0
 327 104 326 109 335 135 c 0
 343 158 361 168 380 168 c 0
 408 168 436 147 436 116 c 0
 436 115 436 114 436 113 c 0
 433 62 431 50 413 25 c 0
 390 -5 382 -12 378 -12 c 0
 376 -12 375 -10 373 -9 c 1
 369 -32 371 -21 367 -42 c 0
 355 -104 339 -149 295 -198 c 0
 275 -221 251 -244 212 -246 c 0
 209 -246 206 -246 203 -246 c 0
 175 -246 128 -240 120 -195 c 0
 119 -190 119 -186 119 -182 c 0
 119 -126 195 -116 202 -100 c 0
 205 -94 205 -90 205 -86 c 0
 205 -80 203 -76 203 -67 c 0
 203 -65 137 -62 128 -4 c 0
 128 -1 128 0 127 5 c 1
 121 10 61 32 36 138 c 0
 29 166 25 191 25 216 c 0
 25 244 30 272 39 304 c 0
 56 362 74 407 125 448 c 0
 172 484 217 497 273 497 c 0
 277 497 281 497 285 497 c 0
 325 495 358 492 399 452 c 0
 426 425 437 397 437 372 c 0
 437 336 413 309 382 307 c 0
 381 307 380 307 379 307 c 0
 341 307 326 343 320 348 c 0
 306 358 289 381 261 381 c 0
 249 381 236 377 220 367 c 0
 205 357 202 349 192 324 c 0
 178 287 171 262 171 231 c 0
 171 218 173 204 175 188 c 0
 178 162 189 131 226 108 c 0
EndSplineSet
Validated: 1
EndChar

StartChar: eth
Encoding: 240 240 414
Width: 507
VWidth: 1000
Flags: HW
LayerCount: 2
Fore
SplineSet
271 423 m 0
 270 423 269 423 269 423 c 0
 254 423 225 407 208 385 c 0
 175 344 159 323 153 277 c 0
 151 266 150 256 150 248 c 0
 150 229 155 215 167 196 c 0
 186 166 204 157 243 142 c 0
 255 137 265 135 272 135 c 0
 290 135 298 148 315 174 c 0
 336 208 342 225 345 263 c 0
 346 278 347 291 347 303 c 0
 347 331 342 352 325 380 c 0
 308 407 297 417 271 423 c 0
456 626 m 1
 462 599 464 562 464 516 c 0
 464 422 456 291 455 130 c 1
 453 91 405 60 358 36 c 16
 306 10 261 1 213 1 c 0
 196 1 179 2 161 4 c 0
 112 10 97 51 81 71 c 0
 48 111 21 157 21 236 c 0
 21 238 21 241 21 244 c 0
 22 284 24 432 158 522 c 0
 183 539 207 547 237 548 c 0
 239 548 241 548 243 548 c 0
 270 548 319 542 364 527 c 1
 363 547 361 566 352 584 c 1
 333 577 316 575 302 575 c 0
 271 575 253 589 253 607 c 0
 253 618 259 631 273 643 c 1
 268 645 263 647 257 649 c 1
 258 652 261 660 259 658 c 0
 247 643 228 630 214 630 c 0
 207 630 202 634 199 642 c 0
 198 646 197 651 197 656 c 0
 197 695 234 743 260 760 c 0
 272 767 284 772 299 772 c 0
 326 772 361 755 411 705 c 1
 422 708 436 712 450 712 c 0
 457 712 465 711 472 708 c 0
 490 701 498 690 498 678 c 0
 498 660 481 639 456 626 c 1
EndSplineSet
Validated: 1
EndChar

StartChar: divide
Encoding: 247 247 421
Width: 373
Flags: HW
LayerCount: 2
Fore
SplineSet
137 450 m 0
 132 462 130 474 130 485 c 0
 130 521 155 548 184 548 c 0
 208 548 222 533 231 516 c 0
 238 503 241 491 241 480 c 0
 241 444 209 424 180 424 c 0
 161 424 144 432 137 450 c 0
139 78 m 0
 134 90 132 102 132 113 c 0
 132 149 157 176 186 176 c 0
 210 176 224 161 233 144 c 0
 240 131 243 118 243 108 c 0
 243 72 211 52 182 52 c 0
 164 52 147 60 139 78 c 0
28 257 m 0
 19 270 14 284 14 298 c 0
 14 317 23 336 35 351 c 0
 63 382 95 385 125 385 c 0
 131 385 138 385 144 385 c 0
 152 385 160 385 167 386 c 0
 189 390 208 396 234 396 c 0
 241 396 248 396 256 395 c 0
 280 392 314 391 338 358 c 0
 350 342 359 321 359 301 c 0
 359 286 354 271 345 257 c 0
 309 204 251 212 208 210 c 0
 187 209 164 207 141 207 c 0
 100 207 59 215 28 257 c 0
EndSplineSet
Validated: 1
EndChar

StartChar: oslash
Encoding: 248 248 422
Width: 552
VWidth: 1000
Flags: HW
LayerCount: 2
Fore
SplineSet
408 493 m 1
 438 494 450 496 460 496 c 0
 473 496 483 493 522 480 c 0
 531 477 537 466 537 453 c 0
 537 442 532 430 522 422 c 0
 514 416 506 414 499 414 c 0
 491 414 485 416 485 419 c 1
 475 409 l 1
 490 377 500 324 500 267 c 0
 500 163 465 45 356 12 c 0
 339 7 325 6 313 6 c 0
 302 6 292 7 281 7 c 0
 267 7 257 6 246 6 c 0
 233 6 219 7 195 15 c 1
 154 15 136 11 109 11 c 0
 95 11 79 12 57 15 c 0
 57 15 15 32 15 62 c 0
 15 63 15 63 15 64 c 0
 17 90 49 107 72 107 c 0
 76 107 79 107 82 106 c 1
 72 121 45 172 45 246 c 0
 45 273 48 304 58 337 c 0
 75 395 93 441 145 481 c 0
 192 517 236 530 292 530 c 0
 296 530 300 530 304 530 c 0
 341 528 372 525 408 493 c 1
346 369 m 1
 323 405 310 408 299 411 c 0
 291 413 284 413 278 413 c 0
 265 413 255 410 240 400 c 0
 224 390 221 383 211 357 c 0
 196 317 190 292 190 264 c 0
 190 249 192 233 195 213 c 1
 228 249 256 277 300 321 c 2
 346 369 l 1
371 281 m 1
 352 258 l 2
 299 193 281 177 245 129 c 1
 245 129 275 120 300 120 c 0
 310 120 320 121 326 125 c 0
 343 134 344 141 354 168 c 0
 367 203 372 226 372 254 c 0
 372 263 372 271 371 281 c 1
EndSplineSet
Validated: 1
EndChar

StartChar: thorn
Encoding: 254 254 428
Width: 567
VWidth: 1080
Flags: HW
VStem: 118 118<-160 3>
LayerCount: 2
Fore
SplineSet
259 466 m 1
 255 412 252 343 252 277 c 0
 252 206 255 139 260 96 c 1
 262 94 266 93 270 93 c 0
 283 93 305 102 331 120 c 0
 377 153 390 189 401 253 c 0
 406 278 409 299 409 319 c 0
 409 351 401 379 381 414 c 0
 366 441 352 450 320 461 c 0
 303 467 294 471 284 471 c 0
 277 471 270 469 259 466 c 1
256 636 m 1
 256 634 234 625 234 607 c 0
 234 601 236 594 242 587 c 1
 333 557 421 578 499 508 c 1
 539 473 548 434 557 391 c 0
 564 357 567 327 567 298 c 0
 567 257 560 217 544 170 c 0
 517 92 492 24 410 -19 c 0
 381 -34 355 -39 333 -39 c 0
 292 -39 264 -22 261 -22 c 1
 262 -68 265 -76 268 -124 c 1
 268 -124 293 -114 323 -114 c 0
 354 -114 390 -124 412 -164 c 0
 417 -173 419 -182 419 -190 c 0
 419 -210 406 -228 388 -243 c 0
 383 -246 378 -248 372 -248 c 0
 295 -248 228 -256 150 -256 c 0
 113 -256 74 -254 31 -249 c 0
 24 -248 19 -245 15 -240 c 0
 3 -225 -2 -212 -2 -199 c 0
 -2 -162 42 -137 42 -137 c 0
 62 -130 74 -127 82 -127 c 0
 88 -127 91 -128 93 -130 c 1
 95 -52 95 39 95 49 c 0
 95 49 101 147 101 424 c 0
 101 485 101 555 100 635 c 1
 96 635 91 635 85 635 c 0
 70 635 50 636 26 642 c 0
 9 645 -4 668 -4 694 c 0
 -4 713 3 735 23 753 c 0
 28 757 33 759 40 759 c 0
 52 759 66 759 81 759 c 0
 153 759 247 757 311 757 c 0
 325 757 337 757 347 757 c 0
 348 757 l 0
 370 757 386 731 386 701 c 0
 386 685 382 668 371 654 c 0
 359 638 322 635 294 635 c 0
 275 635 259 636 256 636 c 1
EndSplineSet
Validated: 1
EndChar

StartChar: Aogonek
Encoding: 260 260 434
Width: 811
Flags: HW
LayerCount: 2
Fore
SplineSet
534 159 m 0
 541 159 550 160 550 169 c 0
 549 180 546 208 543 231 c 0
 543 233 542 258 509 263 c 1
 485 261 466 261 449 261 c 0
 421 261 398 262 372 262 c 0
 354 262 334 261 310 259 c 1
 293 245 292 220 292 197 c 2
 292 190 l 1
 295 191 300 192 305 192 c 0
 336 192 356 170 356 156 c 0
 357 133 358 114 358 97 c 0
 358 78 356 51 340 35 c 0
 319 14 296 8 274 8 c 0
 245 8 216 19 193 19 c 0
 192 19 191 19 190 19 c 0
 151 17 139 17 113 16 c 0
 109 15 101 10 89 10 c 0
 68 10 40 27 37 35 c 1
 34 39 9 52 9 86 c 2
 9 88 l 1
 12 159 82 198 115 198 c 0
 132 198 143 192 143 188 c 1
 163 225 186 306 188 315 c 1
 188 317 l 1
 269 573 265 542 362 730 c 0
 364 735 368 739 373 741 c 0
 400 755 429 770 460 770 c 0
 492 770 512 757 517 749 c 0
 565 678 566 642 588 581 c 0
 649 406 655 301 697 184 c 1
 703 176 760 181 791 124 c 0
 799 110 806 90 806 71 c 0
 806 25 764 14 757 14 c 1
 720 6 687 6 652 6 c 2
 639 6 l 2
 602 6 602 5 578 4 c 1
 578 2 578 0 578 -2 c 0
 578 -27 544 -17 531 -35 c 0
 516 -55 512 -74 512 -88 c 0
 512 -124 530 -121 532 -122 c 0
 543 -123 540 -126 543 -115 c 1
 549 -99 562 -92 575 -92 c 0
 593 -92 611 -106 611 -126 c 0
 611 -127 611 -128 611 -129 c 0
 607 -194 563 -196 536 -196 c 2
 520 -196 l 2
 459 -196 426 -140 426 -90 c 0
 426 -52 444 -15 465 5 c 1
 432 6 420 32 420 62 c 0
 420 113 454 170 489 170 c 0
 504 170 517 159 534 159 c 0
400 492 m 1
 395 479 376 415 360 384 c 1
 376 374 392 371 410 371 c 0
 433 371 460 376 497 380 c 1
 497 390 439 501 433 554 c 1
 420 521 400 495 400 492 c 1
EndSplineSet
Validated: 1
EndChar

StartChar: aogonek
Encoding: 261 261 435
Width: 480
Flags: HW
LayerCount: 2
Fore
SplineSet
232 168 m 0
 248 187 253 202 253 214 c 0
 253 231 243 241 243 242 c 2
 243 242 229 242 194 220 c 0
 194 219 153 198 153 181 c 2
 153 180 l 1
 154 154 157 131 166 131 c 0
 168 131 169 132 171 133 c 0
 177 137 164 135 185 143 c 0
 212 154 221 155 232 168 c 0
198 24 m 1
 201 15 208 12 208 -6 c 0
 208 -31 174 -21 161 -39 c 0
 146 -59 142 -78 142 -92 c 0
 142 -124 157 -126 161 -126 c 0
 162 -126 l 0
 173 -127 170 -130 173 -119 c 1
 179 -103 192 -96 205 -96 c 0
 223 -96 241 -110 241 -130 c 0
 241 -131 241 -132 241 -133 c 0
 237 -198 193 -200 166 -200 c 2
 150 -200 l 2
 89 -200 56 -144 56 -94 c 0
 56 -64 67 -24 102 7 c 1
 45 17 10 70 10 139 c 0
 10 161 14 185 23 208 c 0
 53 286 173 340 219 340 c 2
 226 340 l 2
 232 340 243 343 243 380 c 0
 243 407 235 437 230 441 c 1
 165 441 176 410 173 372 c 0
 169 332 131 309 95 309 c 0
 68 309 23 324 23 386 c 0
 23 428 45 476 75 502 c 0
 98 521 134 547 232 547 c 0
 257 547 284 544 310 525 c 0
 388 471 370 382 375 257 c 1
 375 199 l 2
 375 189 375 180 376 169 c 1
 387 180 404 192 421 192 c 0
 441 192 462 176 462 149 c 0
 462 137 458 126 458 123 c 0
 456 95 458 61 427 31 c 0
 405 10 380 14 367 13 c 0
 360 13 354 12 349 12 c 0
 280 12 273 44 264 53 c 1
 255 69 l 1
 253 69 241 52 214 36 c 0
 211 34 207 30 198 24 c 1
EndSplineSet
Validated: 1
EndChar

StartChar: dcroat
Encoding: 273 273 447
Width: 516
VWidth: 1000
Flags: HW
HStem: 538 92<307.376 308.376> 538 95.296<283.376 307.376>
VStem: 307.376 70<517 542 638.816 644 644.031 690.991>
LayerCount: 2
Fore
SplineSet
260 431 m 0
 259 431 258 431 258 431 c 0
 243 431 214 415 197 393 c 0
 164 352 149 331 142 285 c 0
 141 275 140 266 140 257 c 0
 140 238 144 224 157 204 c 0
 175 174 193 165 232 150 c 0
 244 145 254 143 262 143 c 0
 279 143 288 156 304 182 c 0
 325 216 332 233 334 271 c 0
 335 286 336 299 336 311 c 0
 336 339 331 360 314 388 c 0
 298 415 286 425 260 431 c 0
322 676 m 1
 319 691 319 721 318 723 c 0
 319 726 322 733 320 731 c 0
 308 716 289 703 275 703 c 0
 268 703 263 707 260 715 c 0
 259 719 258 724 258 729 c 0
 258 768 295 816 321 833 c 0
 339 845 356 849 370 849 c 0
 414 849 438 805 438 781 c 0
 438 777 438 773 436 771 c 1
 437 770 438 766 438 761 c 0
 438 747 435 722 435 698 c 0
 435 690 435 682 436 675 c 1
 439 672 442 671 445 671 c 0
 453 671 462 678 471 678 c 0
 477 678 483 675 489 667 c 0
 499 653 506 637 506 620 c 0
 506 608 502 595 495 584 c 0
 480 563 427 560 427 560 c 0
 430 453 444 256 444 148 c 0
 444 145 444 141 444 138 c 1
 445 138 445 139 446 139 c 0
 454 139 477 117 477 93 c 0
 477 92 l 0
 477 89 477 84 477 78 c 0
 477 59 474 29 443 15 c 0
 435 11 427 10 419 10 c 0
 404 10 392 15 391 15 c 0
 390 15 389 15 388 15 c 0
 354 15 332 66 327 66 c 0
 326 66 326 65 326 64 c 0
 325 37 242 11 175 11 c 0
 166 11 158 11 150 12 c 0
 102 18 86 59 70 79 c 0
 38 119 10 165 10 244 c 0
 10 247 10 249 10 252 c 0
 12 292 14 440 147 530 c 0
 177 550 204 556 228 556 c 0
 263 556 291 543 307 538 c 0
 314 536 318 534 321 533 c 1
 323 539 325 555 326 560 c 1
 318 557 303 556 302 557 c 0
 284 568 261 563 247 583 c 0
 239 594 236 604 236 614 c 0
 236 627 242 639 253 651 c 0
 272 673 299 676 313 676 c 0
 318 676 321 676 322 676 c 1
EndSplineSet
Validated: 1
EndChar

StartChar: Eogonek
Encoding: 280 280 454
Width: 682
Flags: HW
HStem: 642 103<94 122 255.88 289.978>
LayerCount: 2
Fore
SplineSet
322 -195 m 2
 261 -195 228 -139 228 -89 c 0
 228 -54 243 -20 262 1 c 1
 71 1 l 2
 67 1 9 11 9 54 c 0
 9 99 75 106 75 106 c 0
 98 106 108 81 109 81 c 0
 109 81 109 81 109 82 c 0
 109 94 98 148 98 234 c 0
 98 369 133 424 133 578 c 0
 133 588 132 599 132 611 c 1
 131 611 122 599 102 599 c 0
 72 599 26 625 26 665 c 0
 26 738 128 756 128 756 c 0
 168 756 203 756 234 756 c 0
 340 756 397 757 439 757 c 0
 498 757 524 754 610 740 c 1
 631 733 632 727 632 697 c 0
 632 688 l 0
 632 645 624 637 624 634 c 0
 624 630 678 613 678 582 c 0
 678 576 675 554 659 550 c 1
 620 538 599 534 575 534 c 0
 555 534 533 537 496 539 c 0
 489 540 483 542 479 548 c 1
 468 560 464 567 464 572 c 0
 464 587 498 575 498 601 c 0
 498 602 l 0
 497 602 496 599 493 599 c 0
 489 599 482 602 472 615 c 1
 454 618 438 620 416 620 c 0
 395 620 369 618 328 611 c 0
 304 607 311 608 306 618 c 1
 304 562 304 547 304 529 c 0
 304 510 304 488 306 420 c 1
 323 416 342 411 366 411 c 0
 376 411 387 412 399 414 c 0
 400 415 400 416 400 418 c 0
 400 423 397 433 397 444 c 0
 397 481 435 506 468 506 c 0
 495 506 528 489 528 467 c 0
 529 324 530 302 530 302 c 0
 530 306 l 0
 531 306 531 294 532 228 c 1
 531 217 528 211 517 206 c 0
 499 198 483 195 470 195 c 0
 434 195 412 222 410 232 c 0
 407 246 406 256 406 263 c 0
 406 281 412 283 417 283 c 0
 419 283 421 283 421 283 c 0
 422 283 422 283 422 285 c 0
 422 290 412 290 389 296 c 0
 366 303 352 308 337 308 c 0
 326 308 302 303 297 295 c 1
 283 229 280 214 280 187 c 0
 280 172 281 154 281 122 c 1
 296 107 373 100 407 100 c 0
 443 100 478 104 530 106 c 1
 560 121 531 136 604 221 c 1
 613 227 619 231 625 231 c 0
 630 231 635 228 642 222 c 0
 669 197 674 180 674 100 c 0
 674 23 628 1 617 1 c 2
 380 1 l 2
 380 0 380 -0 380 -1 c 0
 380 -26 346 -16 333 -34 c 0
 318 -54 314 -73 314 -87 c 0
 314 -119 329 -121 333 -121 c 0
 334 -121 l 0
 345 -122 342 -125 345 -114 c 1
 351 -98 364 -91 377 -91 c 0
 395 -91 413 -105 413 -125 c 0
 413 -126 413 -127 413 -128 c 0
 409 -193 365 -195 338 -195 c 2
 322 -195 l 2
EndSplineSet
Validated: 1
EndChar

StartChar: eogonek
Encoding: 281 281 455
Width: 427
Flags: HW
LayerCount: 2
Fore
SplineSet
179 378 m 1
 181 378 183 378 185 378 c 0
 208 378 243 374 267 370 c 1
 267 372 266 374 266 376 c 0
 266 393 282 420 282 425 c 2
 282 426 l 1
 278 429 270 431 260 431 c 0
 243 431 220 426 202 414 c 0
 192 407 185 389 179 378 c 1
404 395 m 0
 404 358 387 293 342 290 c 0
 338 290 271 286 215 286 c 0
 180 286 150 288 144 293 c 1
 144 291 161 255 166 230 c 1
 172 192 176 175 198 156 c 0
 209 146 219 147 246 144 c 0
 262 143 272 141 279 141 c 0
 296 141 294 149 304 177 c 0
 312 200 331 210 350 210 c 0
 377 210 405 190 405 159 c 0
 405 158 405 157 405 156 c 0
 402 102 399 95 385 69 c 0
 361 27 323 16 295 14 c 1
 296 10 296 6 296 3 c 0
 296 -22 262 -12 249 -30 c 0
 234 -50 230 -69 230 -83 c 0
 230 -115 243 -117 248 -117 c 0
 249 -117 250 -117 250 -117 c 0
 261 -118 258 -121 261 -110 c 1
 267 -94 280 -87 293 -87 c 0
 311 -87 329 -101 329 -121 c 0
 329 -122 329 -123 329 -124 c 0
 325 -189 281 -191 254 -191 c 2
 238 -191 l 2
 177 -191 144 -136 144 -85 c 0
 144 -48 159 -12 193 18 c 1
 119 30 17 103 17 259 c 0
 17 363 79 536 249 536 c 0
 325 536 361 516 381 476 c 0
 397 444 404 419 404 395 c 0
EndSplineSet
Validated: 1
EndChar

StartChar: Gcommaaccent
Encoding: 290 290 464
Width: 818
Flags: HW
LayerCount: 2
Fore
SplineSet
491 2 m 1
 507 -20 520 -51 520 -87 c 0
 520 -197 447 -328 358 -333 c 1
 348 -333 l 2
 277 -333 265 -297 265 -274 c 0
 265 -221 342 -210 349 -195 c 0
 351 -189 352 -185 352 -182 c 0
 352 -176 350 -171 350 -163 c 0
 350 -161 282 -159 275 -104 c 0
 273 -91 272 -78 272 -65 c 0
 272 -40 276 -17 290 4 c 1
 268 10 247 19 225 30 c 0
 146 70 99 111 53 186 c 0
 22 237 7 280 7 336 c 0
 7 450 53 524 106 593 c 0
 161 663 210 702 296 738 c 0
 355 762 397 758 454 759 c 0
 459 759 464 759 469 759 c 0
 617 759 664 729 747 674 c 0
 764 664 772 607 772 583 c 0
 772 534 733 444 711 444 c 0
 706 444 702 445 695 449 c 0
 631 486 650 539 639 550 c 0
 585 603 548 629 476 638 c 0
 460 640 445 642 432 642 c 0
 392 642 361 631 324 603 c 0
 272 564 212 505 212 358 c 0
 212 304 227 264 268 215 c 0
 314 161 357 144 431 135 c 0
 446 133 459 132 472 132 c 0
 520 132 555 144 574 160 c 1
 575 212 576 229 576 239 c 0
 576 250 574 250 568 282 c 0
 565 298 497 270 461 322 c 0
 457 328 453 338 453 349 c 0
 453 358 456 368 464 376 c 0
 473 384 464 384 771 399 c 0
 791 399 806 379 806 355 c 0
 806 323 782 303 774 303 c 0
 768 303 763 310 754 317 c 1
 753 317 l 2
 752 317 752 315 752 312 c 0
 752 294 762 237 762 188 c 0
 762 159 758 133 748 118 c 0
 689 37 594 12 491 2 c 1
EndSplineSet
Validated: 1
EndChar

StartChar: gcommaaccent
Encoding: 291 291 465
Width: 551
Flags: HW
HStem: 452 20<111 146>
LayerCount: 2
Fore
SplineSet
285 366 m 0
 285 385 266 451 242 451 c 0
 231 451 218 441 199 423 c 0
 180 404 174 393 172 365 c 1
 172 355 l 2
 172 336 177 325 192 303 c 1
 212 276 220 266 232 266 c 0
 233 266 234 266 235 266 c 0
 256 268 264 287 277 327 c 0
 282 342 285 354 285 366 c 0
172 -60 m 1
 174 -92 239 -113 259 -113 c 0
 272 -113 285 -109 305 -105 c 0
 340 -97 361 -94 361 -74 c 0
 361 -67 358 -57 352 -44 c 0
 348 -35 331 16 279 16 c 0
 261 16 244 7 220 -9 c 1
 186 -30 172 -40 172 -58 c 2
 172 -60 l 1
221 142 m 0
 221 138 239 124 265 124 c 0
 286 124 309 133 341 133 c 0
 352 133 364 132 378 129 c 0
 413 121 530 103 530 -24 c 0
 530 -26 530 -28 530 -30 c 0
 527 -150 383 -206 344 -222 c 1
 378 -249 393 -299 393 -333 c 0
 393 -442 320 -574 231 -579 c 1
 221 -579 l 2
 150 -579 138 -543 138 -520 c 0
 138 -467 215 -456 222 -441 c 0
 224 -435 225 -431 225 -428 c 0
 225 -422 223 -417 223 -409 c 0
 223 -407 155 -405 148 -350 c 0
 146 -337 145 -324 145 -311 c 0
 145 -289 148 -268 158 -249 c 1
 113 -244 88 -225 54 -176 c 0
 35 -147 2 -116 2 -69 c 0
 2 -10 49 5 66 18 c 0
 83 31 99 36 111 39 c 1
 95 52 52 63 50 110 c 0
 50 115 51 119 53 123 c 0
 84 179 97 174 113 195 c 1
 112 195 109 202 100 220 c 0
 85 248 31 276 31 340 c 0
 31 360 37 376 40 390 c 0
 50 437 81 457 81 476 c 0
 81 479 80 483 78 486 c 0
 75 489 48 494 48 525 c 0
 48 563 71 564 83 564 c 0
 85 564 l 0
 119 564 132 542 143 542 c 0
 172 542 198 575 256 575 c 0
 330 575 362 532 391 531 c 0
 406 531 417 563 450 563 c 0
 455 563 461 562 467 560 c 1
 468 560 l 2
 473 560 488 565 503 565 c 0
 520 565 537 559 540 532 c 0
 542 518 544 503 544 488 c 0
 544 427 509 378 474 378 c 0
 464 378 453 381 440 387 c 1
 442 375 442 361 442 344 c 2
 442 321 l 2
 442 296 440 268 419 241 c 0
 378 187 324 190 287 170 c 0
 280 166 223 156 221 142 c 0
EndSplineSet
Validated: 1
EndChar

StartChar: Hbar
Encoding: 294 294 468
Width: 870
VWidth: 1080
Flags: HW
LayerCount: 2
Fore
SplineSet
310 588 m 1
 552 581 582 580 612 580 c 1
 612 596 613 612 617 631 c 1
 615 629 609 628 601 628 c 0
 582 628 555 635 538 658 c 0
 528 671 524 685 524 698 c 0
 524 722 539 742 556 743 c 0
 612 749 645 752 675 752 c 0
 711 752 746 747 816 737 c 0
 828 736 843 722 843 700 c 0
 843 692 841 682 835 671 c 0
 810 625 764 627 762 625 c 1
 762 610 762 595 762 581 c 1
 778 582 793 583 808 584 c 0
 811 584 814 584 817 584 c 0
 847 584 858 569 858 550 c 0
 858 518 826 475 794 475 c 0
 792 475 789 475 787 476 c 1
 762 477 l 1
 761 168 768 518 762 132 c 1
 763 129 788 122 803 89 c 0
 811 73 812 59 812 47 c 0
 812 43 812 39 812 35 c 0
 812 32 812 29 812 26 c 1
 811 8 809 1 790 -0 c 0
 699 -10 679 -12 663 -12 c 0
 645 -12 632 -9 524 -9 c 1
 505 -5 500 -3 500 12 c 0
 500 14 500 17 500 20 c 0
 501 36 498 65 522 94 c 0
 543 119 573 122 589 122 c 0
 595 122 599 122 600 122 c 0
 601 122 601 122 601 122 c 0
 607 197 608 194 608 206 c 0
 608 217 607 239 607 344 c 1
 547 347 542 349 542 350 c 0
 542 351 542 351 542 351 c 0
 542 352 541 352 532 352 c 0
 513 352 458 351 306 348 c 1
 312 256 314 222 314 211 c 0
 314 208 314 207 314 207 c 0
 313 207 311 215 310 215 c 0
 310 215 309 211 309 197 c 0
 309 185 310 163 311 128 c 1
 311 127 313 127 316 127 c 0
 319 127 326 128 333 128 c 0
 357 128 394 124 411 90 c 0
 416 80 418 70 418 61 c 0
 418 30 393 7 377 7 c 0
 245 5 227 1 204 1 c 0
 184 1 159 4 50 16 c 0
 32 18 12 42 12 69 c 0
 12 80 15 91 24 102 c 0
 37 118 56 123 74 123 c 0
 96 123 116 115 120 109 c 1
 119 152 119 185 119 210 c 0
 119 339 128 282 135 484 c 1
 75 485 l 1
 71 484 67 484 64 484 c 0
 39 484 25 504 25 525 c 0
 25 538 30 551 41 560 c 0
 59 574 94 582 137 586 c 1
 138 603 138 621 138 640 c 1
 136 637 124 634 109 634 c 0
 89 634 64 640 49 660 c 0
 39 673 36 686 36 698 c 0
 36 724 54 746 72 746 c 0
 73 746 l 0
 380 741 127 743 397 736 c 0
 416 735 430 714 430 692 c 0
 430 679 425 666 415 655 c 0
 400 639 380 634 361 634 c 0
 337 634 316 642 314 647 c 1
 312 622 311 603 310 588 c 1
612 479 m 1
 513 480 469 479 310 481 c 1
 310 472 310 463 310 451 c 1
 701 449 451 449 611 451 c 1
 612 461 612 471 612 479 c 1
EndSplineSet
Validated: 1
EndChar

StartChar: dotlessi
Encoding: 305 305 470
Width: 313
VWidth: 1000
Flags: HW
VStem: 107.85 135.15<109 183.214 109 314>
LayerCount: 2
Fore
SplineSet
40 465 m 0
 71 484 77 481 100 489 c 0
 116 494 133 506 160 506 c 0
 164 506 168 505 172 505 c 0
 198 501 225 492 241 464 c 0
 253 443 258 424 258 406 c 0
 258 371 243 341 243 314 c 0
 242 227 238 219 238 113 c 1
 240 116 245 119 251 119 c 0
 261 119 275 111 287 87 c 0
 291 78 294 68 294 57 c 0
 294 43 289 28 276 17 c 0
 269 12 272 11 210 11 c 0
 179 11 133 11 61 11 c 0
 42 11 27 33 27 56 c 0
 27 65 29 74 33 82 c 0
 47 107 69 114 86 114 c 0
 96 114 104 112 108 109 c 1
 108 122 108 132 108 141 c 0
 108 172 109 184 109 206 c 0
 109 231 107 268 102 356 c 1
 94 378 76 375 32 426 c 1
 28 435 25 442 25 447 c 0
 25 453 29 458 40 465 c 0
EndSplineSet
Validated: 1
EndChar

StartChar: longs
Encoding: 383 383 479
Width: 346
VWidth: 1080
Flags: HW
VStem: 91 97<109.827 326.772 457.125 553.959>
LayerCount: 2
Fore
SplineSet
68 3 m 2
 37 3 13 30 13 61 c 0
 13 80 23 102 47 118 c 0
 57 125 63 127 68 127 c 0
 76 127 81 121 88 117 c 1
 88 162 89 191 89 220 c 0
 89 250 88 278 87 320 c 1
 84 316 79 314 73 314 c 0
 60 314 42 324 28 348 c 0
 21 360 14 376 14 393 c 0
 14 403 17 414 24 425 c 1
 39 447 55 453 68 453 c 0
 75 453 81 451 84 448 c 1
 86 455 86 466 86 480 c 0
 86 492 86 506 86 519 c 0
 86 537 86 553 89 561 c 0
 124 665 194 732 255 751 c 0
 267 755 282 757 298 757 c 0
 367 757 465 722 465 632 c 0
 465 626 465 620 464 614 c 0
 462 598 456 570 425 558 c 0
 416 555 408 553 399 553 c 0
 345 553 307 616 283 616 c 0
 282 616 281 616 280 616 c 0
 255 611 247 585 235 550 c 1
 234 508 234 474 234 445 c 0
 234 367 236 325 236 236 c 0
 236 203 236 164 235 114 c 1
 237 116 241 117 245 117 c 0
 254 117 266 112 277 93 c 0
 282 83 285 73 285 63 c 0
 285 32 260 3 227 3 c 2
 68 3 l 2
EndSplineSet
Validated: 1
EndChar

StartChar: uni0180
Encoding: 384 384 480
Width: 550
VWidth: 1000
Flags: HW
VStem: 92.9649 75.6687<260.377 504.729 556.172 594.667>
LayerCount: 2
Fore
SplineSet
296 418 m 8
 265 412 247 398 230 372 c 16
 211 343 208 318 208 289 c 0
 208 275 208 261 209 246 c 8
 212 200 216 173 241 133 c 24
 252 113 261 98 285 91 c 16
 292 89 298 88 303 88 c 0
 314 88 323 91 334 96 c 8
 377 119 395 144 416 186 c 16
 428 209 434 228 434 250 c 0
 434 257 433 264 432 272 c 8
 426 318 408 342 377 378 c 24
 364 393 355 400 337 408 c 16
 324 413 315 418 302 418 c 0
 300 418 298 418 296 418 c 8
85 522 m 0
 85 523 34 536 29 540 c 0
 16 549 11 560 11 570 c 0
 11 586 23 601 37 609 c 0
 44 613 76 616 86 619 c 1
 87 624 87 632 87 641 c 1
 86 641 85 641 84 641 c 0
 68 641 26 660 26 685 c 0
 26 689 27 693 29 697 c 1
 51 738 79 764 133 800 c 1
 133 800 l 0
 140 805 147 806 154 806 c 0
 187 806 209 759 214 748 c 1
 215 746 216 743 216 739 c 0
 218 677 219 643 219 629 c 1
 231 629 230 630 240 630 c 0
 264 628 292 631 316 614 c 0
 330 604 339 589 339 573 c 0
 339 561 334 549 321 540 c 0
 302 526 286 525 269 525 c 0
 266 525 264 525 262 525 c 0
 249 525 235 524 219 518 c 1
 218 492 l 1
 223 496 234 500 255 504 c 0
 280 509 298 518 331 521 c 0
 343 522 358 527 375 527 c 0
 386 527 398 525 411 519 c 0
 472 493 495 450 520 402 c 0
 549 347 554 305 555 248 c 0
 555 244 555 240 555 236 c 0
 555 206 552 181 540 151 c 0
 528 121 514 102 494 79 c 0
 478 61 463 22 413 16 c 0
 367 10 306 4 249 4 c 0
 183 4 123 13 97 42 c 1
 93 46 91 51 91 56 c 0
 80 232 77 322 77 374 c 0
 77 453 84 444 85 522 c 0
EndSplineSet
Validated: 1
EndChar

StartChar: uni0181
Encoding: 385 385 481
Width: 673
VWidth: 1080
Flags: HW
LayerCount: 2
Fore
SplineSet
462 245 m 0
 462 247 462 249 462 250 c 0
 462 299 436 339 396 343 c 0
 356 347 331 351 320 351 c 0
 315 351 313 351 313 349 c 0
 308 280 304 252 304 207 c 0
 304 198 304 190 304 180 c 0
 305 155 331 136 362 136 c 0
 364 136 367 136 370 136 c 0
 424 142 459 187 462 245 c 0
336 631 m 1
 332 584 329 552 329 523 c 0
 329 493 332 465 337 427 c 1
 338 426 339 426 341 426 c 0
 351 426 375 438 412 455 c 0
 438 467 446 471 455 491 c 0
 463 509 468 523 468 537 c 0
 468 550 464 564 456 580 c 0
 443 606 428 615 397 626 c 0
 381 632 371 636 360 636 c 0
 354 636 346 634 336 631 c 1
538 393 m 1
 563 386 601 367 624 336 c 0
 650 302 657 268 657 233 c 0
 657 221 656 208 655 195 c 0
 649 139 642 85 585 44 c 0
 537 10 491 1 445 1 c 0
 404 1 363 8 321 8 c 0
 314 8 307 7 299 7 c 0
 244 4 214 -1 169 -1 c 0
 141 -1 106 1 55 7 c 1
 48 8 43 10 39 15 c 0
 26 30 20 47 20 63 c 0
 20 92 37 120 59 138 c 1
 61 140 63 141 66 142 c 0
 82 148 97 150 109 150 c 0
 140 150 159 137 161 131 c 1
 161 135 161 140 161 144 c 0
 161 215 147 279 145 283 c 1
 144 286 144 289 144 291 c 0
 169 651 l 1
 165 654 136 676 141 640 c 0
 142 632 143 624 143 617 c 0
 143 592 133 575 90 563 c 1
 85 561 80 561 75 563 c 0
 36 575 16 618 16 661 c 0
 16 704 37 745 80 751 c 0
 155 761 195 766 234 766 c 0
 261 766 288 764 326 759 c 0
 428 747 516 756 604 681 c 0
 642 648 652 609 655 567 c 0
 655 560 656 554 656 548 c 0
 656 514 648 484 624 454 c 0
 598 422 561 403 538 393 c 1
EndSplineSet
Validated: 1
EndChar

